<svg xml:space="preserve" style="enable-background:new 0 0 300 413.2;" viewBox="0 0 300 413.2" y="0px" x="0px" xmlns:xlink="http://www.w3.org/1999/xlink" xmlns="http://www.w3.org/2000/svg" version="1.1">
<style type="text/css">
	.st0{display:none;}
	.st1{display:inline;}
	.st2{font-family:'AktivGroteskCorp-Regular';}
	.st3{font-size:21.02px;}
	.st4{letter-spacing:3;}
	.st5{letter-spacing:2;}
	.st6{fill:none;stroke:#000000;stroke-linecap:round;stroke-linejoin:round;}
	.st7{fill:none;stroke:#000000;stroke-miterlimit:10;}
	.st8{enable-background:new    ;}
</style>
<g class="st0" id="Layer_1">
	<text class="st1 st2 st3 st4" transform="matrix(1 0 0 1 34.02 283.09)">NEW </text>
	<text class="st1 st2 st3 st5" transform="matrix(1 0 0 1 98.1 283.09)">C</text>
	<text class="st1 st2 st3 st4" transform="matrix(1 0 0 1 115.91 283.09)">ANDLE</text>
	<text class="st1 st2 st3 st5" transform="matrix(1 0 0 1 199.88 283.09)"> </text>
	<text class="st1 st2 st3 st4" transform="matrix(1 0 0 1 207.53 283.09)">TIME</text>
	<g class="st1">
		<path d="M195.2,58.4c-11.3,1.9-12.6,3.5-14.2,17c-1.6-13.5-2.9-15.1-14.2-17c11.3-1.9,12.6-3.5,14.2-17
			C182.6,54.9,183.9,56.5,195.2,58.4z" class="st6"></path>
		<path d="M228.5,84.7c-16.7,2.8-18.6,5.2-21,25.2c-2.4-20-4.3-22.3-21-25.2c16.7-2.8,18.6-5.2,21-25.2
			C209.9,79.5,211.8,81.8,228.5,84.7z" class="st6"></path>
		<g>
			<ellipse ry="7.4" rx="45.8" cy="96.9" cx="146.7" class="st7"></ellipse>
			<path d="M191.4,113.2c0,0,0.9,2.9-1.8,4.9c0,0,5,0,4.8,10.2c-0.1,10.2,0,79.8,0,85.4c0,5.6-16.5,12-48,12
				s-48-6.4-48-12s0.1-75.2,0-85.4s4.8-10.2,4.8-10.2c-2.7-2-1.8-4.9-1.8-4.9" class="st7"></path>
			<path d="M192.5,96.9c0,0,1.5,6.3-3,7.4c-39.4,9.4-71.9,4.6-82.6,2.6s-6-10-6-10" class="st7"></path>
			<path d="M101.2,104.3c0,0-3.6,4.1-2.7,5.6s-1.8,8.2,49.3,8.2s49.8-11.2,44.6-12.2c0,0,2.7-2.8,0-4.6" class="st7"></path>
			<path d="M192.5,105.9c-15.9,10.7-60.4,8.9-60.4,8.9" class="st7"></path>
			<path d="M194.4,131.2c0,0-24.9,12.9-84.6,5V204c0,0,40.4,11,84.6-4.1" class="st7"></path>
		</g>
	</g>
	<g class="st1">
		<path d="M86.4,311.5c0,0.7-0.1,1.4-0.3,2.1c-0.2,0.7-0.5,1.4-1,1.9c-0.4,0.6-1,1.1-1.8,1.4c-0.7,0.4-1.6,0.5-2.7,0.5
			c-0.7,0-1.4-0.1-2.1-0.4c-0.7-0.2-1.3-0.6-1.8-1.1s-0.9-1.1-1.2-1.9s-0.5-1.6-0.5-2.6s0.2-1.9,0.5-2.7s0.7-1.4,1.3-1.8
			c0.5-0.5,1.1-0.8,1.8-1.1s1.4-0.3,2.1-0.3c0.9,0,1.6,0.1,2.3,0.4c0.7,0.3,1.3,0.7,1.8,1.2c0.5,0.5,0.9,1.1,1.1,1.9
			S86.4,310.6,86.4,311.5L86.4,311.5z M76.7,311.5c0,0.7,0.1,1.4,0.3,2c0.2,0.6,0.5,1.1,0.8,1.5s0.8,0.7,1.3,1s1.1,0.3,1.7,0.3
			c0.6,0,1.1-0.1,1.6-0.3s0.9-0.5,1.3-0.9s0.7-0.9,0.9-1.5s0.3-1.3,0.3-2.2c0-0.5-0.1-1.1-0.2-1.7s-0.4-1-0.7-1.5
			c-0.3-0.4-0.7-0.8-1.2-1.1s-1.2-0.4-1.9-0.4s-1.4,0.1-1.9,0.4c-0.5,0.3-0.9,0.6-1.3,1.1s-0.6,0.9-0.7,1.5S76.7,310.9,76.7,311.5
			L76.7,311.5z"></path>
		<path d="M94.8,317.2v-4.9c0-0.3-0.1-0.5-0.1-0.7c-0.1-0.2-0.2-0.4-0.4-0.5c-0.2-0.1-0.3-0.2-0.5-0.3c-0.2-0.1-0.4-0.1-0.6-0.1
			c-0.3,0-0.5,0-0.8,0.1s-0.4,0.2-0.6,0.4c-0.2,0.2-0.3,0.4-0.4,0.7c-0.1,0.3-0.2,0.6-0.2,0.9v4.5h-1.3v-7.5h1.3v1.1
			c0.1-0.1,0.2-0.3,0.3-0.5s0.3-0.3,0.5-0.4s0.4-0.2,0.7-0.3c0.3-0.1,0.6-0.1,0.9-0.1c0.1,0,0.2,0,0.4,0s0.4,0.1,0.6,0.1
			s0.4,0.2,0.6,0.3c0.2,0.1,0.4,0.3,0.6,0.6c0.2,0.3,0.3,0.6,0.4,1c0.1,0.3,0.1,0.7,0.1,1v4.8L94.8,317.2L94.8,317.2z"></path>
		<path d="M106.7,314.5c-0.1,0.5-0.3,1-0.5,1.4s-0.5,0.7-0.8,0.9c-0.3,0.2-0.7,0.4-1.1,0.5s-0.8,0.1-1.2,0.1c-0.6,0-1.1-0.1-1.6-0.3
			s-0.8-0.5-1.2-0.8s-0.6-0.8-0.7-1.2s-0.2-1-0.2-1.6s0.1-1.1,0.2-1.6c0.2-0.5,0.4-0.9,0.7-1.3c0.3-0.4,0.7-0.7,1.2-0.9
			s1-0.3,1.6-0.3c0.6,0,1.1,0.1,1.5,0.2c0.4,0.2,0.8,0.4,1,0.6c0.3,0.2,0.5,0.5,0.7,0.8s0.3,0.6,0.3,0.9l-1.4,0.1
			c-0.1-0.5-0.3-1-0.7-1.3s-0.8-0.5-1.4-0.5c-0.3,0-0.6,0-0.8,0.1c-0.3,0.1-0.5,0.3-0.7,0.5s-0.4,0.5-0.5,0.9
			c-0.1,0.4-0.2,0.9-0.2,1.4c0,0.9,0.2,1.6,0.6,2.2s1,0.8,1.8,0.8c0.4,0,0.7,0,0.9-0.2c0.3-0.1,0.5-0.2,0.6-0.4
			c0.2-0.2,0.3-0.4,0.4-0.6s0.2-0.5,0.2-0.8L106.7,314.5L106.7,314.5z"></path>
		<path d="M110.7,313.7c0,0.3,0,0.6,0.1,0.9c0.1,0.3,0.2,0.6,0.4,0.9c0.2,0.3,0.4,0.5,0.8,0.7c0.3,0.2,0.7,0.3,1.2,0.3
			c0.3,0,0.6-0.1,0.8-0.2c0.2-0.1,0.4-0.3,0.6-0.4s0.3-0.4,0.4-0.6s0.2-0.4,0.2-0.6l1.3,0.2c0,0.1-0.1,0.3-0.2,0.6
			c-0.1,0.3-0.3,0.6-0.6,0.9c-0.3,0.3-0.6,0.5-1,0.8s-0.9,0.3-1.6,0.3c-0.5,0-0.9-0.1-1.4-0.2c-0.4-0.1-0.8-0.4-1.2-0.7
			s-0.6-0.8-0.8-1.3c-0.2-0.5-0.3-1.1-0.3-1.9s0.1-1.3,0.3-1.8c0.2-0.5,0.5-0.9,0.9-1.2s0.8-0.5,1.2-0.7c0.4-0.1,0.8-0.2,1.2-0.2
			c0.4,0,0.8,0.1,1.2,0.2c0.4,0.1,0.8,0.4,1.1,0.7c0.3,0.3,0.6,0.7,0.8,1.2c0.2,0.5,0.3,1.1,0.3,1.9v0.2h-5.7L110.7,313.7
			L110.7,313.7z M115,312.7c0-0.3-0.1-0.6-0.2-0.9s-0.2-0.5-0.4-0.7c-0.2-0.2-0.4-0.4-0.7-0.5s-0.6-0.2-0.9-0.2
			c-0.3,0-0.6,0.1-0.9,0.2s-0.5,0.3-0.7,0.5c-0.2,0.2-0.3,0.5-0.4,0.7c-0.1,0.3-0.2,0.6-0.2,0.9L115,312.7L115,312.7z"></path>
		<path d="M128.8,317.2v-7.9h-2.3v-1c0.7,0,1.2-0.1,1.6-0.2c0.4-0.2,0.6-0.4,0.8-0.7c0.1-0.2,0.2-0.4,0.2-0.6s0.1-0.3,0.1-0.4h1.1
			v10.8L128.8,317.2L128.8,317.2z"></path>
		<path d="M136.9,317.2h-1.2l3.7-11.2h1.2L136.9,317.2z"></path>
		<path d="M143.7,317.2v-1.3c0.1-0.1,0.3-0.1,0.5-0.3c0.2-0.1,0.4-0.3,0.7-0.5c0.3-0.2,0.6-0.4,0.9-0.7c0.4-0.3,0.8-0.6,1.2-1.1
			c0.3-0.2,0.5-0.5,0.8-0.8s0.5-0.5,0.7-0.9s0.4-0.6,0.5-1s0.2-0.7,0.2-1.1c0-0.6-0.2-1.1-0.5-1.5s-0.9-0.6-1.5-0.6
			c-0.4,0-0.7,0.1-1,0.2c-0.3,0.1-0.5,0.3-0.6,0.5c-0.1,0.2-0.3,0.4-0.3,0.7c-0.1,0.3-0.1,0.5-0.1,0.8c0,0.2,0,0.4,0,0.5
			s0.1,0.4,0.2,0.8h-1.4c0-0.1-0.1-0.3-0.1-0.5c0-0.2-0.1-0.5-0.1-0.8c0-0.1,0-0.2,0-0.4s0.1-0.4,0.1-0.7s0.2-0.5,0.3-0.7
			c0.1-0.3,0.3-0.5,0.6-0.7c0.2-0.2,0.5-0.4,0.9-0.5c0.4-0.2,0.9-0.3,1.6-0.3c0.1,0,0.2,0,0.4,0c0.2,0,0.4,0,0.6,0.1
			c0.2,0,0.4,0.1,0.7,0.2c0.2,0.1,0.5,0.3,0.7,0.5c0.4,0.3,0.7,0.7,0.9,1.2s0.3,1,0.3,1.5c0,0.8-0.2,1.6-0.7,2.4
			c-0.5,0.8-1.1,1.5-1.9,2.1c-0.8,0.6-1.6,1.2-2.4,1.7h5.2v1.2L143.7,317.2L143.7,317.2z"></path>
		<path d="M156,305.9v1c0,0.6-0.1,1.1-0.2,1.7c-0.1,0.5-0.3,1.1-0.5,1.6h-0.8c0.1-0.4,0.3-0.8,0.4-1.2c0.1-0.4,0.2-0.9,0.2-1.3h-0.7
			v-1.8L156,305.9L156,305.9z M158.4,305.9v1.1c0,0.5-0.1,1.1-0.2,1.6c-0.1,0.5-0.3,1.1-0.5,1.6h-0.7c0.1-0.2,0.1-0.5,0.2-0.6
			c0.1-0.2,0.1-0.4,0.1-0.6c0-0.2,0.1-0.4,0.1-0.6c0-0.2,0.1-0.4,0.1-0.7h-0.7v-1.8L158.4,305.9L158.4,305.9z"></path>
		<path d="M167.5,313.4c0-0.3,0-0.7,0.1-1.1c0.1-0.5,0.3-0.9,0.5-1.3s0.7-0.8,1.1-1.1c0.5-0.3,1.1-0.5,2-0.5c0.4,0,0.9,0.1,1.3,0.2
			c0.4,0.1,0.8,0.4,1.1,0.7c0.3,0.3,0.6,0.7,0.8,1.2s0.3,1.1,0.3,1.8s-0.1,1.3-0.3,1.8c-0.2,0.5-0.5,0.9-0.8,1.3s-0.7,0.6-1.2,0.8
			c-0.4,0.2-0.9,0.3-1.4,0.3c-0.5,0-1-0.1-1.5-0.3c-0.4-0.2-0.8-0.4-1.2-0.8s-0.6-0.8-0.8-1.2S167.5,314.1,167.5,313.4L167.5,313.4z
			 M168.9,313.5c0,0.2,0,0.5,0.1,0.8c0.1,0.3,0.1,0.6,0.3,1s0.4,0.6,0.7,0.8c0.3,0.2,0.7,0.3,1.2,0.3c0.8,0,1.4-0.3,1.7-0.8
			s0.6-1.3,0.6-2.3c0-0.3,0-0.6-0.1-1c-0.1-0.3-0.2-0.6-0.4-0.9s-0.4-0.5-0.7-0.7c-0.3-0.2-0.6-0.3-1.1-0.3c-0.6,0-1.1,0.1-1.4,0.4
			s-0.6,0.6-0.7,0.9c-0.1,0.4-0.2,0.7-0.3,1S168.9,313.4,168.9,313.5L168.9,313.5z"></path>
		<path d="M181.3,309.6v1h-1.4v6.5h-1.3v-6.5h-1.2v-1h1.2v-1.3c0-0.2,0-0.4,0-0.5s0-0.3,0.1-0.4s0.1-0.2,0.1-0.4
			c0.1-0.3,0.2-0.5,0.4-0.6c0.2-0.1,0.4-0.2,0.5-0.3s0.4-0.1,0.5-0.1s0.3,0,0.4,0c0.1,0,0.2,0,0.4,0s0.4,0,0.6,0.1v1
			c0,0-0.1,0-0.3,0s-0.3,0-0.4,0c-0.3,0-0.6,0.1-0.7,0.3c-0.1,0.2-0.2,0.5-0.2,0.9v1.4L181.3,309.6L181.3,309.6z"></path>
		<path d="M197.8,317.2h-1.1l-1.8-5.6l-1.8,5.6h-1.2l-2.6-7.5h1.4l1.9,5.6l1.9-5.6h1.1l1.8,5.6l2-5.6h1.3L197.8,317.2L197.8,317.2z"></path>
		<path d="M210.1,317.1c-0.2,0.1-0.4,0.1-0.5,0.1c-0.1,0-0.2,0-0.4,0c0,0-0.1,0-0.3,0c-0.2,0-0.3-0.1-0.5-0.2
			c-0.1-0.1-0.3-0.3-0.4-0.5s-0.1-0.4-0.1-0.5c-0.1,0.1-0.2,0.2-0.3,0.4s-0.3,0.3-0.5,0.4c-0.2,0.1-0.4,0.2-0.7,0.3
			c-0.3,0.1-0.6,0.1-1,0.1s-0.7,0-1-0.1s-0.6-0.2-0.8-0.4c-0.2-0.2-0.4-0.4-0.5-0.7s-0.2-0.6-0.2-0.9c0-0.1,0-0.2,0-0.3
			c0-0.1,0.1-0.3,0.1-0.4c0.1-0.1,0.1-0.3,0.2-0.5s0.2-0.3,0.4-0.4c0.2-0.1,0.4-0.3,0.7-0.4c0.2-0.1,0.5-0.2,0.8-0.3
			s0.6-0.1,0.8-0.1s0.5-0.1,0.8-0.1l1.1-0.1v-0.3c0-0.2,0-0.4,0-0.6s-0.1-0.5-0.2-0.7c-0.1-0.2-0.3-0.4-0.5-0.5s-0.6-0.2-1-0.2
			c-0.5,0-0.9,0.1-1.2,0.4s-0.4,0.6-0.4,1.1v0.1l-1.3-0.1c0-0.1,0-0.3,0.1-0.5c0.1-0.3,0.2-0.5,0.4-0.8c0.2-0.3,0.5-0.5,0.9-0.8
			c0.4-0.2,0.9-0.3,1.6-0.3c0.2,0,0.5,0,0.9,0.1s0.7,0.2,1,0.4c0.3,0.1,0.5,0.3,0.6,0.5c0.1,0.2,0.3,0.4,0.3,0.6
			c0.1,0.2,0.1,0.5,0.1,0.7c0,0.3,0,0.6,0,0.9v2.7c0,0.2,0,0.4,0.1,0.6s0.2,0.3,0.5,0.3c0.1,0,0.1,0,0.2,0c0.1,0,0.1,0,0.2,0
			L210.1,317.1L210.1,317.1z M207.8,314.1v-0.6c-0.1,0-0.3,0-0.6,0.1c-0.2,0-0.5,0.1-0.8,0.1c-0.3,0-0.5,0.1-0.8,0.1
			s-0.4,0.1-0.6,0.2c-0.1,0-0.1,0.1-0.2,0.1s-0.2,0.1-0.3,0.2c-0.1,0.1-0.2,0.2-0.3,0.3c-0.1,0.1-0.1,0.3-0.1,0.5
			c0,0.3,0.1,0.5,0.3,0.8s0.6,0.4,1.1,0.4c0.2,0,0.4,0,0.6-0.1c0.2,0,0.5-0.1,0.7-0.3s0.4-0.4,0.6-0.7
			C207.8,315,207.9,314.6,207.8,314.1L207.8,314.1z"></path>
		<path d="M216.6,317.2l-1.6-2.7l-1.6,2.7H212l2.3-3.8l-2.2-3.7h1.4l1.5,2.6l1.5-2.6h1.4l-2.3,3.7l2.3,3.8H216.6L216.6,317.2z"></path>
		<path d="M64.4,333.6v1.4c0.2-0.4,0.4-0.6,0.7-0.9c0.2-0.1,0.4-0.2,0.7-0.4s0.7-0.2,1.2-0.2v1.4c-0.2,0-0.3,0-0.5,0
			c-0.5,0-0.9,0.1-1.2,0.4s-0.6,0.6-0.7,1.1c-0.1,0.2-0.1,0.4-0.1,0.6s0,0.5,0,0.8v3.5h-1.3v-7.5H64.4L64.4,333.6z"></path>
		<path d="M70.7,337.7c0,0.3,0,0.6,0.1,0.9c0.1,0.3,0.2,0.6,0.4,0.9c0.2,0.3,0.4,0.5,0.8,0.7c0.3,0.2,0.7,0.3,1.2,0.3
			c0.3,0,0.6-0.1,0.8-0.2s0.4-0.3,0.6-0.4c0.2-0.2,0.3-0.4,0.4-0.6s0.2-0.4,0.2-0.6l1.3,0.2c0,0.1-0.1,0.3-0.2,0.6
			c-0.1,0.3-0.3,0.6-0.6,0.9s-0.6,0.5-1,0.8c-0.4,0.2-0.9,0.3-1.6,0.3c-0.5,0-0.9-0.1-1.4-0.2c-0.4-0.1-0.8-0.4-1.2-0.7
			c-0.3-0.3-0.6-0.8-0.8-1.3c-0.2-0.5-0.3-1.1-0.3-1.9s0.1-1.3,0.3-1.8c0.2-0.5,0.5-0.9,0.9-1.2s0.8-0.5,1.2-0.7
			c0.4-0.1,0.8-0.2,1.2-0.2c0.4,0,0.8,0.1,1.2,0.2c0.4,0.1,0.8,0.4,1.1,0.7c0.3,0.3,0.6,0.7,0.8,1.2c0.2,0.5,0.3,1.1,0.3,1.9v0.2
			h-5.7L70.7,337.7L70.7,337.7z M75,336.7c0-0.3-0.1-0.6-0.2-0.9s-0.2-0.5-0.4-0.7c-0.2-0.2-0.4-0.4-0.7-0.5s-0.6-0.2-0.9-0.2
			c-0.3,0-0.6,0.1-0.9,0.2s-0.5,0.3-0.7,0.5c-0.2,0.2-0.3,0.5-0.4,0.7c-0.1,0.3-0.2,0.6-0.2,0.9L75,336.7L75,336.7z"></path>
		<path d="M88.6,341.2v-5c0-0.3-0.1-0.6-0.1-0.8c-0.1-0.2-0.2-0.4-0.4-0.5c-0.1-0.1-0.3-0.2-0.4-0.2c-0.2,0-0.3-0.1-0.4-0.1
			c-0.2,0-0.4,0-0.5,0.1c-0.2,0.1-0.3,0.1-0.5,0.3c-0.2,0.1-0.3,0.2-0.4,0.4c-0.1,0.1-0.2,0.3-0.3,0.5c0,0.1-0.1,0.3-0.1,0.4
			c0,0.2,0,0.4,0,0.7v4.2h-1.3v-4.9c0-0.4-0.1-0.7-0.2-0.9s-0.2-0.4-0.4-0.5s-0.3-0.2-0.5-0.2c-0.2,0-0.3,0-0.4,0
			c-0.2,0-0.3,0-0.5,0.1c-0.2,0-0.4,0.1-0.5,0.2c-0.2,0.1-0.3,0.2-0.4,0.4c-0.1,0.1-0.2,0.3-0.3,0.5c-0.1,0.1-0.1,0.2-0.1,0.4
			c0,0.1,0,0.3,0,0.6v4.5h-1.2v-7.5h1.2v1c0.3-0.4,0.7-0.7,1-0.9s0.8-0.4,1.3-0.4c0.1,0,0.2,0,0.3,0s0.2,0,0.4,0.1
			c0.2,0,0.3,0.1,0.5,0.2c0.2,0.1,0.3,0.2,0.4,0.4c0.1,0.1,0.2,0.2,0.2,0.3s0.1,0.2,0.2,0.4c0.1-0.1,0.2-0.2,0.4-0.4
			c0.2-0.1,0.3-0.3,0.6-0.5c0.2-0.1,0.4-0.3,0.7-0.4c0.2-0.1,0.5-0.2,0.8-0.2c0.2,0,0.4,0,0.6,0.1c0.2,0.1,0.4,0.1,0.5,0.2
			s0.3,0.2,0.4,0.3s0.2,0.2,0.2,0.2c0.2,0.3,0.4,0.6,0.4,0.9s0.1,0.7,0.1,1v5L88.6,341.2L88.6,341.2z"></path>
		<path d="M100.3,341.1c-0.2,0.1-0.3,0.1-0.5,0.1c-0.1,0-0.2,0-0.3,0c0,0-0.1,0-0.3,0s-0.3-0.1-0.5-0.2c-0.2-0.1-0.3-0.3-0.4-0.5
			c-0.1-0.2-0.1-0.4-0.2-0.5c-0.1,0.1-0.2,0.2-0.3,0.4s-0.3,0.3-0.5,0.4c-0.2,0.1-0.4,0.2-0.7,0.3c-0.3,0.1-0.6,0.1-1,0.1
			s-0.7,0-1-0.1c-0.3-0.1-0.6-0.2-0.8-0.4c-0.2-0.2-0.4-0.4-0.5-0.7s-0.2-0.6-0.2-0.9c0-0.1,0-0.2,0-0.3c0-0.1,0.1-0.3,0.1-0.4
			c0.1-0.1,0.1-0.3,0.2-0.5s0.2-0.3,0.4-0.4c0.2-0.1,0.4-0.3,0.7-0.4c0.2-0.1,0.5-0.2,0.8-0.3s0.6-0.1,0.8-0.1s0.5-0.1,0.8-0.1
			l1.2-0.1v-0.3c0-0.2,0-0.4,0-0.6s-0.1-0.5-0.2-0.7c-0.1-0.2-0.3-0.4-0.5-0.5c-0.2-0.1-0.6-0.2-1-0.2c-0.5,0-0.9,0.1-1.2,0.4
			s-0.4,0.6-0.4,1.1v0.1l-1.3-0.1c0-0.1,0-0.3,0.1-0.5c0.1-0.3,0.2-0.5,0.4-0.8s0.5-0.5,0.9-0.8c0.4-0.2,0.9-0.3,1.6-0.3
			c0.2,0,0.5,0,0.9,0.1s0.7,0.2,1,0.4c0.3,0.1,0.5,0.3,0.6,0.5s0.3,0.4,0.3,0.6s0.1,0.5,0.1,0.7c0,0.3,0,0.6,0,0.9v2.7
			c0,0.2,0,0.4,0.1,0.6s0.2,0.3,0.5,0.3c0.1,0,0.2,0,0.2,0c0.1,0,0.1,0,0.2,0L100.3,341.1L100.3,341.1z M98.1,338.1v-0.6
			c-0.2,0-0.3,0-0.6,0.1s-0.5,0.1-0.8,0.1c-0.3,0-0.5,0.1-0.8,0.1s-0.4,0.1-0.6,0.2c-0.1,0-0.2,0.1-0.2,0.1s-0.2,0.1-0.3,0.2
			c-0.1,0.1-0.2,0.2-0.3,0.3s-0.1,0.3-0.1,0.5c0,0.3,0.1,0.5,0.3,0.8s0.6,0.4,1.1,0.4c0.2,0,0.4,0,0.6-0.1c0.2,0,0.5-0.1,0.7-0.3
			s0.4-0.4,0.6-0.7C98,339,98.1,338.6,98.1,338.1L98.1,338.1z"></path>
		<path d="M103.3,331.4v-1.5h1.2v1.5H103.3z M103.3,341.2v-7.5h1.2v7.5H103.3z"></path>
		<path d="M113.1,341.2v-4.9c0-0.3-0.1-0.5-0.1-0.7c-0.1-0.2-0.2-0.4-0.4-0.5c-0.2-0.1-0.3-0.2-0.5-0.3c-0.2-0.1-0.4-0.1-0.6-0.1
			c-0.3,0-0.5,0-0.8,0.1c-0.2,0.1-0.4,0.2-0.6,0.4c-0.2,0.2-0.3,0.4-0.4,0.7c-0.1,0.3-0.2,0.6-0.2,0.9v4.5h-1.3v-7.5h1.3v1.1
			c0.1-0.1,0.2-0.3,0.3-0.5s0.3-0.3,0.5-0.4c0.2-0.1,0.4-0.2,0.7-0.3c0.3-0.1,0.6-0.1,0.9-0.1c0.1,0,0.2,0,0.4,0s0.4,0.1,0.6,0.1
			s0.4,0.2,0.6,0.3c0.2,0.1,0.4,0.3,0.6,0.6c0.2,0.3,0.3,0.6,0.4,1c0.1,0.3,0.1,0.7,0.1,1v4.8L113.1,341.2L113.1,341.2z"></path>
		<path d="M119,338.5c0,0.2,0,0.5,0.1,0.7s0.2,0.4,0.3,0.6c0.2,0.2,0.5,0.4,0.8,0.5s0.6,0.1,0.9,0.1c0.2,0,0.3,0,0.5,0
			s0.4-0.1,0.6-0.2s0.3-0.2,0.5-0.4c0.1-0.2,0.2-0.4,0.2-0.6c0-0.2-0.1-0.4-0.2-0.5c-0.1-0.1-0.2-0.3-0.4-0.3
			c-0.2-0.1-0.3-0.1-0.5-0.2s-0.4-0.1-0.5-0.1l-0.7-0.1c-0.5-0.1-0.9-0.2-1.3-0.4c-0.3-0.1-0.6-0.3-0.8-0.5s-0.3-0.4-0.4-0.6
			c-0.1-0.2-0.1-0.5-0.1-0.7c0-0.4,0.1-0.8,0.3-1c0.2-0.3,0.4-0.5,0.7-0.7c0.3-0.2,0.6-0.3,0.9-0.4c0.3-0.1,0.7-0.1,1-0.1
			c0.4,0,0.8,0,1.1,0.1c0.3,0.1,0.6,0.2,0.8,0.3c0.2,0.1,0.4,0.3,0.6,0.4c0.2,0.1,0.3,0.3,0.4,0.4c0.2,0.2,0.2,0.5,0.3,0.7
			s0.1,0.4,0.1,0.5l-1.4,0.2c0-0.2,0-0.3,0-0.4c0-0.1,0-0.2-0.1-0.3c-0.1-0.1-0.1-0.2-0.2-0.3s-0.2-0.2-0.4-0.3
			c-0.2-0.1-0.3-0.2-0.6-0.2s-0.5-0.1-0.7-0.1s-0.5,0-0.7,0.1c-0.2,0.1-0.3,0.2-0.5,0.3c-0.1,0.1-0.2,0.2-0.3,0.4
			c-0.1,0.1-0.1,0.3-0.1,0.4c0,0.3,0.2,0.6,0.5,0.7s0.8,0.3,1.3,0.5l0.7,0.2c0.3,0.1,0.7,0.2,1,0.3c0.3,0.1,0.6,0.2,0.8,0.4
			s0.4,0.4,0.5,0.6c0.1,0.2,0.2,0.5,0.2,0.9c0,0.4-0.1,0.7-0.2,1c-0.2,0.3-0.4,0.5-0.7,0.8c-0.3,0.2-0.6,0.4-1,0.5
			c-0.4,0.1-0.8,0.2-1.2,0.2c-0.6,0-1.1-0.1-1.5-0.2c-0.4-0.1-0.8-0.3-1-0.6c-0.3-0.2-0.5-0.5-0.6-0.9s-0.2-0.7-0.3-1L119,338.5
			L119,338.5z"></path>
		<path d="M128.9,339.4v1c0,0.6-0.1,1.1-0.2,1.7c-0.1,0.5-0.3,1.1-0.5,1.6h-0.8c0.1-0.4,0.3-0.8,0.4-1.2s0.2-0.9,0.2-1.3h-0.7v-1.7
			L128.9,339.4L128.9,339.4z"></path>
		<path d="M138.6,331.4v-1.5h1.2v1.5H138.6z M138.6,341.2v-7.5h1.2v7.5H138.6z"></path>
		<path d="M145.2,339.5c0,0.3,0,0.5,0.1,0.6c0.1,0.1,0.2,0.2,0.4,0.2c0.1,0,0.2,0,0.3,0c0.1,0,0.3-0.1,0.5-0.1v1.1
			c-0.1,0-0.2,0-0.5,0.1c-0.2,0-0.5,0.1-0.7,0.1c-0.3,0-0.6,0-0.7-0.1s-0.3-0.1-0.4-0.3s-0.2-0.3-0.2-0.4c0-0.2-0.1-0.4-0.1-0.6
			v-5.3h-1.2v-1h1.2v-2.4h1.3v2.4h1.4v1h-1.4L145.2,339.5L145.2,339.5z"></path>
		<path d="M151.3,329.9v0.8c0,0.6-0.1,1.1-0.2,1.7c-0.1,0.6-0.3,1.1-0.5,1.7h-0.8c0.1-0.4,0.3-0.8,0.4-1.2c0.1-0.4,0.2-0.9,0.2-1.3
			h-0.7v-1.8L151.3,329.9L151.3,329.9z"></path>
		<path d="M154.9,338.5c0,0.2,0,0.5,0.1,0.7s0.2,0.4,0.4,0.6c0.2,0.2,0.5,0.4,0.8,0.5c0.3,0.1,0.6,0.1,0.9,0.1c0.2,0,0.3,0,0.5,0
			s0.4-0.1,0.6-0.2c0.2-0.1,0.3-0.2,0.5-0.4c0.1-0.2,0.2-0.4,0.2-0.6c0-0.2-0.1-0.4-0.1-0.5c-0.1-0.1-0.2-0.3-0.4-0.3
			c-0.1-0.1-0.3-0.1-0.5-0.2s-0.4-0.1-0.5-0.1l-0.7-0.1c-0.5-0.1-0.9-0.2-1.3-0.4c-0.4-0.1-0.6-0.3-0.8-0.5s-0.4-0.4-0.4-0.6
			c-0.1-0.2-0.1-0.5-0.1-0.7c0-0.4,0.1-0.8,0.3-1c0.2-0.3,0.4-0.5,0.7-0.7c0.3-0.2,0.6-0.3,0.9-0.4c0.4-0.1,0.7-0.1,1-0.1
			c0.4,0,0.8,0,1.1,0.1c0.3,0.1,0.6,0.2,0.8,0.3c0.2,0.1,0.4,0.3,0.6,0.4c0.1,0.1,0.3,0.3,0.4,0.4c0.1,0.2,0.2,0.5,0.3,0.7
			s0.1,0.4,0.1,0.5l-1.4,0.2c0-0.2,0-0.3,0-0.4c0-0.1,0-0.2-0.1-0.3c-0.1-0.1-0.1-0.2-0.2-0.3s-0.2-0.2-0.4-0.3
			c-0.1-0.1-0.3-0.2-0.6-0.2s-0.5-0.1-0.7-0.1s-0.5,0-0.7,0.1s-0.4,0.2-0.5,0.3c-0.1,0.1-0.2,0.2-0.3,0.4c-0.1,0.1-0.1,0.3-0.1,0.4
			c0,0.3,0.2,0.6,0.5,0.7c0.3,0.2,0.8,0.3,1.3,0.5l0.7,0.2c0.4,0.1,0.7,0.2,1,0.3c0.3,0.1,0.6,0.2,0.8,0.4s0.4,0.4,0.5,0.6
			c0.1,0.2,0.2,0.5,0.2,0.9c0,0.4-0.1,0.7-0.2,1s-0.4,0.5-0.7,0.8s-0.6,0.4-1,0.5c-0.4,0.1-0.8,0.2-1.2,0.2c-0.6,0-1.1-0.1-1.5-0.2
			c-0.4-0.1-0.8-0.3-1-0.6c-0.3-0.2-0.5-0.5-0.6-0.9s-0.2-0.7-0.3-1L154.9,338.5L154.9,338.5z"></path>
		<path d="M170.9,339.5c0,0.3,0,0.5,0.1,0.6s0.2,0.2,0.4,0.2c0.1,0,0.2,0,0.3,0c0.1,0,0.3-0.1,0.5-0.1v1.1c-0.1,0-0.2,0-0.5,0.1
			s-0.5,0.1-0.7,0.1c-0.3,0-0.6,0-0.7-0.1s-0.3-0.1-0.4-0.3s-0.2-0.3-0.2-0.4c0-0.2-0.1-0.4-0.1-0.6v-5.3h-1.2v-1h1.2v-2.4h1.3v2.4
			h1.4v1h-1.4L170.9,339.5L170.9,339.5z"></path>
		<path d="M175.5,331.4v-1.5h1.2v1.5H175.5z M175.5,341.2v-7.5h1.2v7.5H175.5z"></path>
		<path d="M189.4,341.2v-5c0-0.3-0.1-0.6-0.1-0.8c-0.1-0.2-0.2-0.4-0.4-0.5c-0.1-0.1-0.3-0.2-0.4-0.2c-0.1,0-0.3-0.1-0.4-0.1
			c-0.2,0-0.4,0-0.5,0.1c-0.2,0.1-0.4,0.1-0.5,0.3c-0.2,0.1-0.3,0.2-0.4,0.4c-0.1,0.1-0.2,0.3-0.3,0.5c0,0.1-0.1,0.3-0.1,0.4
			c0,0.2,0,0.4,0,0.7v4.2h-1.3v-4.9c0-0.4-0.1-0.7-0.2-0.9s-0.2-0.4-0.4-0.5s-0.3-0.2-0.5-0.2c-0.2,0-0.3,0-0.4,0
			c-0.2,0-0.3,0-0.5,0.1s-0.4,0.1-0.5,0.2c-0.2,0.1-0.3,0.2-0.4,0.4c-0.1,0.1-0.2,0.3-0.3,0.5c-0.1,0.1-0.1,0.2-0.1,0.4
			c0,0.1,0,0.3,0,0.6v4.5h-1.2v-7.5h1.2v1c0.3-0.4,0.6-0.7,1-0.9s0.8-0.4,1.3-0.4c0.1,0,0.2,0,0.3,0s0.2,0,0.4,0.1
			c0.1,0,0.3,0.1,0.5,0.2s0.3,0.2,0.4,0.4c0.1,0.1,0.2,0.2,0.2,0.3s0.1,0.2,0.2,0.4c0.1-0.1,0.2-0.2,0.4-0.4
			c0.2-0.1,0.3-0.3,0.6-0.5s0.4-0.3,0.7-0.4c0.2-0.1,0.5-0.2,0.9-0.2c0.2,0,0.4,0,0.6,0.1c0.2,0.1,0.4,0.1,0.5,0.2s0.3,0.2,0.4,0.3
			s0.2,0.2,0.2,0.2c0.2,0.3,0.4,0.6,0.4,0.9s0.1,0.7,0.1,1v5L189.4,341.2L189.4,341.2z"></path>
		<path d="M195.3,337.7c0,0.3,0,0.6,0.1,0.9c0.1,0.3,0.2,0.6,0.4,0.9c0.2,0.3,0.4,0.5,0.8,0.7c0.3,0.2,0.7,0.3,1.1,0.3
			c0.3,0,0.6-0.1,0.9-0.2c0.2-0.1,0.4-0.3,0.6-0.4s0.3-0.4,0.4-0.6s0.1-0.4,0.2-0.6l1.3,0.2c0,0.1-0.1,0.3-0.2,0.6
			c-0.1,0.3-0.3,0.6-0.6,0.9c-0.3,0.3-0.6,0.5-1,0.8c-0.4,0.2-0.9,0.3-1.6,0.3c-0.5,0-0.9-0.1-1.4-0.2c-0.4-0.1-0.8-0.4-1.2-0.7
			c-0.3-0.3-0.6-0.8-0.8-1.3c-0.2-0.5-0.3-1.1-0.3-1.9s0.1-1.3,0.4-1.8c0.2-0.5,0.5-0.9,0.9-1.2s0.8-0.5,1.2-0.7
			c0.4-0.1,0.8-0.2,1.2-0.2c0.4,0,0.8,0.1,1.2,0.2c0.4,0.1,0.8,0.4,1.1,0.7c0.3,0.3,0.6,0.7,0.8,1.2s0.3,1.1,0.3,1.9v0.2h-5.7
			L195.3,337.7L195.3,337.7z M199.6,336.7c0-0.3-0.1-0.6-0.2-0.9s-0.2-0.5-0.4-0.7c-0.2-0.2-0.4-0.4-0.7-0.5s-0.6-0.2-0.9-0.2
			c-0.3,0-0.6,0.1-0.9,0.2s-0.5,0.3-0.6,0.5s-0.3,0.5-0.4,0.7s-0.2,0.6-0.2,0.9L199.6,336.7L199.6,336.7z"></path>
		<path d="M213.3,333.6v1h-1.4v6.5h-1.3v-6.5h-1.2v-1h1.2v-1.3c0-0.2,0-0.4,0-0.5s0-0.3,0.1-0.4s0.1-0.2,0.1-0.4
			c0.1-0.3,0.2-0.5,0.4-0.6c0.2-0.1,0.4-0.2,0.5-0.3s0.4-0.1,0.5-0.1c0.2,0,0.3,0,0.4,0c0.1,0,0.2,0,0.4,0c0.2,0,0.4,0,0.6,0.1v1
			c0,0-0.1,0-0.3,0s-0.3,0-0.4,0c-0.3,0-0.6,0.1-0.7,0.3c-0.1,0.2-0.2,0.5-0.2,0.9v1.4L213.3,333.6L213.3,333.6z"></path>
		<path d="M215.7,337.4c0-0.3,0-0.7,0.1-1.1c0.1-0.5,0.3-0.9,0.5-1.3c0.3-0.4,0.7-0.8,1.1-1.1c0.5-0.3,1.1-0.5,2-0.5
			c0.4,0,0.9,0.1,1.3,0.2s0.8,0.4,1.1,0.7c0.3,0.3,0.6,0.7,0.8,1.2c0.2,0.5,0.3,1.1,0.3,1.8s-0.1,1.3-0.3,1.8
			c-0.2,0.5-0.5,0.9-0.8,1.3s-0.7,0.6-1.2,0.8c-0.4,0.2-0.9,0.3-1.4,0.3c-0.5,0-1-0.1-1.5-0.3c-0.4-0.2-0.8-0.4-1.2-0.8
			s-0.6-0.8-0.8-1.2S215.7,338.1,215.7,337.4L215.7,337.4z M217.1,337.5c0,0.2,0,0.5,0.1,0.8c0.1,0.3,0.1,0.6,0.3,1s0.4,0.6,0.7,0.8
			c0.3,0.2,0.7,0.3,1.2,0.3c0.8,0,1.4-0.3,1.7-0.8s0.6-1.3,0.6-2.3c0-0.3,0-0.6-0.1-1s-0.2-0.6-0.4-0.9s-0.4-0.5-0.7-0.7
			c-0.3-0.2-0.6-0.3-1.1-0.3c-0.6,0-1.1,0.1-1.4,0.4c-0.3,0.3-0.6,0.6-0.7,0.9c-0.1,0.4-0.2,0.7-0.3,1
			C217.1,337.2,217.1,337.4,217.1,337.5L217.1,337.5z"></path>
		<path d="M227.7,333.6v1.4c0.2-0.4,0.4-0.6,0.7-0.9c0.1-0.1,0.4-0.2,0.7-0.4c0.3-0.1,0.7-0.2,1.2-0.2v1.4c-0.2,0-0.3,0-0.5,0
			c-0.5,0-0.9,0.1-1.2,0.4s-0.6,0.6-0.7,1.1c-0.1,0.2-0.1,0.4-0.1,0.6c0,0.2,0,0.5,0,0.8v3.5h-1.3v-7.5H227.7L227.7,333.6z"></path>
		<path d="M100.4,365.1c-0.2,0.1-0.3,0.1-0.5,0.1c-0.1,0-0.2,0-0.3,0c0,0-0.1,0-0.3,0s-0.3-0.1-0.5-0.2c-0.2-0.1-0.3-0.3-0.4-0.5
			c-0.1-0.2-0.1-0.4-0.2-0.5c-0.1,0.1-0.2,0.2-0.3,0.4s-0.3,0.3-0.5,0.4c-0.2,0.1-0.4,0.2-0.7,0.3c-0.3,0.1-0.6,0.1-1,0.1
			s-0.7,0-1-0.1s-0.6-0.2-0.8-0.4c-0.2-0.2-0.4-0.4-0.5-0.7s-0.2-0.6-0.2-0.9c0-0.1,0-0.2,0-0.3c0-0.1,0.1-0.3,0.1-0.4
			c0.1-0.1,0.1-0.3,0.2-0.5s0.2-0.3,0.4-0.4c0.2-0.1,0.4-0.3,0.7-0.4c0.2-0.1,0.5-0.2,0.8-0.3s0.6-0.1,0.8-0.1s0.5-0.1,0.8-0.1
			l1.2-0.1v-0.3c0-0.2,0-0.4,0-0.6s-0.1-0.5-0.2-0.7c-0.1-0.2-0.3-0.4-0.5-0.5s-0.6-0.2-1-0.2c-0.5,0-0.9,0.1-1.2,0.4
			s-0.4,0.6-0.4,1.1v0.1l-1.3-0.1c0-0.1,0-0.3,0.1-0.5c0.1-0.3,0.2-0.5,0.4-0.8c0.2-0.3,0.5-0.5,0.9-0.8c0.4-0.2,0.9-0.3,1.6-0.3
			c0.2,0,0.5,0,0.9,0.1s0.7,0.2,1,0.4c0.3,0.1,0.5,0.3,0.6,0.5c0.2,0.2,0.3,0.4,0.3,0.6c0.1,0.2,0.1,0.5,0.1,0.7c0,0.3,0,0.6,0,0.9
			v2.7c0,0.2,0,0.4,0.1,0.6s0.2,0.3,0.5,0.3c0.1,0,0.2,0,0.2,0c0.1,0,0.1,0,0.2,0L100.4,365.1L100.4,365.1z M98.2,362.1v-0.6
			c-0.2,0-0.3,0-0.6,0.1c-0.2,0-0.5,0.1-0.8,0.1c-0.3,0-0.5,0.1-0.8,0.1s-0.4,0.1-0.6,0.2c-0.1,0-0.2,0.1-0.2,0.1s-0.2,0.1-0.3,0.2
			c-0.1,0.1-0.2,0.2-0.3,0.3s-0.1,0.3-0.1,0.5c0,0.3,0.1,0.5,0.3,0.8s0.6,0.4,1.1,0.4c0.2,0,0.4,0,0.6-0.1c0.2,0,0.5-0.1,0.7-0.3
			s0.4-0.4,0.6-0.7C98.1,363,98.1,362.6,98.2,362.1L98.2,362.1z"></path>
		<path d="M114.2,365.2v-4.9c0-0.3-0.1-0.5-0.1-0.7c-0.1-0.2-0.2-0.4-0.4-0.5c-0.2-0.1-0.3-0.2-0.5-0.3c-0.2-0.1-0.4-0.1-0.6-0.1
			c-0.3,0-0.5,0-0.8,0.1c-0.2,0.1-0.4,0.2-0.6,0.4c-0.2,0.2-0.3,0.4-0.4,0.7c-0.1,0.3-0.2,0.6-0.2,0.9v4.5h-1.3v-7.5h1.3v1.1
			c0.1-0.1,0.2-0.3,0.3-0.5s0.3-0.3,0.5-0.4c0.2-0.1,0.4-0.2,0.7-0.3c0.3-0.1,0.6-0.1,0.9-0.1c0.1,0,0.2,0,0.4,0s0.4,0.1,0.6,0.1
			s0.4,0.2,0.6,0.3s0.4,0.3,0.6,0.6c0.2,0.3,0.3,0.6,0.4,1s0.1,0.7,0.1,1v4.8L114.2,365.2L114.2,365.2z"></path>
		<path d="M120.1,361.7c0,0.3,0,0.6,0.1,0.9c0.1,0.3,0.2,0.6,0.4,0.9c0.2,0.3,0.4,0.5,0.8,0.7c0.3,0.2,0.7,0.3,1.2,0.3
			c0.3,0,0.6-0.1,0.8-0.2s0.4-0.3,0.6-0.4c0.2-0.2,0.3-0.4,0.4-0.6s0.2-0.4,0.2-0.6l1.3,0.2c0,0.1-0.1,0.3-0.2,0.6
			c-0.1,0.3-0.3,0.6-0.6,0.9s-0.6,0.5-1,0.8c-0.4,0.2-0.9,0.3-1.6,0.3c-0.5,0-0.9-0.1-1.4-0.2c-0.4-0.1-0.8-0.4-1.2-0.7
			c-0.3-0.3-0.6-0.8-0.8-1.3c-0.2-0.5-0.3-1.1-0.3-1.9s0.1-1.3,0.3-1.8c0.2-0.5,0.5-0.9,0.9-1.2s0.8-0.5,1.2-0.7
			c0.4-0.1,0.8-0.2,1.2-0.2c0.4,0,0.8,0.1,1.2,0.2c0.4,0.1,0.8,0.4,1.1,0.7c0.3,0.3,0.6,0.7,0.8,1.2c0.2,0.5,0.3,1.1,0.3,1.9v0.2
			H120L120.1,361.7L120.1,361.7z M124.4,360.7c0-0.3-0.1-0.6-0.2-0.9s-0.2-0.5-0.4-0.7c-0.2-0.2-0.4-0.4-0.7-0.5s-0.6-0.2-0.9-0.2
			c-0.3,0-0.6,0.1-0.9,0.2s-0.5,0.3-0.7,0.5c-0.2,0.2-0.3,0.5-0.4,0.7c-0.1,0.3-0.2,0.6-0.2,0.9L124.4,360.7L124.4,360.7z"></path>
		<path d="M136.7,365.2h-1.1l-1.8-5.6l-1.8,5.6h-1.2l-2.6-7.5h1.4l1.9,5.6l1.9-5.6h1.1l1.8,5.6l2-5.6h1.3L136.7,365.2L136.7,365.2z"></path>
		<path d="M155.1,362.5c-0.1,0.5-0.3,1-0.5,1.4s-0.5,0.7-0.8,0.9s-0.7,0.4-1.1,0.5s-0.8,0.1-1.2,0.1c-0.6,0-1.1-0.1-1.6-0.3
			s-0.9-0.5-1.2-0.8c-0.3-0.4-0.6-0.8-0.7-1.2s-0.2-1-0.2-1.6s0.1-1.1,0.2-1.6c0.2-0.5,0.4-0.9,0.7-1.3c0.3-0.4,0.7-0.7,1.1-0.9
			c0.5-0.2,1-0.3,1.6-0.3c0.6,0,1.1,0.1,1.5,0.2s0.8,0.4,1,0.6c0.3,0.2,0.5,0.5,0.6,0.8s0.3,0.6,0.3,0.9l-1.4,0.1
			c-0.1-0.5-0.3-1-0.7-1.3c-0.4-0.3-0.8-0.5-1.4-0.5c-0.3,0-0.6,0-0.8,0.1s-0.5,0.3-0.7,0.5s-0.4,0.5-0.5,0.9
			c-0.1,0.4-0.2,0.9-0.2,1.4c0,0.9,0.2,1.6,0.6,2.2s1,0.8,1.8,0.8c0.4,0,0.7,0,0.9-0.2c0.3-0.1,0.5-0.2,0.6-0.4
			c0.2-0.2,0.3-0.4,0.4-0.6s0.2-0.5,0.2-0.8L155.1,362.5L155.1,362.5z"></path>
		<path d="M164.9,365.1c-0.2,0.1-0.4,0.1-0.5,0.1s-0.2,0-0.4,0c0,0-0.1,0-0.3,0c-0.2,0-0.3-0.1-0.5-0.2c-0.1-0.1-0.3-0.3-0.4-0.5
			s-0.1-0.4-0.1-0.5c-0.1,0.1-0.2,0.2-0.3,0.4s-0.3,0.3-0.5,0.4c-0.2,0.1-0.4,0.2-0.7,0.3c-0.3,0.1-0.6,0.1-1,0.1s-0.7,0-1-0.1
			s-0.6-0.2-0.8-0.4c-0.2-0.2-0.4-0.4-0.5-0.7s-0.2-0.6-0.2-0.9c0-0.1,0-0.2,0-0.3c0-0.1,0.1-0.3,0.1-0.4c0.1-0.1,0.1-0.3,0.2-0.5
			s0.2-0.3,0.4-0.4c0.2-0.1,0.4-0.3,0.7-0.4c0.2-0.1,0.5-0.2,0.8-0.3s0.6-0.1,0.8-0.1s0.5-0.1,0.8-0.1l1.1-0.1v-0.3
			c0-0.2,0-0.4,0-0.6s-0.1-0.5-0.2-0.7c-0.1-0.2-0.3-0.4-0.5-0.5c-0.2-0.1-0.6-0.2-1-0.2c-0.5,0-0.9,0.1-1.2,0.4
			c-0.3,0.2-0.4,0.6-0.4,1.1v0.1l-1.3-0.1c0-0.1,0-0.3,0.1-0.5s0.2-0.5,0.4-0.8s0.5-0.5,0.9-0.8c0.4-0.2,0.9-0.3,1.6-0.3
			c0.2,0,0.5,0,0.9,0.1s0.7,0.2,1,0.4c0.3,0.1,0.5,0.3,0.6,0.5c0.1,0.2,0.3,0.4,0.3,0.6c0.1,0.2,0.1,0.5,0.1,0.7c0,0.3,0,0.6,0,0.9
			v2.7c0,0.2,0,0.4,0.1,0.6s0.2,0.3,0.5,0.3c0.1,0,0.1,0,0.2,0c0.1,0,0.1,0,0.2,0L164.9,365.1L164.9,365.1z M162.7,362.1v-0.6
			c-0.1,0-0.3,0-0.6,0.1c-0.2,0-0.5,0.1-0.8,0.1c-0.3,0-0.5,0.1-0.8,0.1s-0.4,0.1-0.6,0.2c-0.1,0-0.1,0.1-0.2,0.1
			c-0.1,0-0.2,0.1-0.3,0.2c-0.1,0.1-0.2,0.2-0.3,0.3c-0.1,0.1-0.1,0.3-0.1,0.5c0,0.3,0.1,0.5,0.3,0.8s0.6,0.4,1.1,0.4
			c0.2,0,0.4,0,0.6-0.1c0.2,0,0.5-0.1,0.7-0.3s0.4-0.4,0.6-0.7C162.6,363,162.7,362.6,162.7,362.1L162.7,362.1z"></path>
		<path d="M172.8,365.2v-4.9c0-0.3-0.1-0.5-0.1-0.7c-0.1-0.2-0.2-0.4-0.4-0.5s-0.3-0.2-0.5-0.3s-0.4-0.1-0.6-0.1
			c-0.3,0-0.5,0-0.8,0.1c-0.2,0.1-0.4,0.2-0.6,0.4c-0.2,0.2-0.3,0.4-0.4,0.7c-0.1,0.3-0.2,0.6-0.2,0.9v4.5h-1.3v-7.5h1.3v1.1
			c0.1-0.1,0.2-0.3,0.3-0.5s0.3-0.3,0.5-0.4c0.2-0.1,0.4-0.2,0.7-0.3c0.3-0.1,0.6-0.1,0.9-0.1c0.1,0,0.2,0,0.4,0s0.4,0.1,0.6,0.1
			s0.4,0.2,0.6,0.3s0.4,0.3,0.6,0.6c0.2,0.3,0.4,0.6,0.4,1s0.1,0.7,0.1,1v4.8L172.8,365.2L172.8,365.2z"></path>
		<path d="M183.4,365.2v-1c-0.1,0.1-0.2,0.2-0.4,0.4s-0.3,0.3-0.5,0.4c-0.2,0.1-0.4,0.2-0.7,0.3s-0.6,0.1-1,0.1
			c-0.6,0-1.1-0.1-1.5-0.3c-0.4-0.2-0.8-0.5-1.1-0.8s-0.5-0.8-0.7-1.3s-0.2-1-0.2-1.6c0-0.7,0.1-1.4,0.3-1.9
			c0.2-0.5,0.5-0.9,0.8-1.2s0.7-0.5,1.1-0.7c0.4-0.1,0.8-0.2,1.2-0.2c0.3,0,0.7,0,0.9,0.1c0.3,0.1,0.5,0.2,0.8,0.3
			c0.2,0.1,0.4,0.3,0.6,0.4c0.1,0.1,0.3,0.3,0.3,0.4v-4.8h1.3v11.3L183.4,365.2L183.4,365.2z M178.7,361.4c0,0.3,0,0.7,0.1,1
			c0.1,0.3,0.2,0.6,0.4,0.9c0.2,0.3,0.4,0.5,0.7,0.7s0.7,0.3,1.1,0.3c0.3,0,0.6,0,0.8-0.1s0.5-0.3,0.8-0.5s0.4-0.5,0.5-0.9
			s0.2-0.9,0.2-1.4c0-0.4-0.1-0.7-0.2-1.1s-0.3-0.6-0.5-0.9c-0.2-0.2-0.4-0.4-0.7-0.6c-0.3-0.1-0.6-0.2-1-0.2
			c-0.4,0-0.8,0.1-1.1,0.2c-0.3,0.2-0.5,0.4-0.7,0.6c-0.2,0.3-0.3,0.6-0.4,0.9S178.7,361.1,178.7,361.4L178.7,361.4z"></path>
		<path d="M188.3,365.2v-11.3h1.2v11.3H188.3z"></path>
		<path d="M194.2,361.7c0,0.3,0,0.6,0.1,0.9c0.1,0.3,0.2,0.6,0.4,0.9c0.2,0.3,0.4,0.5,0.8,0.7c0.3,0.2,0.7,0.3,1.1,0.3
			c0.3,0,0.6-0.1,0.9-0.2c0.2-0.1,0.4-0.3,0.6-0.4c0.1-0.2,0.3-0.4,0.4-0.6s0.1-0.4,0.2-0.6l1.3,0.2c0,0.1-0.1,0.3-0.2,0.6
			c-0.1,0.3-0.3,0.6-0.6,0.9s-0.6,0.5-1,0.8s-0.9,0.3-1.6,0.3c-0.5,0-0.9-0.1-1.4-0.2c-0.4-0.1-0.8-0.4-1.2-0.7s-0.6-0.8-0.8-1.3
			c-0.2-0.5-0.3-1.1-0.3-1.9s0.1-1.3,0.4-1.8c0.2-0.5,0.5-0.9,0.9-1.2s0.8-0.5,1.2-0.7c0.4-0.1,0.8-0.2,1.2-0.2
			c0.4,0,0.8,0.1,1.2,0.2c0.4,0.1,0.8,0.4,1.1,0.7s0.6,0.7,0.8,1.2s0.3,1.1,0.3,1.9v0.2h-5.7L194.2,361.7L194.2,361.7z M198.5,360.7
			c0-0.3-0.1-0.6-0.2-0.9s-0.2-0.5-0.4-0.7c-0.2-0.2-0.4-0.4-0.7-0.5c-0.3-0.1-0.6-0.2-0.9-0.2c-0.3,0-0.6,0.1-0.9,0.2
			s-0.5,0.3-0.6,0.5s-0.3,0.5-0.4,0.7s-0.2,0.6-0.2,0.9L198.5,360.7L198.5,360.7z"></path>
		<path d="M203.2,365.2v-1.8h1.6v1.8H203.2z"></path>
	</g>
</g>
<g id="Layer_2">
	<g class="st8">
		<path d="M35.7,268.1h1.9l7.6,11.9v-11.9h1.9v15h-1.8l-7.7-11.9v11.9h-1.9V268.1z"></path>
		<path d="M53.6,268.1h9.7v1.7h-7.8v4.7h7.4v1.7h-7.4v5.2h8.2l-0.3,1.7h-9.8V268.1z"></path>
		<path d="M67.8,268.1H70l3.1,12.3l3.3-12.3h2.1l3.2,12.3l3.1-12.3h2.1l-4.2,15h-2l-3.3-12.5L74,283.1h-2L67.8,268.1z"></path>
	</g>
	<g class="st8">
		<path d="M112.1,278.2c-0.1,0.8-0.3,1.5-0.6,2.1c-0.3,0.7-0.7,1.2-1.2,1.7c-0.5,0.5-1.1,0.8-1.8,1.1c-0.7,0.3-1.6,0.4-2.5,0.4
			c-1,0-2-0.2-2.8-0.5c-0.8-0.3-1.5-0.9-2.1-1.5c-0.6-0.7-1-1.5-1.3-2.5c-0.3-1-0.5-2.1-0.5-3.3c0-1.3,0.2-2.4,0.5-3.4
			c0.3-1,0.8-1.8,1.4-2.5c0.6-0.7,1.3-1.2,2.1-1.5c0.8-0.3,1.7-0.5,2.7-0.5c0.9,0,1.7,0.1,2.4,0.4c0.7,0.2,1.2,0.6,1.7,1
			c0.5,0.4,0.8,1,1.1,1.6c0.3,0.6,0.5,1.3,0.7,2l-1.9,0.3c-0.1-0.5-0.3-1-0.5-1.5s-0.5-0.8-0.8-1.1c-0.3-0.3-0.7-0.5-1.1-0.7
			c-0.4-0.2-1-0.2-1.6-0.2c-0.7,0-1.4,0.2-2,0.5s-1.1,0.7-1.5,1.3c-0.4,0.5-0.7,1.2-0.9,2c-0.2,0.8-0.3,1.6-0.3,2.5s0.1,1.8,0.3,2.5
			c0.2,0.8,0.5,1.4,0.9,2s0.9,1,1.5,1.3c0.6,0.3,1.3,0.4,2,0.4c0.7,0,1.3-0.1,1.8-0.3c0.5-0.2,0.9-0.4,1.2-0.7
			c0.3-0.3,0.6-0.7,0.7-1.2c0.2-0.4,0.3-0.9,0.4-1.5H112.1z"></path>
	</g>
	<g class="st8">
		<path d="M122,268.1h2l5.8,15h-2.1l-1.6-4.2h-6.4l-1.6,4.2h-2L122,268.1z M125.6,277.2l-2.6-7l-2.6,7H125.6z"></path>
		<path d="M134.9,268.1h1.9l7.6,11.9v-11.9h1.9v15h-1.8l-7.7-11.9v11.9h-1.9V268.1z"></path>
		<path d="M152.8,268.1h5.3c1.1,0,2.1,0.2,2.9,0.5c0.9,0.3,1.6,0.8,2.2,1.4c0.6,0.6,1.1,1.4,1.4,2.3s0.5,2,0.5,3.3
			c0,1.3-0.2,2.4-0.5,3.3s-0.8,1.7-1.5,2.4c-0.6,0.6-1.4,1.1-2.4,1.4s-2,0.5-3.1,0.5h-4.8V268.1z M157.6,281.4
			c1.9,0,3.2-0.5,4.1-1.6s1.3-2.5,1.3-4.3c0-0.9-0.1-1.7-0.3-2.4c-0.2-0.7-0.5-1.3-0.9-1.8c-0.4-0.5-0.9-0.9-1.5-1.1
			c-0.6-0.3-1.4-0.4-2.2-0.4h-3.3v11.7H157.6z"></path>
		<path d="M170.9,268.1h1.9v13.3h7.8l-0.3,1.7h-9.4V268.1z"></path>
		<path d="M185.9,268.1h9.7v1.7h-7.8v4.7h7.4v1.7h-7.4v5.2h8.2l-0.3,1.7h-9.8V268.1z"></path>
	</g>
	<g class="st8">
		<path d="M212.9,269.8h-5v-1.7h11.9v1.7h-5v13.3h-1.9V269.8z"></path>
		<path d="M225,268.1h1.9v15H225V268.1z"></path>
		<path d="M233.4,268.1h2.4l4.8,12.7l4.9-12.7h2.3v15h-1.8v-11.8l-4.7,11.8h-1.6l-4.6-11.8v11.8h-1.8V268.1z"></path>
		<path d="M254.3,268.1h9.7v1.7h-7.8v4.7h7.4v1.7h-7.4v5.2h8.2l-0.3,1.7h-9.8V268.1z"></path>
	</g>
	<g>
		<path d="M195.2,58.4c-11.3,1.9-12.6,3.5-14.2,17c-1.6-13.5-2.9-15.1-14.2-17c11.3-1.9,12.6-3.5,14.2-17
			C182.6,54.9,183.9,56.5,195.2,58.4z" class="st6"></path>
		<path d="M228.5,84.7c-16.7,2.8-18.6,5.2-21,25.2c-2.4-20-4.3-22.3-21-25.2c16.7-2.8,18.6-5.2,21-25.2
			C209.9,79.5,211.8,81.8,228.5,84.7z" class="st6"></path>
		<g>
			<ellipse ry="7.4" rx="45.8" cy="96.9" cx="146.7" class="st7"></ellipse>
			<path d="M191.4,113.2c0,0,0.9,2.9-1.8,4.9c0,0,5,0,4.8,10.2c-0.1,10.2,0,79.8,0,85.4c0,5.6-16.5,12-48,12
				s-48-6.4-48-12s0.1-75.2,0-85.4s4.8-10.2,4.8-10.2c-2.7-2-1.8-4.9-1.8-4.9" class="st7"></path>
			<path d="M192.5,96.9c0,0,1.5,6.3-3,7.4c-39.4,9.4-71.9,4.6-82.6,2.6s-6-10-6-10" class="st7"></path>
			<path d="M101.2,104.3c0,0-3.6,4.1-2.7,5.6s-1.8,8.2,49.3,8.2s49.8-11.2,44.6-12.2c0,0,2.7-2.8,0-4.6" class="st7"></path>
			<path d="M192.5,105.9c-15.9,10.7-60.4,8.9-60.4,8.9" class="st7"></path>
			<path d="M194.4,131.2c0,0-24.9,12.9-84.6,5V204c0,0,40.4,11,84.6-4.1" class="st7"></path>
		</g>
	</g>
	<g>
		<path d="M86.4,311.5c0,0.7-0.1,1.4-0.3,2.1c-0.2,0.7-0.5,1.4-1,1.9c-0.4,0.6-1,1.1-1.8,1.4c-0.7,0.4-1.6,0.5-2.7,0.5
			c-0.7,0-1.4-0.1-2.1-0.4c-0.7-0.2-1.3-0.6-1.8-1.1s-0.9-1.1-1.2-1.9s-0.5-1.6-0.5-2.6s0.2-1.9,0.5-2.7s0.7-1.4,1.3-1.8
			c0.5-0.5,1.1-0.8,1.8-1.1s1.4-0.3,2.1-0.3c0.9,0,1.6,0.1,2.3,0.4c0.7,0.3,1.3,0.7,1.8,1.2c0.5,0.5,0.9,1.1,1.1,1.9
			S86.4,310.6,86.4,311.5L86.4,311.5z M76.7,311.5c0,0.7,0.1,1.4,0.3,2c0.2,0.6,0.5,1.1,0.8,1.5s0.8,0.7,1.3,1s1.1,0.3,1.7,0.3
			c0.6,0,1.1-0.1,1.6-0.3s0.9-0.5,1.3-0.9s0.7-0.9,0.9-1.5s0.3-1.3,0.3-2.2c0-0.5-0.1-1.1-0.2-1.7s-0.4-1-0.7-1.5
			c-0.3-0.4-0.7-0.8-1.2-1.1s-1.2-0.4-1.9-0.4s-1.4,0.1-1.9,0.4c-0.5,0.3-0.9,0.6-1.3,1.1s-0.6,0.9-0.7,1.5S76.7,310.9,76.7,311.5
			L76.7,311.5z"></path>
		<path d="M94.8,317.2v-4.9c0-0.3-0.1-0.5-0.1-0.7c-0.1-0.2-0.2-0.4-0.4-0.5c-0.2-0.1-0.3-0.2-0.5-0.3c-0.2-0.1-0.4-0.1-0.6-0.1
			c-0.3,0-0.5,0-0.8,0.1s-0.4,0.2-0.6,0.4c-0.2,0.2-0.3,0.4-0.4,0.7c-0.1,0.3-0.2,0.6-0.2,0.9v4.5h-1.3v-7.5h1.3v1.1
			c0.1-0.1,0.2-0.3,0.3-0.5s0.3-0.3,0.5-0.4s0.4-0.2,0.7-0.3c0.3-0.1,0.6-0.1,0.9-0.1c0.1,0,0.2,0,0.4,0s0.4,0.1,0.6,0.1
			s0.4,0.2,0.6,0.3c0.2,0.1,0.4,0.3,0.6,0.6c0.2,0.3,0.3,0.6,0.4,1c0.1,0.3,0.1,0.7,0.1,1v4.8L94.8,317.2L94.8,317.2z"></path>
		<path d="M106.7,314.5c-0.1,0.5-0.3,1-0.5,1.4s-0.5,0.7-0.8,0.9c-0.3,0.2-0.7,0.4-1.1,0.5s-0.8,0.1-1.2,0.1c-0.6,0-1.1-0.1-1.6-0.3
			s-0.8-0.5-1.2-0.8s-0.6-0.8-0.7-1.2s-0.2-1-0.2-1.6s0.1-1.1,0.2-1.6c0.2-0.5,0.4-0.9,0.7-1.3c0.3-0.4,0.7-0.7,1.2-0.9
			s1-0.3,1.6-0.3c0.6,0,1.1,0.1,1.5,0.2c0.4,0.2,0.8,0.4,1,0.6c0.3,0.2,0.5,0.5,0.7,0.8s0.3,0.6,0.3,0.9l-1.4,0.1
			c-0.1-0.5-0.3-1-0.7-1.3s-0.8-0.5-1.4-0.5c-0.3,0-0.6,0-0.8,0.1c-0.3,0.1-0.5,0.3-0.7,0.5s-0.4,0.5-0.5,0.9
			c-0.1,0.4-0.2,0.9-0.2,1.4c0,0.9,0.2,1.6,0.6,2.2s1,0.8,1.8,0.8c0.4,0,0.7,0,0.9-0.2c0.3-0.1,0.5-0.2,0.6-0.4
			c0.2-0.2,0.3-0.4,0.4-0.6s0.2-0.5,0.2-0.8L106.7,314.5L106.7,314.5z"></path>
		<path d="M110.7,313.7c0,0.3,0,0.6,0.1,0.9c0.1,0.3,0.2,0.6,0.4,0.9c0.2,0.3,0.4,0.5,0.8,0.7c0.3,0.2,0.7,0.3,1.2,0.3
			c0.3,0,0.6-0.1,0.8-0.2c0.2-0.1,0.4-0.3,0.6-0.4s0.3-0.4,0.4-0.6s0.2-0.4,0.2-0.6l1.3,0.2c0,0.1-0.1,0.3-0.2,0.6
			c-0.1,0.3-0.3,0.6-0.6,0.9c-0.3,0.3-0.6,0.5-1,0.8s-0.9,0.3-1.6,0.3c-0.5,0-0.9-0.1-1.4-0.2c-0.4-0.1-0.8-0.4-1.2-0.7
			s-0.6-0.8-0.8-1.3c-0.2-0.5-0.3-1.1-0.3-1.9s0.1-1.3,0.3-1.8c0.2-0.5,0.5-0.9,0.9-1.2s0.8-0.5,1.2-0.7c0.4-0.1,0.8-0.2,1.2-0.2
			c0.4,0,0.8,0.1,1.2,0.2c0.4,0.1,0.8,0.4,1.1,0.7c0.3,0.3,0.6,0.7,0.8,1.2c0.2,0.5,0.3,1.1,0.3,1.9v0.2h-5.7L110.7,313.7
			L110.7,313.7z M115,312.7c0-0.3-0.1-0.6-0.2-0.9s-0.2-0.5-0.4-0.7c-0.2-0.2-0.4-0.4-0.7-0.5s-0.6-0.2-0.9-0.2
			c-0.3,0-0.6,0.1-0.9,0.2s-0.5,0.3-0.7,0.5c-0.2,0.2-0.3,0.5-0.4,0.7c-0.1,0.3-0.2,0.6-0.2,0.9L115,312.7L115,312.7z"></path>
		<path d="M128.8,317.2v-7.9h-2.3v-1c0.7,0,1.2-0.1,1.6-0.2c0.4-0.2,0.6-0.4,0.8-0.7c0.1-0.2,0.2-0.4,0.2-0.6s0.1-0.3,0.1-0.4h1.1
			v10.8L128.8,317.2L128.8,317.2z"></path>
		<path d="M136.9,317.2h-1.2l3.7-11.2h1.2L136.9,317.2z"></path>
		<path d="M143.7,317.2v-1.3c0.1-0.1,0.3-0.1,0.5-0.3c0.2-0.1,0.4-0.3,0.7-0.5c0.3-0.2,0.6-0.4,0.9-0.7c0.4-0.3,0.8-0.6,1.2-1.1
			c0.3-0.2,0.5-0.5,0.8-0.8s0.5-0.5,0.7-0.9s0.4-0.6,0.5-1s0.2-0.7,0.2-1.1c0-0.6-0.2-1.1-0.5-1.5s-0.9-0.6-1.5-0.6
			c-0.4,0-0.7,0.1-1,0.2c-0.3,0.1-0.5,0.3-0.6,0.5c-0.1,0.2-0.3,0.4-0.3,0.7c-0.1,0.3-0.1,0.5-0.1,0.8c0,0.2,0,0.4,0,0.5
			s0.1,0.4,0.2,0.8h-1.4c0-0.1-0.1-0.3-0.1-0.5c0-0.2-0.1-0.5-0.1-0.8c0-0.1,0-0.2,0-0.4s0.1-0.4,0.1-0.7s0.2-0.5,0.3-0.7
			c0.1-0.3,0.3-0.5,0.6-0.7c0.2-0.2,0.5-0.4,0.9-0.5c0.4-0.2,0.9-0.3,1.6-0.3c0.1,0,0.2,0,0.4,0c0.2,0,0.4,0,0.6,0.1
			c0.2,0,0.4,0.1,0.7,0.2c0.2,0.1,0.5,0.3,0.7,0.5c0.4,0.3,0.7,0.7,0.9,1.2s0.3,1,0.3,1.5c0,0.8-0.2,1.6-0.7,2.4
			c-0.5,0.8-1.1,1.5-1.9,2.1c-0.8,0.6-1.6,1.2-2.4,1.7h5.2v1.2L143.7,317.2L143.7,317.2z"></path>
		<path d="M156,305.9v1c0,0.6-0.1,1.1-0.2,1.7c-0.1,0.5-0.3,1.1-0.5,1.6h-0.8c0.1-0.4,0.3-0.8,0.4-1.2c0.1-0.4,0.2-0.9,0.2-1.3h-0.7
			v-1.8L156,305.9L156,305.9z M158.4,305.9v1.1c0,0.5-0.1,1.1-0.2,1.6c-0.1,0.5-0.3,1.1-0.5,1.6h-0.7c0.1-0.2,0.1-0.5,0.2-0.6
			c0.1-0.2,0.1-0.4,0.1-0.6c0-0.2,0.1-0.4,0.1-0.6c0-0.2,0.1-0.4,0.1-0.7h-0.7v-1.8L158.4,305.9L158.4,305.9z"></path>
		<path d="M167.5,313.4c0-0.3,0-0.7,0.1-1.1c0.1-0.5,0.3-0.9,0.5-1.3s0.7-0.8,1.1-1.1c0.5-0.3,1.1-0.5,2-0.5c0.4,0,0.9,0.1,1.3,0.2
			c0.4,0.1,0.8,0.4,1.1,0.7c0.3,0.3,0.6,0.7,0.8,1.2s0.3,1.1,0.3,1.8s-0.1,1.3-0.3,1.8c-0.2,0.5-0.5,0.9-0.8,1.3s-0.7,0.6-1.2,0.8
			c-0.4,0.2-0.9,0.3-1.4,0.3c-0.5,0-1-0.1-1.5-0.3c-0.4-0.2-0.8-0.4-1.2-0.8s-0.6-0.8-0.8-1.2S167.5,314.1,167.5,313.4L167.5,313.4z
			 M168.9,313.5c0,0.2,0,0.5,0.1,0.8c0.1,0.3,0.1,0.6,0.3,1s0.4,0.6,0.7,0.8c0.3,0.2,0.7,0.3,1.2,0.3c0.8,0,1.4-0.3,1.7-0.8
			s0.6-1.3,0.6-2.3c0-0.3,0-0.6-0.1-1c-0.1-0.3-0.2-0.6-0.4-0.9s-0.4-0.5-0.7-0.7c-0.3-0.2-0.6-0.3-1.1-0.3c-0.6,0-1.1,0.1-1.4,0.4
			s-0.6,0.6-0.7,0.9c-0.1,0.4-0.2,0.7-0.3,1S168.9,313.4,168.9,313.5L168.9,313.5z"></path>
		<path d="M181.3,309.6v1h-1.4v6.5h-1.3v-6.5h-1.2v-1h1.2v-1.3c0-0.2,0-0.4,0-0.5s0-0.3,0.1-0.4s0.1-0.2,0.1-0.4
			c0.1-0.3,0.2-0.5,0.4-0.6c0.2-0.1,0.4-0.2,0.5-0.3s0.4-0.1,0.5-0.1s0.3,0,0.4,0c0.1,0,0.2,0,0.4,0s0.4,0,0.6,0.1v1
			c0,0-0.1,0-0.3,0s-0.3,0-0.4,0c-0.3,0-0.6,0.1-0.7,0.3c-0.1,0.2-0.2,0.5-0.2,0.9v1.4L181.3,309.6L181.3,309.6z"></path>
		<path d="M197.8,317.2h-1.1l-1.8-5.6l-1.8,5.6h-1.2l-2.6-7.5h1.4l1.9,5.6l1.9-5.6h1.1l1.8,5.6l2-5.6h1.3L197.8,317.2L197.8,317.2z"></path>
		<path d="M210.1,317.1c-0.2,0.1-0.4,0.1-0.5,0.1c-0.1,0-0.2,0-0.4,0c0,0-0.1,0-0.3,0c-0.2,0-0.3-0.1-0.5-0.2
			c-0.1-0.1-0.3-0.3-0.4-0.5s-0.1-0.4-0.1-0.5c-0.1,0.1-0.2,0.2-0.3,0.4s-0.3,0.3-0.5,0.4c-0.2,0.1-0.4,0.2-0.7,0.3
			c-0.3,0.1-0.6,0.1-1,0.1s-0.7,0-1-0.1s-0.6-0.2-0.8-0.4c-0.2-0.2-0.4-0.4-0.5-0.7s-0.2-0.6-0.2-0.9c0-0.1,0-0.2,0-0.3
			c0-0.1,0.1-0.3,0.1-0.4c0.1-0.1,0.1-0.3,0.2-0.5s0.2-0.3,0.4-0.4c0.2-0.1,0.4-0.3,0.7-0.4c0.2-0.1,0.5-0.2,0.8-0.3
			s0.6-0.1,0.8-0.1s0.5-0.1,0.8-0.1l1.1-0.1v-0.3c0-0.2,0-0.4,0-0.6s-0.1-0.5-0.2-0.7c-0.1-0.2-0.3-0.4-0.5-0.5s-0.6-0.2-1-0.2
			c-0.5,0-0.9,0.1-1.2,0.4s-0.4,0.6-0.4,1.1v0.1l-1.3-0.1c0-0.1,0-0.3,0.1-0.5c0.1-0.3,0.2-0.5,0.4-0.8c0.2-0.3,0.5-0.5,0.9-0.8
			c0.4-0.2,0.9-0.3,1.6-0.3c0.2,0,0.5,0,0.9,0.1s0.7,0.2,1,0.4c0.3,0.1,0.5,0.3,0.6,0.5c0.1,0.2,0.3,0.4,0.3,0.6
			c0.1,0.2,0.1,0.5,0.1,0.7c0,0.3,0,0.6,0,0.9v2.7c0,0.2,0,0.4,0.1,0.6s0.2,0.3,0.5,0.3c0.1,0,0.1,0,0.2,0c0.1,0,0.1,0,0.2,0
			L210.1,317.1L210.1,317.1z M207.8,314.1v-0.6c-0.1,0-0.3,0-0.6,0.1c-0.2,0-0.5,0.1-0.8,0.1c-0.3,0-0.5,0.1-0.8,0.1
			s-0.4,0.1-0.6,0.2c-0.1,0-0.1,0.1-0.2,0.1s-0.2,0.1-0.3,0.2c-0.1,0.1-0.2,0.2-0.3,0.3c-0.1,0.1-0.1,0.3-0.1,0.5
			c0,0.3,0.1,0.5,0.3,0.8s0.6,0.4,1.1,0.4c0.2,0,0.4,0,0.6-0.1c0.2,0,0.5-0.1,0.7-0.3s0.4-0.4,0.6-0.7
			C207.8,315,207.9,314.6,207.8,314.1L207.8,314.1z"></path>
		<path d="M216.6,317.2l-1.6-2.7l-1.6,2.7H212l2.3-3.8l-2.2-3.7h1.4l1.5,2.6l1.5-2.6h1.4l-2.3,3.7l2.3,3.8H216.6L216.6,317.2z"></path>
		<path d="M64.4,333.6v1.4c0.2-0.4,0.4-0.6,0.7-0.9c0.2-0.1,0.4-0.2,0.7-0.4s0.7-0.2,1.2-0.2v1.4c-0.2,0-0.3,0-0.5,0
			c-0.5,0-0.9,0.1-1.2,0.4s-0.6,0.6-0.7,1.1c-0.1,0.2-0.1,0.4-0.1,0.6s0,0.5,0,0.8v3.5h-1.3v-7.5H64.4L64.4,333.6z"></path>
		<path d="M70.7,337.7c0,0.3,0,0.6,0.1,0.9c0.1,0.3,0.2,0.6,0.4,0.9c0.2,0.3,0.4,0.5,0.8,0.7c0.3,0.2,0.7,0.3,1.2,0.3
			c0.3,0,0.6-0.1,0.8-0.2s0.4-0.3,0.6-0.4c0.2-0.2,0.3-0.4,0.4-0.6s0.2-0.4,0.2-0.6l1.3,0.2c0,0.1-0.1,0.3-0.2,0.6
			c-0.1,0.3-0.3,0.6-0.6,0.9s-0.6,0.5-1,0.8c-0.4,0.2-0.9,0.3-1.6,0.3c-0.5,0-0.9-0.1-1.4-0.2c-0.4-0.1-0.8-0.4-1.2-0.7
			c-0.3-0.3-0.6-0.8-0.8-1.3c-0.2-0.5-0.3-1.1-0.3-1.9s0.1-1.3,0.3-1.8c0.2-0.5,0.5-0.9,0.9-1.2s0.8-0.5,1.2-0.7
			c0.4-0.1,0.8-0.2,1.2-0.2c0.4,0,0.8,0.1,1.2,0.2c0.4,0.1,0.8,0.4,1.1,0.7c0.3,0.3,0.6,0.7,0.8,1.2c0.2,0.5,0.3,1.1,0.3,1.9v0.2
			h-5.7L70.7,337.7L70.7,337.7z M75,336.7c0-0.3-0.1-0.6-0.2-0.9s-0.2-0.5-0.4-0.7c-0.2-0.2-0.4-0.4-0.7-0.5s-0.6-0.2-0.9-0.2
			c-0.3,0-0.6,0.1-0.9,0.2s-0.5,0.3-0.7,0.5c-0.2,0.2-0.3,0.5-0.4,0.7c-0.1,0.3-0.2,0.6-0.2,0.9L75,336.7L75,336.7z"></path>
		<path d="M88.6,341.2v-5c0-0.3-0.1-0.6-0.1-0.8c-0.1-0.2-0.2-0.4-0.4-0.5c-0.1-0.1-0.3-0.2-0.4-0.2c-0.2,0-0.3-0.1-0.4-0.1
			c-0.2,0-0.4,0-0.5,0.1c-0.2,0.1-0.3,0.1-0.5,0.3c-0.2,0.1-0.3,0.2-0.4,0.4c-0.1,0.1-0.2,0.3-0.3,0.5c0,0.1-0.1,0.3-0.1,0.4
			c0,0.2,0,0.4,0,0.7v4.2h-1.3v-4.9c0-0.4-0.1-0.7-0.2-0.9s-0.2-0.4-0.4-0.5s-0.3-0.2-0.5-0.2c-0.2,0-0.3,0-0.4,0
			c-0.2,0-0.3,0-0.5,0.1c-0.2,0-0.4,0.1-0.5,0.2c-0.2,0.1-0.3,0.2-0.4,0.4c-0.1,0.1-0.2,0.3-0.3,0.5c-0.1,0.1-0.1,0.2-0.1,0.4
			c0,0.1,0,0.3,0,0.6v4.5h-1.2v-7.5h1.2v1c0.3-0.4,0.7-0.7,1-0.9s0.8-0.4,1.3-0.4c0.1,0,0.2,0,0.3,0s0.2,0,0.4,0.1
			c0.2,0,0.3,0.1,0.5,0.2c0.2,0.1,0.3,0.2,0.4,0.4c0.1,0.1,0.2,0.2,0.2,0.3s0.1,0.2,0.2,0.4c0.1-0.1,0.2-0.2,0.4-0.4
			c0.2-0.1,0.3-0.3,0.6-0.5c0.2-0.1,0.4-0.3,0.7-0.4c0.2-0.1,0.5-0.2,0.8-0.2c0.2,0,0.4,0,0.6,0.1c0.2,0.1,0.4,0.1,0.5,0.2
			s0.3,0.2,0.4,0.3s0.2,0.2,0.2,0.2c0.2,0.3,0.4,0.6,0.4,0.9s0.1,0.7,0.1,1v5L88.6,341.2L88.6,341.2z"></path>
		<path d="M100.3,341.1c-0.2,0.1-0.3,0.1-0.5,0.1c-0.1,0-0.2,0-0.3,0c0,0-0.1,0-0.3,0s-0.3-0.1-0.5-0.2c-0.2-0.1-0.3-0.3-0.4-0.5
			c-0.1-0.2-0.1-0.4-0.2-0.5c-0.1,0.1-0.2,0.2-0.3,0.4s-0.3,0.3-0.5,0.4c-0.2,0.1-0.4,0.2-0.7,0.3c-0.3,0.1-0.6,0.1-1,0.1
			s-0.7,0-1-0.1c-0.3-0.1-0.6-0.2-0.8-0.4c-0.2-0.2-0.4-0.4-0.5-0.7s-0.2-0.6-0.2-0.9c0-0.1,0-0.2,0-0.3c0-0.1,0.1-0.3,0.1-0.4
			c0.1-0.1,0.1-0.3,0.2-0.5s0.2-0.3,0.4-0.4c0.2-0.1,0.4-0.3,0.7-0.4c0.2-0.1,0.5-0.2,0.8-0.3s0.6-0.1,0.8-0.1s0.5-0.1,0.8-0.1
			l1.2-0.1v-0.3c0-0.2,0-0.4,0-0.6s-0.1-0.5-0.2-0.7c-0.1-0.2-0.3-0.4-0.5-0.5c-0.2-0.1-0.6-0.2-1-0.2c-0.5,0-0.9,0.1-1.2,0.4
			s-0.4,0.6-0.4,1.1v0.1l-1.3-0.1c0-0.1,0-0.3,0.1-0.5c0.1-0.3,0.2-0.5,0.4-0.8s0.5-0.5,0.9-0.8c0.4-0.2,0.9-0.3,1.6-0.3
			c0.2,0,0.5,0,0.9,0.1s0.7,0.2,1,0.4c0.3,0.1,0.5,0.3,0.6,0.5s0.3,0.4,0.3,0.6s0.1,0.5,0.1,0.7c0,0.3,0,0.6,0,0.9v2.7
			c0,0.2,0,0.4,0.1,0.6s0.2,0.3,0.5,0.3c0.1,0,0.2,0,0.2,0c0.1,0,0.1,0,0.2,0L100.3,341.1L100.3,341.1z M98.1,338.1v-0.6
			c-0.2,0-0.3,0-0.6,0.1s-0.5,0.1-0.8,0.1c-0.3,0-0.5,0.1-0.8,0.1s-0.4,0.1-0.6,0.2c-0.1,0-0.2,0.1-0.2,0.1s-0.2,0.1-0.3,0.2
			c-0.1,0.1-0.2,0.2-0.3,0.3s-0.1,0.3-0.1,0.5c0,0.3,0.1,0.5,0.3,0.8s0.6,0.4,1.1,0.4c0.2,0,0.4,0,0.6-0.1c0.2,0,0.5-0.1,0.7-0.3
			s0.4-0.4,0.6-0.7C98,339,98.1,338.6,98.1,338.1L98.1,338.1z"></path>
		<path d="M103.3,331.4v-1.5h1.2v1.5H103.3z M103.3,341.2v-7.5h1.2v7.5H103.3z"></path>
		<path d="M113.1,341.2v-4.9c0-0.3-0.1-0.5-0.1-0.7c-0.1-0.2-0.2-0.4-0.4-0.5c-0.2-0.1-0.3-0.2-0.5-0.3c-0.2-0.1-0.4-0.1-0.6-0.1
			c-0.3,0-0.5,0-0.8,0.1c-0.2,0.1-0.4,0.2-0.6,0.4c-0.2,0.2-0.3,0.4-0.4,0.7c-0.1,0.3-0.2,0.6-0.2,0.9v4.5h-1.3v-7.5h1.3v1.1
			c0.1-0.1,0.2-0.3,0.3-0.5s0.3-0.3,0.5-0.4c0.2-0.1,0.4-0.2,0.7-0.3c0.3-0.1,0.6-0.1,0.9-0.1c0.1,0,0.2,0,0.4,0s0.4,0.1,0.6,0.1
			s0.4,0.2,0.6,0.3c0.2,0.1,0.4,0.3,0.6,0.6c0.2,0.3,0.3,0.6,0.4,1c0.1,0.3,0.1,0.7,0.1,1v4.8L113.1,341.2L113.1,341.2z"></path>
		<path d="M119,338.5c0,0.2,0,0.5,0.1,0.7s0.2,0.4,0.3,0.6c0.2,0.2,0.5,0.4,0.8,0.5s0.6,0.1,0.9,0.1c0.2,0,0.3,0,0.5,0
			s0.4-0.1,0.6-0.2s0.3-0.2,0.5-0.4c0.1-0.2,0.2-0.4,0.2-0.6c0-0.2-0.1-0.4-0.2-0.5c-0.1-0.1-0.2-0.3-0.4-0.3
			c-0.2-0.1-0.3-0.1-0.5-0.2s-0.4-0.1-0.5-0.1l-0.7-0.1c-0.5-0.1-0.9-0.2-1.3-0.4c-0.3-0.1-0.6-0.3-0.8-0.5s-0.3-0.4-0.4-0.6
			c-0.1-0.2-0.1-0.5-0.1-0.7c0-0.4,0.1-0.8,0.3-1c0.2-0.3,0.4-0.5,0.7-0.7c0.3-0.2,0.6-0.3,0.9-0.4c0.3-0.1,0.7-0.1,1-0.1
			c0.4,0,0.8,0,1.1,0.1c0.3,0.1,0.6,0.2,0.8,0.3c0.2,0.1,0.4,0.3,0.6,0.4c0.2,0.1,0.3,0.3,0.4,0.4c0.2,0.2,0.2,0.5,0.3,0.7
			s0.1,0.4,0.1,0.5l-1.4,0.2c0-0.2,0-0.3,0-0.4c0-0.1,0-0.2-0.1-0.3c-0.1-0.1-0.1-0.2-0.2-0.3s-0.2-0.2-0.4-0.3
			c-0.2-0.1-0.3-0.2-0.6-0.2s-0.5-0.1-0.7-0.1s-0.5,0-0.7,0.1c-0.2,0.1-0.3,0.2-0.5,0.3c-0.1,0.1-0.2,0.2-0.3,0.4
			c-0.1,0.1-0.1,0.3-0.1,0.4c0,0.3,0.2,0.6,0.5,0.7s0.8,0.3,1.3,0.5l0.7,0.2c0.3,0.1,0.7,0.2,1,0.3c0.3,0.1,0.6,0.2,0.8,0.4
			s0.4,0.4,0.5,0.6c0.1,0.2,0.2,0.5,0.2,0.9c0,0.4-0.1,0.7-0.2,1c-0.2,0.3-0.4,0.5-0.7,0.8c-0.3,0.2-0.6,0.4-1,0.5
			c-0.4,0.1-0.8,0.2-1.2,0.2c-0.6,0-1.1-0.1-1.5-0.2c-0.4-0.1-0.8-0.3-1-0.6c-0.3-0.2-0.5-0.5-0.6-0.9s-0.2-0.7-0.3-1L119,338.5
			L119,338.5z"></path>
		<path d="M128.9,339.4v1c0,0.6-0.1,1.1-0.2,1.7c-0.1,0.5-0.3,1.1-0.5,1.6h-0.8c0.1-0.4,0.3-0.8,0.4-1.2s0.2-0.9,0.2-1.3h-0.7v-1.7
			L128.9,339.4L128.9,339.4z"></path>
		<path d="M138.6,331.4v-1.5h1.2v1.5H138.6z M138.6,341.2v-7.5h1.2v7.5H138.6z"></path>
		<path d="M145.2,339.5c0,0.3,0,0.5,0.1,0.6c0.1,0.1,0.2,0.2,0.4,0.2c0.1,0,0.2,0,0.3,0c0.1,0,0.3-0.1,0.5-0.1v1.1
			c-0.1,0-0.2,0-0.5,0.1c-0.2,0-0.5,0.1-0.7,0.1c-0.3,0-0.6,0-0.7-0.1s-0.3-0.1-0.4-0.3s-0.2-0.3-0.2-0.4c0-0.2-0.1-0.4-0.1-0.6
			v-5.3h-1.2v-1h1.2v-2.4h1.3v2.4h1.4v1h-1.4L145.2,339.5L145.2,339.5z"></path>
		<path d="M151.3,329.9v0.8c0,0.6-0.1,1.1-0.2,1.7c-0.1,0.6-0.3,1.1-0.5,1.7h-0.8c0.1-0.4,0.3-0.8,0.4-1.2c0.1-0.4,0.2-0.9,0.2-1.3
			h-0.7v-1.8L151.3,329.9L151.3,329.9z"></path>
		<path d="M154.9,338.5c0,0.2,0,0.5,0.1,0.7s0.2,0.4,0.4,0.6c0.2,0.2,0.5,0.4,0.8,0.5c0.3,0.1,0.6,0.1,0.9,0.1c0.2,0,0.3,0,0.5,0
			s0.4-0.1,0.6-0.2c0.2-0.1,0.3-0.2,0.5-0.4c0.1-0.2,0.2-0.4,0.2-0.6c0-0.2-0.1-0.4-0.1-0.5c-0.1-0.1-0.2-0.3-0.4-0.3
			c-0.1-0.1-0.3-0.1-0.5-0.2s-0.4-0.1-0.5-0.1l-0.7-0.1c-0.5-0.1-0.9-0.2-1.3-0.4c-0.4-0.1-0.6-0.3-0.8-0.5s-0.4-0.4-0.4-0.6
			c-0.1-0.2-0.1-0.5-0.1-0.7c0-0.4,0.1-0.8,0.3-1c0.2-0.3,0.4-0.5,0.7-0.7c0.3-0.2,0.6-0.3,0.9-0.4c0.4-0.1,0.7-0.1,1-0.1
			c0.4,0,0.8,0,1.1,0.1c0.3,0.1,0.6,0.2,0.8,0.3c0.2,0.1,0.4,0.3,0.6,0.4c0.1,0.1,0.3,0.3,0.4,0.4c0.1,0.2,0.2,0.5,0.3,0.7
			s0.1,0.4,0.1,0.5l-1.4,0.2c0-0.2,0-0.3,0-0.4c0-0.1,0-0.2-0.1-0.3c-0.1-0.1-0.1-0.2-0.2-0.3s-0.2-0.2-0.4-0.3
			c-0.1-0.1-0.3-0.2-0.6-0.2s-0.5-0.1-0.7-0.1s-0.5,0-0.7,0.1s-0.4,0.2-0.5,0.3c-0.1,0.1-0.2,0.2-0.3,0.4c-0.1,0.1-0.1,0.3-0.1,0.4
			c0,0.3,0.2,0.6,0.5,0.7c0.3,0.2,0.8,0.3,1.3,0.5l0.7,0.2c0.4,0.1,0.7,0.2,1,0.3c0.3,0.1,0.6,0.2,0.8,0.4s0.4,0.4,0.5,0.6
			c0.1,0.2,0.2,0.5,0.2,0.9c0,0.4-0.1,0.7-0.2,1s-0.4,0.5-0.7,0.8s-0.6,0.4-1,0.5c-0.4,0.1-0.8,0.2-1.2,0.2c-0.6,0-1.1-0.1-1.5-0.2
			c-0.4-0.1-0.8-0.3-1-0.6c-0.3-0.2-0.5-0.5-0.6-0.9s-0.2-0.7-0.3-1L154.9,338.5L154.9,338.5z"></path>
		<path d="M170.9,339.5c0,0.3,0,0.5,0.1,0.6s0.2,0.2,0.4,0.2c0.1,0,0.2,0,0.3,0c0.1,0,0.3-0.1,0.5-0.1v1.1c-0.1,0-0.2,0-0.5,0.1
			s-0.5,0.1-0.7,0.1c-0.3,0-0.6,0-0.7-0.1s-0.3-0.1-0.4-0.3s-0.2-0.3-0.2-0.4c0-0.2-0.1-0.4-0.1-0.6v-5.3h-1.2v-1h1.2v-2.4h1.3v2.4
			h1.4v1h-1.4L170.9,339.5L170.9,339.5z"></path>
		<path d="M175.5,331.4v-1.5h1.2v1.5H175.5z M175.5,341.2v-7.5h1.2v7.5H175.5z"></path>
		<path d="M189.4,341.2v-5c0-0.3-0.1-0.6-0.1-0.8c-0.1-0.2-0.2-0.4-0.4-0.5c-0.1-0.1-0.3-0.2-0.4-0.2c-0.1,0-0.3-0.1-0.4-0.1
			c-0.2,0-0.4,0-0.5,0.1c-0.2,0.1-0.4,0.1-0.5,0.3c-0.2,0.1-0.3,0.2-0.4,0.4c-0.1,0.1-0.2,0.3-0.3,0.5c0,0.1-0.1,0.3-0.1,0.4
			c0,0.2,0,0.4,0,0.7v4.2h-1.3v-4.9c0-0.4-0.1-0.7-0.2-0.9s-0.2-0.4-0.4-0.5s-0.3-0.2-0.5-0.2c-0.2,0-0.3,0-0.4,0
			c-0.2,0-0.3,0-0.5,0.1s-0.4,0.1-0.5,0.2c-0.2,0.1-0.3,0.2-0.4,0.4c-0.1,0.1-0.2,0.3-0.3,0.5c-0.1,0.1-0.1,0.2-0.1,0.4
			c0,0.1,0,0.3,0,0.6v4.5h-1.2v-7.5h1.2v1c0.3-0.4,0.6-0.7,1-0.9s0.8-0.4,1.3-0.4c0.1,0,0.2,0,0.3,0s0.2,0,0.4,0.1
			c0.1,0,0.3,0.1,0.5,0.2s0.3,0.2,0.4,0.4c0.1,0.1,0.2,0.2,0.2,0.3s0.1,0.2,0.2,0.4c0.1-0.1,0.2-0.2,0.4-0.4
			c0.2-0.1,0.3-0.3,0.6-0.5s0.4-0.3,0.7-0.4c0.2-0.1,0.5-0.2,0.9-0.2c0.2,0,0.4,0,0.6,0.1c0.2,0.1,0.4,0.1,0.5,0.2s0.3,0.2,0.4,0.3
			s0.2,0.2,0.2,0.2c0.2,0.3,0.4,0.6,0.4,0.9s0.1,0.7,0.1,1v5L189.4,341.2L189.4,341.2z"></path>
		<path d="M195.3,337.7c0,0.3,0,0.6,0.1,0.9c0.1,0.3,0.2,0.6,0.4,0.9c0.2,0.3,0.4,0.5,0.8,0.7c0.3,0.2,0.7,0.3,1.1,0.3
			c0.3,0,0.6-0.1,0.9-0.2c0.2-0.1,0.4-0.3,0.6-0.4s0.3-0.4,0.4-0.6s0.1-0.4,0.2-0.6l1.3,0.2c0,0.1-0.1,0.3-0.2,0.6
			c-0.1,0.3-0.3,0.6-0.6,0.9c-0.3,0.3-0.6,0.5-1,0.8c-0.4,0.2-0.9,0.3-1.6,0.3c-0.5,0-0.9-0.1-1.4-0.2c-0.4-0.1-0.8-0.4-1.2-0.7
			c-0.3-0.3-0.6-0.8-0.8-1.3c-0.2-0.5-0.3-1.1-0.3-1.9s0.1-1.3,0.4-1.8c0.2-0.5,0.5-0.9,0.9-1.2s0.8-0.5,1.2-0.7
			c0.4-0.1,0.8-0.2,1.2-0.2c0.4,0,0.8,0.1,1.2,0.2c0.4,0.1,0.8,0.4,1.1,0.7c0.3,0.3,0.6,0.7,0.8,1.2s0.3,1.1,0.3,1.9v0.2h-5.7
			L195.3,337.7L195.3,337.7z M199.6,336.7c0-0.3-0.1-0.6-0.2-0.9s-0.2-0.5-0.4-0.7c-0.2-0.2-0.4-0.4-0.7-0.5s-0.6-0.2-0.9-0.2
			c-0.3,0-0.6,0.1-0.9,0.2s-0.5,0.3-0.6,0.5s-0.3,0.5-0.4,0.7s-0.2,0.6-0.2,0.9L199.6,336.7L199.6,336.7z"></path>
		<path d="M213.3,333.6v1h-1.4v6.5h-1.3v-6.5h-1.2v-1h1.2v-1.3c0-0.2,0-0.4,0-0.5s0-0.3,0.1-0.4s0.1-0.2,0.1-0.4
			c0.1-0.3,0.2-0.5,0.4-0.6c0.2-0.1,0.4-0.2,0.5-0.3s0.4-0.1,0.5-0.1c0.2,0,0.3,0,0.4,0c0.1,0,0.2,0,0.4,0c0.2,0,0.4,0,0.6,0.1v1
			c0,0-0.1,0-0.3,0s-0.3,0-0.4,0c-0.3,0-0.6,0.1-0.7,0.3c-0.1,0.2-0.2,0.5-0.2,0.9v1.4L213.3,333.6L213.3,333.6z"></path>
		<path d="M215.7,337.4c0-0.3,0-0.7,0.1-1.1c0.1-0.5,0.3-0.9,0.5-1.3c0.3-0.4,0.7-0.8,1.1-1.1c0.5-0.3,1.1-0.5,2-0.5
			c0.4,0,0.9,0.1,1.3,0.2s0.8,0.4,1.1,0.7c0.3,0.3,0.6,0.7,0.8,1.2c0.2,0.5,0.3,1.1,0.3,1.8s-0.1,1.3-0.3,1.8
			c-0.2,0.5-0.5,0.9-0.8,1.3s-0.7,0.6-1.2,0.8c-0.4,0.2-0.9,0.3-1.4,0.3c-0.5,0-1-0.1-1.5-0.3c-0.4-0.2-0.8-0.4-1.2-0.8
			s-0.6-0.8-0.8-1.2S215.7,338.1,215.7,337.4L215.7,337.4z M217.1,337.5c0,0.2,0,0.5,0.1,0.8c0.1,0.3,0.1,0.6,0.3,1s0.4,0.6,0.7,0.8
			c0.3,0.2,0.7,0.3,1.2,0.3c0.8,0,1.4-0.3,1.7-0.8s0.6-1.3,0.6-2.3c0-0.3,0-0.6-0.1-1s-0.2-0.6-0.4-0.9s-0.4-0.5-0.7-0.7
			c-0.3-0.2-0.6-0.3-1.1-0.3c-0.6,0-1.1,0.1-1.4,0.4c-0.3,0.3-0.6,0.6-0.7,0.9c-0.1,0.4-0.2,0.7-0.3,1
			C217.1,337.2,217.1,337.4,217.1,337.5L217.1,337.5z"></path>
		<path d="M227.7,333.6v1.4c0.2-0.4,0.4-0.6,0.7-0.9c0.1-0.1,0.4-0.2,0.7-0.4c0.3-0.1,0.7-0.2,1.2-0.2v1.4c-0.2,0-0.3,0-0.5,0
			c-0.5,0-0.9,0.1-1.2,0.4s-0.6,0.6-0.7,1.1c-0.1,0.2-0.1,0.4-0.1,0.6c0,0.2,0,0.5,0,0.8v3.5h-1.3v-7.5H227.7L227.7,333.6z"></path>
		<path d="M100.4,365.1c-0.2,0.1-0.3,0.1-0.5,0.1c-0.1,0-0.2,0-0.3,0c0,0-0.1,0-0.3,0s-0.3-0.1-0.5-0.2c-0.2-0.1-0.3-0.3-0.4-0.5
			c-0.1-0.2-0.1-0.4-0.2-0.5c-0.1,0.1-0.2,0.2-0.3,0.4s-0.3,0.3-0.5,0.4c-0.2,0.1-0.4,0.2-0.7,0.3c-0.3,0.1-0.6,0.1-1,0.1
			s-0.7,0-1-0.1s-0.6-0.2-0.8-0.4c-0.2-0.2-0.4-0.4-0.5-0.7s-0.2-0.6-0.2-0.9c0-0.1,0-0.2,0-0.3c0-0.1,0.1-0.3,0.1-0.4
			c0.1-0.1,0.1-0.3,0.2-0.5s0.2-0.3,0.4-0.4c0.2-0.1,0.4-0.3,0.7-0.4c0.2-0.1,0.5-0.2,0.8-0.3s0.6-0.1,0.8-0.1s0.5-0.1,0.8-0.1
			l1.2-0.1v-0.3c0-0.2,0-0.4,0-0.6s-0.1-0.5-0.2-0.7c-0.1-0.2-0.3-0.4-0.5-0.5s-0.6-0.2-1-0.2c-0.5,0-0.9,0.1-1.2,0.4
			s-0.4,0.6-0.4,1.1v0.1l-1.3-0.1c0-0.1,0-0.3,0.1-0.5c0.1-0.3,0.2-0.5,0.4-0.8c0.2-0.3,0.5-0.5,0.9-0.8c0.4-0.2,0.9-0.3,1.6-0.3
			c0.2,0,0.5,0,0.9,0.1s0.7,0.2,1,0.4c0.3,0.1,0.5,0.3,0.6,0.5c0.2,0.2,0.3,0.4,0.3,0.6c0.1,0.2,0.1,0.5,0.1,0.7c0,0.3,0,0.6,0,0.9
			v2.7c0,0.2,0,0.4,0.1,0.6s0.2,0.3,0.5,0.3c0.1,0,0.2,0,0.2,0c0.1,0,0.1,0,0.2,0L100.4,365.1L100.4,365.1z M98.2,362.1v-0.6
			c-0.2,0-0.3,0-0.6,0.1c-0.2,0-0.5,0.1-0.8,0.1c-0.3,0-0.5,0.1-0.8,0.1s-0.4,0.1-0.6,0.2c-0.1,0-0.2,0.1-0.2,0.1s-0.2,0.1-0.3,0.2
			c-0.1,0.1-0.2,0.2-0.3,0.3s-0.1,0.3-0.1,0.5c0,0.3,0.1,0.5,0.3,0.8s0.6,0.4,1.1,0.4c0.2,0,0.4,0,0.6-0.1c0.2,0,0.5-0.1,0.7-0.3
			s0.4-0.4,0.6-0.7C98.1,363,98.1,362.6,98.2,362.1L98.2,362.1z"></path>
		<path d="M114.2,365.2v-4.9c0-0.3-0.1-0.5-0.1-0.7c-0.1-0.2-0.2-0.4-0.4-0.5c-0.2-0.1-0.3-0.2-0.5-0.3c-0.2-0.1-0.4-0.1-0.6-0.1
			c-0.3,0-0.5,0-0.8,0.1c-0.2,0.1-0.4,0.2-0.6,0.4c-0.2,0.2-0.3,0.4-0.4,0.7c-0.1,0.3-0.2,0.6-0.2,0.9v4.5h-1.3v-7.5h1.3v1.1
			c0.1-0.1,0.2-0.3,0.3-0.5s0.3-0.3,0.5-0.4c0.2-0.1,0.4-0.2,0.7-0.3c0.3-0.1,0.6-0.1,0.9-0.1c0.1,0,0.2,0,0.4,0s0.4,0.1,0.6,0.1
			s0.4,0.2,0.6,0.3s0.4,0.3,0.6,0.6c0.2,0.3,0.3,0.6,0.4,1s0.1,0.7,0.1,1v4.8L114.2,365.2L114.2,365.2z"></path>
		<path d="M120.1,361.7c0,0.3,0,0.6,0.1,0.9c0.1,0.3,0.2,0.6,0.4,0.9c0.2,0.3,0.4,0.5,0.8,0.7c0.3,0.2,0.7,0.3,1.2,0.3
			c0.3,0,0.6-0.1,0.8-0.2s0.4-0.3,0.6-0.4c0.2-0.2,0.3-0.4,0.4-0.6s0.2-0.4,0.2-0.6l1.3,0.2c0,0.1-0.1,0.3-0.2,0.6
			c-0.1,0.3-0.3,0.6-0.6,0.9s-0.6,0.5-1,0.8c-0.4,0.2-0.9,0.3-1.6,0.3c-0.5,0-0.9-0.1-1.4-0.2c-0.4-0.1-0.8-0.4-1.2-0.7
			c-0.3-0.3-0.6-0.8-0.8-1.3c-0.2-0.5-0.3-1.1-0.3-1.9s0.1-1.3,0.3-1.8c0.2-0.5,0.5-0.9,0.9-1.2s0.8-0.5,1.2-0.7
			c0.4-0.1,0.8-0.2,1.2-0.2c0.4,0,0.8,0.1,1.2,0.2c0.4,0.1,0.8,0.4,1.1,0.7c0.3,0.3,0.6,0.7,0.8,1.2c0.2,0.5,0.3,1.1,0.3,1.9v0.2
			H120L120.1,361.7L120.1,361.7z M124.4,360.7c0-0.3-0.1-0.6-0.2-0.9s-0.2-0.5-0.4-0.7c-0.2-0.2-0.4-0.4-0.7-0.5s-0.6-0.2-0.9-0.2
			c-0.3,0-0.6,0.1-0.9,0.2s-0.5,0.3-0.7,0.5c-0.2,0.2-0.3,0.5-0.4,0.7c-0.1,0.3-0.2,0.6-0.2,0.9L124.4,360.7L124.4,360.7z"></path>
		<path d="M136.7,365.2h-1.1l-1.8-5.6l-1.8,5.6h-1.2l-2.6-7.5h1.4l1.9,5.6l1.9-5.6h1.1l1.8,5.6l2-5.6h1.3L136.7,365.2L136.7,365.2z"></path>
		<path d="M155.1,362.5c-0.1,0.5-0.3,1-0.5,1.4s-0.5,0.7-0.8,0.9s-0.7,0.4-1.1,0.5s-0.8,0.1-1.2,0.1c-0.6,0-1.1-0.1-1.6-0.3
			s-0.9-0.5-1.2-0.8c-0.3-0.4-0.6-0.8-0.7-1.2s-0.2-1-0.2-1.6s0.1-1.1,0.2-1.6c0.2-0.5,0.4-0.9,0.7-1.3c0.3-0.4,0.7-0.7,1.1-0.9
			c0.5-0.2,1-0.3,1.6-0.3c0.6,0,1.1,0.1,1.5,0.2s0.8,0.4,1,0.6c0.3,0.2,0.5,0.5,0.6,0.8s0.3,0.6,0.3,0.9l-1.4,0.1
			c-0.1-0.5-0.3-1-0.7-1.3c-0.4-0.3-0.8-0.5-1.4-0.5c-0.3,0-0.6,0-0.8,0.1s-0.5,0.3-0.7,0.5s-0.4,0.5-0.5,0.9
			c-0.1,0.4-0.2,0.9-0.2,1.4c0,0.9,0.2,1.6,0.6,2.2s1,0.8,1.8,0.8c0.4,0,0.7,0,0.9-0.2c0.3-0.1,0.5-0.2,0.6-0.4
			c0.2-0.2,0.3-0.4,0.4-0.6s0.2-0.5,0.2-0.8L155.1,362.5L155.1,362.5z"></path>
		<path d="M164.9,365.1c-0.2,0.1-0.4,0.1-0.5,0.1s-0.2,0-0.4,0c0,0-0.1,0-0.3,0c-0.2,0-0.3-0.1-0.5-0.2c-0.1-0.1-0.3-0.3-0.4-0.5
			s-0.1-0.4-0.1-0.5c-0.1,0.1-0.2,0.2-0.3,0.4s-0.3,0.3-0.5,0.4c-0.2,0.1-0.4,0.2-0.7,0.3c-0.3,0.1-0.6,0.1-1,0.1s-0.7,0-1-0.1
			s-0.6-0.2-0.8-0.4c-0.2-0.2-0.4-0.4-0.5-0.7s-0.2-0.6-0.2-0.9c0-0.1,0-0.2,0-0.3c0-0.1,0.1-0.3,0.1-0.4c0.1-0.1,0.1-0.3,0.2-0.5
			s0.2-0.3,0.4-0.4c0.2-0.1,0.4-0.3,0.7-0.4c0.2-0.1,0.5-0.2,0.8-0.3s0.6-0.1,0.8-0.1s0.5-0.1,0.8-0.1l1.1-0.1v-0.3
			c0-0.2,0-0.4,0-0.6s-0.1-0.5-0.2-0.7c-0.1-0.2-0.3-0.4-0.5-0.5c-0.2-0.1-0.6-0.2-1-0.2c-0.5,0-0.9,0.1-1.2,0.4
			c-0.3,0.2-0.4,0.6-0.4,1.1v0.1l-1.3-0.1c0-0.1,0-0.3,0.1-0.5s0.2-0.5,0.4-0.8s0.5-0.5,0.9-0.8c0.4-0.2,0.9-0.3,1.6-0.3
			c0.2,0,0.5,0,0.9,0.1s0.7,0.2,1,0.4c0.3,0.1,0.5,0.3,0.6,0.5c0.1,0.2,0.3,0.4,0.3,0.6c0.1,0.2,0.1,0.5,0.1,0.7c0,0.3,0,0.6,0,0.9
			v2.7c0,0.2,0,0.4,0.1,0.6s0.2,0.3,0.5,0.3c0.1,0,0.1,0,0.2,0c0.1,0,0.1,0,0.2,0L164.9,365.1L164.9,365.1z M162.7,362.1v-0.6
			c-0.1,0-0.3,0-0.6,0.1c-0.2,0-0.5,0.1-0.8,0.1c-0.3,0-0.5,0.1-0.8,0.1s-0.4,0.1-0.6,0.2c-0.1,0-0.1,0.1-0.2,0.1
			c-0.1,0-0.2,0.1-0.3,0.2c-0.1,0.1-0.2,0.2-0.3,0.3c-0.1,0.1-0.1,0.3-0.1,0.5c0,0.3,0.1,0.5,0.3,0.8s0.6,0.4,1.1,0.4
			c0.2,0,0.4,0,0.6-0.1c0.2,0,0.5-0.1,0.7-0.3s0.4-0.4,0.6-0.7C162.6,363,162.7,362.6,162.7,362.1L162.7,362.1z"></path>
		<path d="M172.8,365.2v-4.9c0-0.3-0.1-0.5-0.1-0.7c-0.1-0.2-0.2-0.4-0.4-0.5s-0.3-0.2-0.5-0.3s-0.4-0.1-0.6-0.1
			c-0.3,0-0.5,0-0.8,0.1c-0.2,0.1-0.4,0.2-0.6,0.4c-0.2,0.2-0.3,0.4-0.4,0.7c-0.1,0.3-0.2,0.6-0.2,0.9v4.5h-1.3v-7.5h1.3v1.1
			c0.1-0.1,0.2-0.3,0.3-0.5s0.3-0.3,0.5-0.4c0.2-0.1,0.4-0.2,0.7-0.3c0.3-0.1,0.6-0.1,0.9-0.1c0.1,0,0.2,0,0.4,0s0.4,0.1,0.6,0.1
			s0.4,0.2,0.6,0.3s0.4,0.3,0.6,0.6c0.2,0.3,0.4,0.6,0.4,1s0.1,0.7,0.1,1v4.8L172.8,365.2L172.8,365.2z"></path>
		<path d="M183.4,365.2v-1c-0.1,0.1-0.2,0.2-0.4,0.4s-0.3,0.3-0.5,0.4c-0.2,0.1-0.4,0.2-0.7,0.3s-0.6,0.1-1,0.1
			c-0.6,0-1.1-0.1-1.5-0.3c-0.4-0.2-0.8-0.5-1.1-0.8s-0.5-0.8-0.7-1.3s-0.2-1-0.2-1.6c0-0.7,0.1-1.4,0.3-1.9
			c0.2-0.5,0.5-0.9,0.8-1.2s0.7-0.5,1.1-0.7c0.4-0.1,0.8-0.2,1.2-0.2c0.3,0,0.7,0,0.9,0.1c0.3,0.1,0.5,0.2,0.8,0.3
			c0.2,0.1,0.4,0.3,0.6,0.4c0.1,0.1,0.3,0.3,0.3,0.4v-4.8h1.3v11.3L183.4,365.2L183.4,365.2z M178.7,361.4c0,0.3,0,0.7,0.1,1
			c0.1,0.3,0.2,0.6,0.4,0.9c0.2,0.3,0.4,0.5,0.7,0.7s0.7,0.3,1.1,0.3c0.3,0,0.6,0,0.8-0.1s0.5-0.3,0.8-0.5s0.4-0.5,0.5-0.9
			s0.2-0.9,0.2-1.4c0-0.4-0.1-0.7-0.2-1.1s-0.3-0.6-0.5-0.9c-0.2-0.2-0.4-0.4-0.7-0.6c-0.3-0.1-0.6-0.2-1-0.2
			c-0.4,0-0.8,0.1-1.1,0.2c-0.3,0.2-0.5,0.4-0.7,0.6c-0.2,0.3-0.3,0.6-0.4,0.9S178.7,361.1,178.7,361.4L178.7,361.4z"></path>
		<path d="M188.3,365.2v-11.3h1.2v11.3H188.3z"></path>
		<path d="M194.2,361.7c0,0.3,0,0.6,0.1,0.9c0.1,0.3,0.2,0.6,0.4,0.9c0.2,0.3,0.4,0.5,0.8,0.7c0.3,0.2,0.7,0.3,1.1,0.3
			c0.3,0,0.6-0.1,0.9-0.2c0.2-0.1,0.4-0.3,0.6-0.4c0.1-0.2,0.3-0.4,0.4-0.6s0.1-0.4,0.2-0.6l1.3,0.2c0,0.1-0.1,0.3-0.2,0.6
			c-0.1,0.3-0.3,0.6-0.6,0.9s-0.6,0.5-1,0.8s-0.9,0.3-1.6,0.3c-0.5,0-0.9-0.1-1.4-0.2c-0.4-0.1-0.8-0.4-1.2-0.7s-0.6-0.8-0.8-1.3
			c-0.2-0.5-0.3-1.1-0.3-1.9s0.1-1.3,0.4-1.8c0.2-0.5,0.5-0.9,0.9-1.2s0.8-0.5,1.2-0.7c0.4-0.1,0.8-0.2,1.2-0.2
			c0.4,0,0.8,0.1,1.2,0.2c0.4,0.1,0.8,0.4,1.1,0.7s0.6,0.7,0.8,1.2s0.3,1.1,0.3,1.9v0.2h-5.7L194.2,361.7L194.2,361.7z M198.5,360.7
			c0-0.3-0.1-0.6-0.2-0.9s-0.2-0.5-0.4-0.7c-0.2-0.2-0.4-0.4-0.7-0.5c-0.3-0.1-0.6-0.2-0.9-0.2c-0.3,0-0.6,0.1-0.9,0.2
			s-0.5,0.3-0.6,0.5s-0.3,0.5-0.4,0.7s-0.2,0.6-0.2,0.9L198.5,360.7L198.5,360.7z"></path>
		<path d="M203.2,365.2v-1.8h1.6v1.8H203.2z"></path>
	</g>
</g>
</svg>
