<svg xml:space="preserve" style="enable-background:new 0 0 300 413.2;" viewBox="0 0 300 413.2" y="0px" x="0px" xmlns:xlink="http://www.w3.org/1999/xlink" xmlns="http://www.w3.org/2000/svg" version="1.1">
<style type="text/css">
	.st0{display:none;}
	.st1{display:inline;}
	.st2{font-family:'AktivGroteskCorp-Regular';}
	.st3{font-size:21.02px;}
	.st4{letter-spacing:3;}
	.st5{letter-spacing:2;}
	.st6{font-family:'AkzidenzGroteskPro-Regular';}
	.st7{font-size:16px;}
	.st8{letter-spacing:1;}
	.st9{enable-background:new    ;}
	.st10{fill:#211F20;}
</style>
<g class="st0" id="Layer_1">
	<text class="st1 st2 st3 st4" transform="matrix(1 0 0 1 45.63 281.46)">TRIM</text>
	<text class="st1 st2 st3 st5" transform="matrix(1 0 0 1 107.19 281.46)"> </text>
	<text class="st1 st2 st3 st5" transform="matrix(1 0 0 1 114.46 281.46)">Y</text>
	<text class="st1 st2 st3 st4" transform="matrix(1 0 0 1 129.66 281.46)">OUR WICK</text>
	<text class="st1 st6 st7" transform="matrix(1 0 0 1 79.85 315.56)">T</text>
	<text class="st1 st6 st7 st8" transform="matrix(1 0 0 1 88.81 315.56)">rim wi</text>
	<text class="st1 st6 st7 st8" transform="matrix(1 0 0 1 138.41 315.56)">c</text>
	<text class="st1 st6 st7 st8" transform="matrix(1 0 0 1 148.03 315.56)">k to 1/4”</text>
	<text class="st1 st6 st7 st8" transform="matrix(1 0 0 1 35.88 339.56)">ea</text>
	<text class="st1 st6 st7 st8" transform="matrix(1 0 0 1 55.42 339.56)">c</text>
	<text class="st1 st6 st7 st8" transform="matrix(1 0 0 1 65.03 339.56)">h time before lighting to </text>
	<text class="st1 st6 st7 st8" transform="matrix(1 0 0 1 42.82 363.56)">ensure a </text>
	<text class="st1 st6 st7 st8" transform="matrix(1 0 0 1 119.91 363.56)">s</text>
	<text class="st1 st6 st7 st8" transform="matrix(1 0 0 1 129.51 363.56)">afe, clean burn.</text>
</g>
<g id="OUTLINE">
	<g class="st9">
		<path d="M51,268.2h-5v-1.7h11.9v1.7h-5v13.3H51V268.2z"></path>
		<path d="M63.1,266.5H68c1.1,0,2,0.1,2.8,0.4c0.7,0.3,1.3,0.6,1.7,1c0.4,0.4,0.7,0.9,0.9,1.4c0.2,0.5,0.2,1,0.2,1.5
			c0,1-0.2,1.8-0.6,2.4c-0.4,0.7-1.1,1.2-2,1.6l3.1,6.7H72l-2.8-6.3c-0.2,0-0.4,0-0.6,0.1c-0.2,0-0.4,0-0.6,0h-3v6.2h-1.9V266.5z
			 M68.2,273.6c0.7,0,1.2-0.1,1.7-0.2c0.4-0.1,0.8-0.3,1-0.6s0.4-0.5,0.5-0.9c0.1-0.4,0.1-0.7,0.1-1.2c0-0.4-0.1-0.8-0.2-1.1
			c-0.1-0.3-0.3-0.6-0.6-0.8c-0.3-0.2-0.6-0.4-1.1-0.5s-1-0.2-1.8-0.2H65v5.5H68.2z"></path>
		<path d="M79.5,266.5h1.9v15h-1.9V266.5z"></path>
		<path d="M87.9,266.5h2.4l4.8,12.7l4.9-12.7h2.3v15h-1.8v-11.8l-4.7,11.8h-1.6l-4.6-11.8v11.8h-1.8V266.5z"></path>
	</g>
	<g class="st9">
		<path d="M120,275.1l-5.2-8.6h2.2l4,6.9l4.1-6.9h2l-5.1,8.6v6.4H120V275.1z"></path>
	</g>
	<g class="st9">
		<path d="M137.7,281.8c-1,0-2-0.2-2.8-0.5c-0.8-0.3-1.6-0.8-2.2-1.5c-0.6-0.7-1.1-1.5-1.4-2.5c-0.3-1-0.5-2.1-0.5-3.4
			c0-1.3,0.2-2.4,0.5-3.4c0.3-1,0.8-1.8,1.4-2.5c0.6-0.7,1.3-1.2,2.2-1.5c0.8-0.3,1.8-0.5,2.8-0.5c1,0,2,0.2,2.8,0.5
			c0.8,0.3,1.6,0.8,2.2,1.5c0.6,0.7,1.1,1.5,1.4,2.5c0.3,1,0.5,2.1,0.5,3.4c0,1.3-0.2,2.4-0.5,3.4c-0.3,1-0.8,1.8-1.4,2.5
			s-1.3,1.2-2.2,1.5C139.7,281.7,138.7,281.8,137.7,281.8z M137.7,280.2c0.8,0,1.5-0.1,2.1-0.4c0.6-0.3,1.1-0.7,1.5-1.2
			c0.4-0.5,0.7-1.2,0.9-2c0.2-0.8,0.3-1.6,0.3-2.6c0-0.9-0.1-1.8-0.3-2.5c-0.2-0.8-0.5-1.4-0.9-2c-0.4-0.5-0.9-1-1.5-1.3
			c-0.6-0.3-1.3-0.4-2.1-0.4c-0.8,0-1.5,0.1-2.1,0.4c-0.6,0.3-1.1,0.7-1.5,1.3c-0.4,0.5-0.7,1.2-0.9,2c-0.2,0.8-0.3,1.6-0.3,2.5
			c0,0.9,0.1,1.8,0.3,2.6c0.2,0.8,0.5,1.4,0.9,2c0.4,0.5,0.9,1,1.5,1.2C136.2,280,136.9,280.2,137.7,280.2z"></path>
		<path d="M150.4,266.5h1.9v9.1c0,1.6,0.3,2.7,0.9,3.5c0.6,0.8,1.5,1.2,2.9,1.2c1.4,0,2.3-0.4,2.9-1.2c0.6-0.8,0.8-1.9,0.8-3.5v-9.1
			h1.9v9.1c0,1.1-0.1,2.1-0.4,2.9c-0.3,0.8-0.6,1.4-1.1,2s-1.1,0.9-1.8,1.1c-0.7,0.2-1.5,0.4-2.4,0.4c-1.8,0-3.2-0.5-4.2-1.5
			c-1-1-1.5-2.6-1.5-4.9V266.5z"></path>
		<path d="M168,266.5h4.9c1.1,0,2,0.1,2.8,0.4c0.7,0.3,1.3,0.6,1.7,1s0.7,0.9,0.9,1.4c0.2,0.5,0.2,1,0.2,1.5c0,1-0.2,1.8-0.6,2.4
			c-0.4,0.7-1.1,1.2-2,1.6l3.1,6.7h-2.2l-2.8-6.3c-0.2,0-0.4,0-0.6,0.1c-0.2,0-0.4,0-0.6,0h-3v6.2H168V266.5z M173.2,273.6
			c0.7,0,1.2-0.1,1.7-0.2c0.4-0.1,0.8-0.3,1-0.6c0.3-0.2,0.4-0.5,0.5-0.9s0.1-0.7,0.1-1.2c0-0.4-0.1-0.8-0.2-1.1
			c-0.1-0.3-0.3-0.6-0.6-0.8c-0.3-0.2-0.6-0.4-1.1-0.5s-1-0.2-1.8-0.2H170v5.5H173.2z"></path>
		<path d="M190.9,266.5h2.2l3.1,12.3l3.3-12.3h2.1l3.2,12.3l3.1-12.3h2.1l-4.2,15h-2l-3.3-12.5l-3.3,12.5h-2L190.9,266.5z"></path>
		<path d="M215,266.5h1.9v15H215V266.5z"></path>
		<path d="M235.7,276.5c-0.1,0.8-0.3,1.5-0.6,2.1s-0.7,1.2-1.2,1.7s-1.1,0.8-1.8,1.1c-0.7,0.3-1.6,0.4-2.5,0.4c-1,0-2-0.2-2.8-0.5
			c-0.8-0.3-1.5-0.9-2.1-1.5s-1-1.5-1.3-2.5c-0.3-1-0.5-2.1-0.5-3.3c0-1.3,0.2-2.4,0.5-3.4c0.3-1,0.8-1.8,1.4-2.5
			c0.6-0.7,1.3-1.2,2.1-1.5c0.8-0.3,1.7-0.5,2.7-0.5c0.9,0,1.7,0.1,2.4,0.4s1.2,0.6,1.7,1c0.5,0.4,0.8,1,1.1,1.6
			c0.3,0.6,0.5,1.3,0.7,2l-1.9,0.3c-0.1-0.5-0.3-1-0.5-1.5s-0.5-0.8-0.8-1.1c-0.3-0.3-0.7-0.5-1.1-0.7s-1-0.2-1.6-0.2
			c-0.7,0-1.4,0.2-2,0.5c-0.6,0.3-1.1,0.7-1.5,1.3c-0.4,0.5-0.7,1.2-0.9,2c-0.2,0.8-0.3,1.6-0.3,2.5s0.1,1.8,0.3,2.5
			c0.2,0.8,0.5,1.4,0.9,2s0.9,1,1.5,1.3c0.6,0.3,1.3,0.4,2,0.4c0.7,0,1.3-0.1,1.8-0.3c0.5-0.2,0.9-0.4,1.2-0.7
			c0.3-0.3,0.6-0.7,0.7-1.2c0.2-0.4,0.3-0.9,0.4-1.5H235.7z"></path>
		<path d="M241.5,266.5h1.9v7.2l7-7.2h2.2l-5.4,5.6l5.9,9.4H251l-5.1-8.1l-2.5,2.5v5.6h-1.9V266.5z"></path>
	</g>
	<g class="st9">
		<path d="M84.9,305.5v10h-1.5v-10H80v-1.3h8.3v1.3H84.9z"></path>
	</g>
	<g class="st9">
		<path d="M91.1,308v1.4c0.2-0.4,0.4-0.6,0.7-0.9c0.1-0.1,0.4-0.2,0.7-0.4c0.3-0.1,0.7-0.2,1.2-0.2v1.4c-0.2,0-0.3,0-0.5,0
			c-0.5,0-0.9,0.1-1.2,0.4c-0.4,0.2-0.6,0.6-0.7,1.1c-0.1,0.2-0.1,0.4-0.1,0.6s0,0.5,0,0.8v3.5h-1.3V308H91.1z"></path>
		<path d="M96.5,305.7v-1.5h1.2v1.5H96.5z M96.5,315.6V308h1.2v7.5H96.5z"></path>
		<path d="M110.4,315.6v-5c0-0.3,0-0.6-0.1-0.8c-0.1-0.2-0.2-0.4-0.4-0.5c-0.1-0.1-0.3-0.2-0.4-0.2s-0.3-0.1-0.4-0.1
			c-0.2,0-0.4,0-0.5,0.1c-0.2,0.1-0.3,0.2-0.5,0.3c-0.2,0.1-0.3,0.2-0.4,0.4c-0.1,0.1-0.2,0.3-0.3,0.5c0,0.1-0.1,0.3-0.1,0.4
			c0,0.2,0,0.4,0,0.7v4.2h-1.3v-4.9c0-0.4-0.1-0.7-0.2-0.9s-0.2-0.4-0.4-0.5s-0.3-0.2-0.5-0.2c-0.2,0-0.3,0-0.4,0
			c-0.2,0-0.3,0-0.5,0.1c-0.2,0.1-0.4,0.1-0.5,0.2c-0.2,0.1-0.3,0.2-0.4,0.4s-0.2,0.3-0.3,0.5c-0.1,0.1-0.1,0.2-0.1,0.4
			c0,0.1,0,0.3,0,0.6v4.5h-1.2V308h1.2v1c0.3-0.4,0.6-0.7,1-0.9c0.4-0.2,0.8-0.4,1.3-0.4c0.1,0,0.2,0,0.3,0s0.2,0,0.4,0.1
			s0.3,0.1,0.5,0.2c0.2,0.1,0.3,0.2,0.5,0.4c0.1,0.1,0.2,0.2,0.2,0.3c0.1,0.1,0.1,0.2,0.2,0.4c0.1-0.1,0.2-0.2,0.4-0.4
			c0.2-0.2,0.3-0.3,0.6-0.5c0.2-0.1,0.4-0.3,0.7-0.4c0.2-0.1,0.5-0.2,0.9-0.2c0.2,0,0.4,0,0.6,0.1c0.2,0.1,0.4,0.1,0.5,0.2
			c0.1,0.1,0.3,0.2,0.4,0.3s0.2,0.2,0.2,0.2c0.2,0.3,0.4,0.6,0.4,0.9s0.1,0.7,0.1,1v5H110.4z"></path>
		<path d="M129,315.6h-1.1l-1.8-5.6l-1.8,5.6H123l-2.6-7.5h1.4l1.9,5.6l1.9-5.6h1.1l1.8,5.6l2-5.6h1.3L129,315.6z"></path>
		<path d="M134.6,305.7v-1.5h1.2v1.5H134.6z M134.6,315.6V308h1.2v7.5H134.6z"></path>
	</g>
	<g class="st9">
		<path d="M146.3,312.8c-0.1,0.5-0.3,1-0.5,1.4c-0.2,0.4-0.5,0.7-0.8,0.9c-0.3,0.2-0.7,0.4-1.1,0.5s-0.8,0.2-1.2,0.2
			c-0.6,0-1.1-0.1-1.6-0.3s-0.9-0.5-1.2-0.8c-0.3-0.3-0.6-0.8-0.7-1.2s-0.2-1-0.2-1.6c0-0.6,0.1-1.1,0.2-1.6s0.4-0.9,0.7-1.3
			c0.3-0.4,0.7-0.7,1.1-0.9c0.5-0.2,1-0.3,1.6-0.3c0.6,0,1.1,0.1,1.5,0.2c0.4,0.2,0.8,0.4,1,0.6c0.3,0.3,0.5,0.5,0.7,0.8
			s0.3,0.6,0.3,0.8l-1.4,0.1c-0.1-0.6-0.3-1-0.7-1.3c-0.3-0.3-0.8-0.4-1.4-0.4c-0.3,0-0.6,0-0.8,0.2c-0.3,0.1-0.5,0.3-0.7,0.5
			s-0.4,0.6-0.5,0.9c-0.1,0.4-0.2,0.9-0.2,1.4c0,0.9,0.2,1.6,0.6,2.2c0.4,0.6,1,0.8,1.8,0.8c0.4,0,0.7-0.1,0.9-0.2
			c0.3-0.1,0.5-0.2,0.6-0.4c0.2-0.2,0.3-0.4,0.4-0.7c0.1-0.3,0.2-0.5,0.2-0.8L146.3,312.8z"></path>
	</g>
	<g class="st9">
		<path d="M154,315.6l-2.7-3.6l-0.9,1v2.7h-1.3v-11.3h1.3v7l3-3.2h1.6l-2.8,3l3.4,4.6H154z"></path>
		<path d="M165.6,313.9c0,0.3,0,0.5,0.1,0.6c0.1,0.1,0.2,0.2,0.4,0.2c0.1,0,0.2,0,0.3,0c0.1,0,0.3-0.1,0.5-0.1v1.1
			c-0.1,0-0.2,0-0.5,0.1c-0.3,0-0.5,0.1-0.7,0.1c-0.3,0-0.6,0-0.7-0.1c-0.2-0.1-0.3-0.1-0.4-0.3s-0.2-0.3-0.2-0.4c0-0.2,0-0.4,0-0.6
			V309h-1.2v-1h1.2v-2.4h1.3v2.4h1.4v1h-1.4V313.9z"></path>
		<path d="M169.8,311.8c0-0.3,0-0.7,0.1-1.1c0.1-0.5,0.3-0.9,0.5-1.3c0.3-0.4,0.7-0.8,1.2-1.1c0.5-0.3,1.2-0.5,2-0.5
			c0.4,0,0.9,0.1,1.3,0.2c0.4,0.2,0.8,0.4,1.2,0.7c0.3,0.3,0.6,0.7,0.8,1.2s0.3,1.1,0.3,1.8s-0.1,1.3-0.3,1.8
			c-0.2,0.5-0.5,0.9-0.8,1.3c-0.3,0.3-0.7,0.6-1.2,0.8c-0.4,0.2-0.9,0.3-1.4,0.3c-0.5,0-1-0.1-1.5-0.3c-0.4-0.2-0.8-0.4-1.2-0.8
			c-0.3-0.3-0.6-0.8-0.8-1.2S169.8,312.4,169.8,311.8z M171.2,311.9c0,0.2,0,0.5,0.1,0.8c0,0.3,0.2,0.6,0.3,1
			c0.2,0.3,0.4,0.6,0.7,0.8c0.3,0.2,0.7,0.3,1.2,0.3c0.8,0,1.3-0.3,1.7-0.8s0.6-1.3,0.6-2.3c0-0.3,0-0.6-0.1-1s-0.2-0.6-0.4-0.9
			c-0.2-0.3-0.4-0.5-0.7-0.7c-0.3-0.2-0.6-0.3-1.1-0.3c-0.6,0-1.1,0.1-1.4,0.4c-0.3,0.3-0.6,0.6-0.7,0.9c-0.1,0.4-0.2,0.7-0.3,1
			C171.2,311.5,171.2,311.8,171.2,311.9z"></path>
		<path d="M189.6,315.6v-7.9h-2.3v-1c0.7,0,1.2-0.1,1.6-0.2s0.6-0.4,0.8-0.7c0.1-0.2,0.2-0.4,0.2-0.6s0.1-0.3,0.1-0.4h1.1v10.8
			H189.6z"></path>
		<path d="M197.7,315.6h-1.2l3.7-11.2h1.2L197.7,315.6z"></path>
		<path d="M210.2,313v2.6h-1.4V313h-4.9v-1.3l5.2-6.9h1.1v7h1.6v1.2H210.2z M208.8,311.8c0,0,0-0.1,0-0.3s0-0.3,0-0.6
			c0-0.2,0-0.5,0-0.8c0-0.3,0-0.6,0-0.9c0-0.7,0-1.5,0-2.3l-3.5,4.8H208.8z"></path>
		<path d="M216.8,304.3v1c0,0.6-0.1,1.1-0.2,1.7c-0.1,0.5-0.3,1.1-0.5,1.6h-0.8c0.1-0.4,0.3-0.8,0.4-1.2c0.1-0.4,0.2-0.8,0.2-1.3
			h-0.7v-1.8H216.8z M219.2,304.3v1.1c0,0.5-0.1,1.1-0.2,1.6c-0.1,0.5-0.3,1.1-0.5,1.6h-0.7c0.1-0.2,0.1-0.5,0.2-0.6
			c0.1-0.2,0.1-0.4,0.1-0.6s0.1-0.4,0.1-0.6c0-0.2,0.1-0.4,0.1-0.7h-0.7v-1.8H219.2z"></path>
	</g>
	<g class="st9">
		<path d="M37.9,336.1c0,0.3,0,0.6,0.1,0.9c0.1,0.3,0.2,0.6,0.4,0.9c0.2,0.3,0.4,0.5,0.8,0.7c0.3,0.2,0.7,0.3,1.1,0.3
			c0.3,0,0.6-0.1,0.9-0.2c0.2-0.1,0.4-0.3,0.6-0.4c0.2-0.2,0.3-0.4,0.4-0.6c0.1-0.2,0.1-0.4,0.2-0.6l1.3,0.2c0,0.1-0.1,0.3-0.2,0.6
			c-0.1,0.3-0.3,0.6-0.6,0.9c-0.3,0.3-0.6,0.5-1,0.8s-0.9,0.3-1.6,0.3c-0.5,0-0.9-0.1-1.4-0.2c-0.4-0.1-0.8-0.4-1.2-0.7
			s-0.6-0.7-0.8-1.3c-0.2-0.5-0.3-1.1-0.3-1.9c0-0.7,0.1-1.3,0.4-1.8c0.2-0.5,0.5-0.9,0.9-1.2s0.7-0.5,1.2-0.7
			c0.4-0.1,0.8-0.2,1.2-0.2c0.4,0,0.8,0.1,1.2,0.2c0.4,0.1,0.8,0.4,1.1,0.7c0.3,0.3,0.6,0.7,0.8,1.2c0.2,0.5,0.3,1.1,0.3,1.9v0.2
			L37.9,336.1L37.9,336.1z M42.2,335.1c0-0.3-0.1-0.6-0.2-0.9c-0.1-0.3-0.3-0.5-0.4-0.7c-0.2-0.2-0.4-0.4-0.7-0.5
			c-0.3-0.1-0.6-0.2-0.9-0.2c-0.3,0-0.6,0.1-0.9,0.2c-0.3,0.1-0.5,0.3-0.6,0.5c-0.2,0.2-0.3,0.5-0.4,0.7c-0.1,0.3-0.2,0.6-0.2,0.9
			H42.2z"></path>
		<path d="M53.6,339.5c-0.2,0.1-0.4,0.1-0.5,0.1c-0.1,0-0.2,0-0.3,0c0,0-0.1,0-0.3,0c-0.2,0-0.3-0.1-0.5-0.2
			c-0.2-0.1-0.3-0.3-0.4-0.5c-0.1-0.2-0.1-0.3-0.2-0.5c-0.1,0.1-0.2,0.2-0.3,0.4s-0.3,0.3-0.5,0.4c-0.2,0.1-0.5,0.2-0.7,0.3
			c-0.3,0.1-0.6,0.1-1,0.1c-0.4,0-0.7-0.1-1-0.2c-0.3-0.1-0.6-0.2-0.8-0.4c-0.2-0.2-0.4-0.4-0.5-0.7s-0.2-0.6-0.2-0.9
			c0-0.1,0-0.2,0-0.3c0-0.1,0.1-0.3,0.1-0.4c0.1-0.1,0.1-0.3,0.2-0.4c0.1-0.2,0.3-0.3,0.4-0.4c0.2-0.1,0.4-0.3,0.7-0.4
			c0.3-0.1,0.5-0.2,0.8-0.3c0.3-0.1,0.6-0.1,0.8-0.2c0.3,0,0.5-0.1,0.8-0.1l1.2-0.1v-0.3c0-0.2,0-0.4,0-0.6s-0.1-0.5-0.2-0.7
			c-0.1-0.2-0.3-0.4-0.5-0.5c-0.2-0.1-0.6-0.2-1-0.2c-0.5,0-0.9,0.1-1.2,0.4c-0.3,0.3-0.4,0.6-0.4,1.1v0.1l-1.3-0.1
			c0-0.1,0-0.3,0.1-0.5c0.1-0.3,0.2-0.5,0.4-0.8s0.5-0.5,0.9-0.8c0.4-0.2,0.9-0.3,1.6-0.3c0.2,0,0.5,0,0.9,0.1
			c0.4,0.1,0.7,0.2,1,0.4c0.3,0.1,0.5,0.3,0.6,0.5c0.2,0.2,0.3,0.4,0.3,0.6c0.1,0.2,0.1,0.5,0.1,0.7c0,0.3,0,0.6,0,0.9v2.7
			c0,0.2,0,0.4,0.1,0.6c0.1,0.2,0.2,0.3,0.5,0.3c0.1,0,0.2,0,0.2,0c0,0,0.1,0,0.2,0V339.5z M51.4,336.5v-0.6c-0.1,0-0.3,0.1-0.6,0.1
			c-0.2,0-0.5,0.1-0.8,0.1c-0.3,0-0.5,0.1-0.8,0.2c-0.2,0.1-0.4,0.1-0.6,0.2c-0.1,0-0.1,0.1-0.2,0.1c-0.1,0.1-0.2,0.1-0.3,0.2
			c-0.1,0.1-0.2,0.2-0.3,0.3c-0.1,0.1-0.1,0.3-0.1,0.5c0,0.3,0.1,0.5,0.3,0.8s0.6,0.4,1.1,0.4c0.2,0,0.4,0,0.6-0.1
			c0.2,0,0.5-0.2,0.7-0.3c0.2-0.2,0.4-0.4,0.6-0.7C51.3,337.3,51.4,337,51.4,336.5z"></path>
	</g>
	<g class="st9">
		<path d="M63.4,336.8c-0.1,0.5-0.3,1-0.5,1.4c-0.2,0.4-0.5,0.7-0.8,0.9c-0.3,0.2-0.7,0.4-1.1,0.5s-0.8,0.2-1.2,0.2
			c-0.6,0-1.1-0.1-1.6-0.3s-0.9-0.5-1.2-0.8c-0.3-0.3-0.6-0.8-0.7-1.2s-0.2-1-0.2-1.6c0-0.6,0.1-1.1,0.2-1.6s0.4-0.9,0.7-1.3
			c0.3-0.4,0.7-0.7,1.1-0.9c0.5-0.2,1-0.3,1.6-0.3c0.6,0,1.1,0.1,1.5,0.2c0.4,0.2,0.8,0.4,1,0.6c0.3,0.3,0.5,0.5,0.7,0.8
			s0.3,0.6,0.3,0.8l-1.4,0.1c-0.1-0.6-0.3-1-0.7-1.3c-0.3-0.3-0.8-0.4-1.4-0.4c-0.3,0-0.6,0-0.8,0.2c-0.3,0.1-0.5,0.3-0.7,0.5
			s-0.4,0.6-0.5,0.9c-0.1,0.4-0.2,0.9-0.2,1.4c0,0.9,0.2,1.6,0.6,2.2c0.4,0.6,1,0.8,1.8,0.8c0.4,0,0.7-0.1,0.9-0.2
			c0.3-0.1,0.5-0.2,0.6-0.4c0.2-0.2,0.3-0.4,0.4-0.7c0.1-0.3,0.2-0.5,0.2-0.8L63.4,336.8z"></path>
	</g>
	<g class="st9">
		<path d="M71.1,339.6v-4.4c0-0.2,0-0.4,0-0.6c0-0.2-0.1-0.4-0.1-0.6c-0.1-0.3-0.3-0.6-0.6-0.8s-0.6-0.2-0.9-0.2c-0.1,0-0.2,0-0.3,0
			s-0.3,0.1-0.4,0.1c-0.2,0.1-0.3,0.2-0.5,0.3c-0.2,0.1-0.3,0.3-0.4,0.5c-0.2,0.3-0.3,0.6-0.3,1c0,0.3,0,0.7,0,1v3.7h-1.3v-11.3h1.3
			v4.5c0.2-0.2,0.4-0.4,0.6-0.6c0.2-0.1,0.4-0.2,0.6-0.3c0.2-0.1,0.4-0.1,0.6-0.1c0.2,0,0.3,0,0.5,0c0.6,0,1,0.1,1.4,0.3
			c0.4,0.2,0.6,0.4,0.8,0.7c0.2,0.3,0.3,0.6,0.4,0.9c0.1,0.3,0.1,0.7,0.1,1v4.9H71.1z"></path>
		<path d="M83.7,337.9c0,0.3,0,0.5,0.1,0.6s0.2,0.2,0.4,0.2c0.1,0,0.2,0,0.3,0c0.1,0,0.3-0.1,0.5-0.1v1.1c-0.1,0-0.2,0-0.5,0.1
			c-0.3,0-0.5,0.1-0.7,0.1c-0.3,0-0.6,0-0.7-0.1c-0.2-0.1-0.3-0.1-0.4-0.3s-0.2-0.3-0.2-0.4c0-0.2,0-0.4,0-0.6V333h-1.2v-1h1.2v-2.4
			h1.3v2.4H85v1h-1.4V337.9z"></path>
		<path d="M88.3,329.7v-1.5h1.2v1.5H88.3z M88.3,339.6V332h1.2v7.5H88.3z"></path>
		<path d="M102.1,339.6v-5c0-0.3,0-0.6-0.1-0.8c-0.1-0.2-0.2-0.4-0.4-0.5c-0.1-0.1-0.3-0.2-0.4-0.2s-0.3-0.1-0.4-0.1
			c-0.2,0-0.4,0-0.5,0.1c-0.2,0.1-0.3,0.2-0.5,0.3c-0.2,0.1-0.3,0.2-0.4,0.4c-0.1,0.1-0.2,0.3-0.3,0.5c0,0.1-0.1,0.3-0.1,0.4
			c0,0.2,0,0.4,0,0.7v4.2h-1.3v-4.9c0-0.4-0.1-0.7-0.2-0.9s-0.2-0.4-0.4-0.5s-0.3-0.2-0.5-0.2c-0.2,0-0.3,0-0.4,0
			c-0.2,0-0.3,0-0.5,0.1c-0.2,0.1-0.4,0.1-0.5,0.2c-0.2,0.1-0.3,0.2-0.4,0.4s-0.2,0.3-0.3,0.5c-0.1,0.1-0.1,0.2-0.1,0.4
			c0,0.1,0,0.3,0,0.6v4.5h-1.2V332h1.2v1c0.3-0.4,0.6-0.7,1-0.9c0.4-0.2,0.8-0.4,1.3-0.4c0.1,0,0.2,0,0.3,0s0.2,0,0.4,0.1
			s0.3,0.1,0.5,0.2c0.2,0.1,0.3,0.2,0.5,0.4c0.1,0.1,0.2,0.2,0.2,0.3c0.1,0.1,0.1,0.2,0.2,0.4c0.1-0.1,0.2-0.2,0.4-0.4
			c0.2-0.2,0.3-0.3,0.6-0.5c0.2-0.1,0.4-0.3,0.7-0.4c0.2-0.1,0.5-0.2,0.9-0.2c0.2,0,0.4,0,0.6,0.1c0.2,0.1,0.4,0.1,0.5,0.2
			c0.1,0.1,0.3,0.2,0.4,0.3s0.2,0.2,0.2,0.2c0.2,0.3,0.4,0.6,0.4,0.9s0.1,0.7,0.1,1v5H102.1z"></path>
		<path d="M108,336.1c0,0.3,0,0.6,0.1,0.9c0.1,0.3,0.2,0.6,0.4,0.9c0.2,0.3,0.4,0.5,0.8,0.7c0.3,0.2,0.7,0.3,1.1,0.3
			c0.3,0,0.6-0.1,0.9-0.2c0.2-0.1,0.4-0.3,0.6-0.4c0.2-0.2,0.3-0.4,0.4-0.6c0.1-0.2,0.1-0.4,0.2-0.6l1.3,0.2c0,0.1-0.1,0.3-0.2,0.6
			c-0.1,0.3-0.3,0.6-0.6,0.9c-0.3,0.3-0.6,0.5-1,0.8s-0.9,0.3-1.6,0.3c-0.5,0-0.9-0.1-1.4-0.2c-0.4-0.1-0.8-0.4-1.2-0.7
			s-0.6-0.7-0.8-1.3c-0.2-0.5-0.3-1.1-0.3-1.9c0-0.7,0.1-1.3,0.4-1.8c0.2-0.5,0.5-0.9,0.9-1.2s0.7-0.5,1.2-0.7
			c0.4-0.1,0.8-0.2,1.2-0.2c0.4,0,0.8,0.1,1.2,0.2c0.4,0.1,0.8,0.4,1.1,0.7c0.3,0.3,0.6,0.7,0.8,1.2c0.2,0.5,0.3,1.1,0.3,1.9v0.2
			L108,336.1L108,336.1z M112.4,335.1c0-0.3-0.1-0.6-0.2-0.9c-0.1-0.3-0.3-0.5-0.4-0.7c-0.2-0.2-0.4-0.4-0.7-0.5
			c-0.3-0.1-0.6-0.2-0.9-0.2c-0.3,0-0.6,0.1-0.9,0.2c-0.3,0.1-0.5,0.3-0.6,0.5c-0.2,0.2-0.3,0.5-0.4,0.7c-0.1,0.3-0.2,0.6-0.2,0.9
			H112.4z"></path>
		<path d="M124.2,328.3v4.8c0.3-0.4,0.7-0.8,1.1-1c0.5-0.2,0.9-0.3,1.5-0.3c0.5,0,0.9,0.1,1.4,0.3s0.8,0.4,1.1,0.8
			c0.3,0.3,0.6,0.8,0.7,1.3c0.2,0.5,0.3,1.1,0.3,1.7c0,0.6-0.1,1.1-0.2,1.6c-0.1,0.5-0.4,0.9-0.6,1.3s-0.7,0.6-1.1,0.9
			c-0.4,0.2-0.9,0.3-1.5,0.3c-0.4,0-0.7,0-1-0.1c-0.3-0.1-0.5-0.2-0.7-0.3c-0.2-0.1-0.4-0.3-0.5-0.4s-0.3-0.3-0.3-0.4v1h-1.3v-11.3
			H124.2z M124.2,335.8c0,0.3,0,0.7,0.1,1c0.1,0.3,0.2,0.7,0.4,0.9c0.2,0.3,0.4,0.5,0.7,0.7c0.3,0.2,0.7,0.3,1.1,0.3
			c0.2,0,0.5,0,0.8-0.1c0.3-0.1,0.5-0.2,0.8-0.5s0.4-0.5,0.6-0.9c0.1-0.4,0.2-0.9,0.2-1.5c0-0.4-0.1-0.8-0.2-1.2
			c-0.1-0.3-0.3-0.6-0.5-0.8s-0.5-0.4-0.7-0.5c-0.3-0.1-0.6-0.2-0.9-0.2c-0.3,0-0.5,0-0.8,0.1s-0.5,0.2-0.8,0.5
			c-0.2,0.2-0.4,0.5-0.6,0.9C124.3,334.8,124.2,335.3,124.2,335.8z"></path>
		<path d="M134.5,336.1c0,0.3,0,0.6,0.1,0.9c0.1,0.3,0.2,0.6,0.4,0.9c0.2,0.3,0.4,0.5,0.8,0.7c0.3,0.2,0.7,0.3,1.1,0.3
			c0.3,0,0.6-0.1,0.9-0.2c0.2-0.1,0.4-0.3,0.6-0.4c0.2-0.2,0.3-0.4,0.4-0.6c0.1-0.2,0.1-0.4,0.2-0.6l1.3,0.2c0,0.1-0.1,0.3-0.2,0.6
			c-0.1,0.3-0.3,0.6-0.6,0.9c-0.3,0.3-0.6,0.5-1,0.8s-0.9,0.3-1.6,0.3c-0.5,0-0.9-0.1-1.4-0.2c-0.4-0.1-0.8-0.4-1.2-0.7
			s-0.6-0.7-0.8-1.3c-0.2-0.5-0.3-1.1-0.3-1.9c0-0.7,0.1-1.3,0.4-1.8c0.2-0.5,0.5-0.9,0.9-1.2s0.7-0.5,1.2-0.7
			c0.4-0.1,0.8-0.2,1.2-0.2c0.4,0,0.8,0.1,1.2,0.2c0.4,0.1,0.8,0.4,1.1,0.7c0.3,0.3,0.6,0.7,0.8,1.2c0.2,0.5,0.3,1.1,0.3,1.9v0.2
			L134.5,336.1L134.5,336.1z M138.8,335.1c0-0.3-0.1-0.6-0.2-0.9c-0.1-0.3-0.3-0.5-0.4-0.7c-0.2-0.2-0.4-0.4-0.7-0.5
			c-0.3-0.1-0.6-0.2-0.9-0.2c-0.3,0-0.6,0.1-0.9,0.2c-0.3,0.1-0.5,0.3-0.6,0.5c-0.2,0.2-0.3,0.5-0.4,0.7c-0.1,0.3-0.2,0.6-0.2,0.9
			H138.8z"></path>
		<path d="M146.6,332v1h-1.4v6.5h-1.3V333h-1.2v-1h1.2v-0.7c0-0.3,0-0.5,0-0.7c0-0.2,0-0.4,0-0.5s0-0.3,0.1-0.4s0.1-0.3,0.1-0.4
			c0.1-0.3,0.2-0.5,0.4-0.6c0.2-0.1,0.4-0.2,0.5-0.3c0.2-0.1,0.4-0.1,0.5-0.1c0.2,0,0.3,0,0.3,0c0.1,0,0.2,0,0.4,0s0.4,0,0.6,0.1v1
			c0,0-0.1,0-0.3,0c-0.2,0-0.3,0-0.4,0c-0.3,0-0.6,0.1-0.7,0.3c-0.2,0.2-0.2,0.5-0.2,0.9v1.4H146.6z"></path>
		<path d="M149,335.8c0-0.3,0-0.7,0.1-1.1c0.1-0.5,0.3-0.9,0.5-1.3s0.7-0.8,1.2-1.1c0.5-0.3,1.2-0.5,2-0.5c0.4,0,0.9,0.1,1.3,0.2
			c0.4,0.2,0.8,0.4,1.2,0.7c0.3,0.3,0.6,0.7,0.8,1.2s0.3,1.1,0.3,1.8s-0.1,1.3-0.3,1.8c-0.2,0.5-0.5,0.9-0.8,1.3
			c-0.3,0.3-0.7,0.6-1.2,0.8c-0.4,0.2-0.9,0.3-1.4,0.3c-0.5,0-1-0.1-1.5-0.3c-0.4-0.2-0.8-0.4-1.2-0.8s-0.6-0.8-0.8-1.2
			S149,336.4,149,335.8z M150.4,335.9c0,0.2,0,0.5,0.1,0.8c0,0.3,0.2,0.6,0.3,1c0.2,0.3,0.4,0.6,0.7,0.8c0.3,0.2,0.7,0.3,1.2,0.3
			c0.8,0,1.3-0.3,1.7-0.8s0.6-1.3,0.6-2.3c0-0.3,0-0.6-0.1-1s-0.2-0.6-0.4-0.9c-0.2-0.3-0.4-0.5-0.7-0.7c-0.3-0.2-0.6-0.3-1.1-0.3
			c-0.6,0-1.1,0.1-1.4,0.4c-0.3,0.3-0.6,0.6-0.7,0.9c-0.1,0.4-0.2,0.7-0.3,1C150.4,335.5,150.4,335.8,150.4,335.9z"></path>
		<path d="M161,332v1.4c0.2-0.4,0.4-0.6,0.7-0.9c0.1-0.1,0.4-0.2,0.7-0.4c0.3-0.1,0.7-0.2,1.2-0.2v1.4c-0.2,0-0.3,0-0.5,0
			c-0.5,0-0.9,0.1-1.2,0.4c-0.4,0.2-0.6,0.6-0.7,1.1c-0.1,0.2-0.1,0.4-0.1,0.6s0,0.5,0,0.8v3.5h-1.3V332H161z"></path>
		<path d="M167.3,336.1c0,0.3,0,0.6,0.1,0.9c0.1,0.3,0.2,0.6,0.4,0.9c0.2,0.3,0.4,0.5,0.8,0.7c0.3,0.2,0.7,0.3,1.1,0.3
			c0.3,0,0.6-0.1,0.9-0.2c0.2-0.1,0.4-0.3,0.6-0.4c0.2-0.2,0.3-0.4,0.4-0.6c0.1-0.2,0.1-0.4,0.2-0.6l1.3,0.2c0,0.1-0.1,0.3-0.2,0.6
			c-0.1,0.3-0.3,0.6-0.6,0.9s-0.6,0.5-1,0.8c-0.4,0.2-0.9,0.3-1.6,0.3c-0.5,0-0.9-0.1-1.4-0.2c-0.4-0.1-0.8-0.4-1.2-0.7
			c-0.3-0.3-0.6-0.7-0.8-1.3c-0.2-0.5-0.3-1.1-0.3-1.9c0-0.7,0.1-1.3,0.4-1.8c0.2-0.5,0.5-0.9,0.9-1.2s0.7-0.5,1.2-0.7
			c0.4-0.1,0.8-0.2,1.2-0.2c0.4,0,0.8,0.1,1.2,0.2c0.4,0.1,0.8,0.4,1.1,0.7c0.3,0.3,0.6,0.7,0.8,1.2c0.2,0.5,0.3,1.1,0.3,1.9v0.2
			L167.3,336.1L167.3,336.1z M171.6,335.1c0-0.3-0.1-0.6-0.2-0.9c-0.1-0.3-0.3-0.5-0.4-0.7c-0.2-0.2-0.4-0.4-0.7-0.5
			c-0.3-0.1-0.6-0.2-0.9-0.2c-0.3,0-0.6,0.1-0.9,0.2s-0.5,0.3-0.6,0.5c-0.2,0.2-0.3,0.5-0.4,0.7c-0.1,0.3-0.2,0.6-0.2,0.9H171.6z"></path>
		<path d="M182.2,339.6v-11.3h1.2v11.3H182.2z"></path>
		<path d="M187.2,329.7v-1.5h1.2v1.5H187.2z M187.2,339.6V332h1.2v7.5H187.2z"></path>
		<path d="M198.9,339.7c0,0.7-0.1,1.3-0.3,1.7c-0.2,0.5-0.5,0.8-0.8,1.1c-0.3,0.3-0.7,0.5-1.1,0.6c-0.4,0.1-0.9,0.2-1.3,0.2
			c-0.4,0-0.9-0.1-1.2-0.2c-0.4-0.1-0.7-0.3-1.1-0.5c-0.3-0.2-0.6-0.5-0.8-0.9c-0.2-0.4-0.3-0.8-0.4-1.2h1.4c0,0.6,0.2,1,0.6,1.3
			c0.4,0.3,0.9,0.4,1.5,0.4c0.8,0,1.3-0.2,1.6-0.6c0.3-0.4,0.4-1,0.4-1.7v-1.5c-0.2,0.3-0.4,0.5-0.7,0.7c-0.2,0.2-0.5,0.3-0.7,0.4
			c-0.2,0.1-0.4,0.2-0.6,0.2c-0.2,0-0.4,0-0.5,0c-0.5,0-0.9-0.1-1.4-0.3c-0.4-0.2-0.8-0.4-1.1-0.8c-0.3-0.3-0.6-0.8-0.8-1.2
			c-0.2-0.5-0.3-1.1-0.3-1.7c0-0.4,0.1-0.9,0.2-1.4c0.1-0.5,0.3-0.9,0.6-1.3s0.6-0.7,1.1-1c0.5-0.3,1-0.4,1.7-0.4
			c0.9,0,1.7,0.4,2.5,1.3v-1h1.3V339.7z M197.7,335.7c0-0.9-0.2-1.5-0.7-2c-0.4-0.5-1-0.7-1.7-0.7c-0.3,0-0.6,0.1-0.9,0.2
			c-0.3,0.1-0.5,0.3-0.7,0.5c-0.2,0.2-0.4,0.5-0.5,0.9c-0.1,0.4-0.2,0.8-0.2,1.2c0,0.4,0,0.8,0.1,1.1s0.2,0.6,0.4,0.9
			c0.2,0.3,0.4,0.5,0.7,0.6c0.3,0.1,0.7,0.2,1.1,0.2c0.4,0,0.8-0.1,1.1-0.2c0.3-0.2,0.5-0.4,0.7-0.6c0.2-0.3,0.3-0.6,0.4-0.9
			S197.7,336.1,197.7,335.7z"></path>
		<path d="M207.6,339.6v-4.4c0-0.2,0-0.4,0-0.6c0-0.2-0.1-0.4-0.1-0.6c-0.1-0.3-0.3-0.6-0.6-0.8s-0.6-0.2-0.9-0.2
			c-0.1,0-0.2,0-0.3,0c-0.1,0-0.3,0.1-0.4,0.1c-0.2,0.1-0.3,0.2-0.5,0.3s-0.3,0.3-0.4,0.5c-0.2,0.3-0.3,0.6-0.3,1s0,0.7,0,1v3.7
			h-1.3v-11.3h1.3v4.5c0.2-0.2,0.4-0.4,0.6-0.6c0.2-0.1,0.4-0.2,0.6-0.3c0.2-0.1,0.4-0.1,0.6-0.1s0.3,0,0.5,0c0.6,0,1,0.1,1.4,0.3
			c0.4,0.2,0.6,0.4,0.8,0.7c0.2,0.3,0.3,0.6,0.4,0.9c0.1,0.3,0.1,0.7,0.1,1v4.9H207.6z"></path>
		<path d="M214.3,337.9c0,0.3,0,0.5,0.1,0.6c0.1,0.1,0.2,0.2,0.4,0.2c0.1,0,0.2,0,0.3,0c0.1,0,0.3-0.1,0.5-0.1v1.1
			c-0.1,0-0.2,0-0.5,0.1s-0.5,0.1-0.7,0.1c-0.3,0-0.6,0-0.7-0.1c-0.2-0.1-0.3-0.1-0.4-0.3s-0.2-0.3-0.2-0.4c0-0.2,0-0.4,0-0.6V333
			h-1.2v-1h1.2v-2.4h1.3v2.4h1.4v1h-1.4V337.9z"></path>
		<path d="M218.9,329.7v-1.5h1.2v1.5H218.9z M218.9,339.6V332h1.2v7.5H218.9z"></path>
		<path d="M228.7,339.6v-4.9c0-0.3,0-0.5-0.1-0.7c-0.1-0.2-0.2-0.4-0.4-0.5c-0.2-0.1-0.3-0.2-0.5-0.3c-0.2-0.1-0.4-0.1-0.6-0.1
			c-0.3,0-0.5,0-0.8,0.1c-0.2,0.1-0.5,0.2-0.6,0.4c-0.2,0.2-0.3,0.4-0.4,0.7c-0.1,0.3-0.2,0.6-0.2,0.9v4.5h-1.3V332h1.3v1.1
			c0.1-0.1,0.2-0.3,0.3-0.4c0.1-0.2,0.3-0.3,0.5-0.4c0.2-0.1,0.4-0.2,0.7-0.3c0.3-0.1,0.6-0.1,0.9-0.1c0.1,0,0.2,0,0.4,0
			c0.2,0,0.4,0.1,0.6,0.1c0.2,0.1,0.4,0.2,0.6,0.3s0.4,0.3,0.6,0.6c0.2,0.3,0.3,0.6,0.4,1c0,0.3,0.1,0.7,0.1,1v4.8H228.7z"></path>
		<path d="M240.6,339.7c0,0.7-0.1,1.3-0.3,1.7c-0.2,0.5-0.5,0.8-0.8,1.1s-0.7,0.5-1.1,0.6c-0.4,0.1-0.9,0.2-1.3,0.2
			c-0.4,0-0.9-0.1-1.2-0.2s-0.7-0.3-1.1-0.5c-0.3-0.2-0.6-0.5-0.8-0.9c-0.2-0.4-0.3-0.8-0.4-1.2h1.4c0,0.6,0.2,1,0.6,1.3
			c0.4,0.3,0.9,0.4,1.5,0.4c0.8,0,1.3-0.2,1.6-0.6c0.3-0.4,0.4-1,0.4-1.7v-1.5c-0.2,0.3-0.4,0.5-0.7,0.7c-0.2,0.2-0.5,0.3-0.7,0.4
			c-0.2,0.1-0.4,0.2-0.6,0.2c-0.2,0-0.4,0-0.5,0c-0.5,0-0.9-0.1-1.4-0.3c-0.4-0.2-0.8-0.4-1.1-0.8s-0.6-0.8-0.8-1.2
			s-0.3-1.1-0.3-1.7c0-0.4,0.1-0.9,0.2-1.4c0.1-0.5,0.3-0.9,0.6-1.3s0.6-0.7,1.1-1c0.5-0.3,1-0.4,1.7-0.4c0.9,0,1.7,0.4,2.5,1.3v-1
			h1.3V339.7z M239.3,335.7c0-0.9-0.2-1.5-0.7-2c-0.4-0.5-1-0.7-1.7-0.7c-0.3,0-0.6,0.1-0.9,0.2c-0.3,0.1-0.5,0.3-0.7,0.5
			c-0.2,0.2-0.4,0.5-0.5,0.9c-0.1,0.4-0.2,0.8-0.2,1.2c0,0.4,0,0.8,0.1,1.1s0.2,0.6,0.4,0.9c0.2,0.3,0.4,0.5,0.7,0.6
			c0.3,0.1,0.7,0.2,1.1,0.2s0.8-0.1,1.1-0.2c0.3-0.2,0.5-0.4,0.7-0.6c0.2-0.3,0.3-0.6,0.4-0.9S239.3,336.1,239.3,335.7z"></path>
		<path d="M251.9,337.9c0,0.3,0,0.5,0.1,0.6s0.2,0.2,0.4,0.2c0.1,0,0.2,0,0.3,0c0.1,0,0.3-0.1,0.5-0.1v1.1c-0.1,0-0.2,0-0.5,0.1
			s-0.5,0.1-0.7,0.1c-0.3,0-0.6,0-0.7-0.1c-0.2-0.1-0.3-0.1-0.4-0.3s-0.2-0.3-0.2-0.4c0-0.2,0-0.4,0-0.6V333h-1.2v-1h1.2v-2.4h1.3
			v2.4h1.4v1h-1.4V337.9z"></path>
		<path d="M256.1,335.8c0-0.3,0-0.7,0.1-1.1c0.1-0.5,0.3-0.9,0.5-1.3c0.3-0.4,0.7-0.8,1.2-1.1c0.5-0.3,1.2-0.5,2-0.5
			c0.4,0,0.9,0.1,1.3,0.2s0.8,0.4,1.2,0.7c0.3,0.3,0.6,0.7,0.8,1.2s0.3,1.1,0.3,1.8s-0.1,1.3-0.3,1.8c-0.2,0.5-0.5,0.9-0.8,1.3
			c-0.3,0.3-0.7,0.6-1.2,0.8c-0.4,0.2-0.9,0.3-1.4,0.3c-0.5,0-1-0.1-1.5-0.3c-0.4-0.2-0.8-0.4-1.2-0.8c-0.3-0.3-0.6-0.8-0.8-1.2
			S256.1,336.4,256.1,335.8z M257.5,335.9c0,0.2,0,0.5,0.1,0.8c0,0.3,0.2,0.6,0.3,1c0.2,0.3,0.4,0.6,0.7,0.8
			c0.3,0.2,0.7,0.3,1.2,0.3c0.8,0,1.3-0.3,1.7-0.8c0.4-0.6,0.6-1.3,0.6-2.3c0-0.3,0-0.6-0.1-1s-0.2-0.6-0.4-0.9
			c-0.2-0.3-0.4-0.5-0.7-0.7c-0.3-0.2-0.6-0.3-1.1-0.3c-0.6,0-1.1,0.1-1.4,0.4c-0.3,0.3-0.6,0.6-0.7,0.9c-0.1,0.4-0.2,0.7-0.3,1
			C257.5,335.5,257.5,335.8,257.5,335.9z"></path>
	</g>
	<g class="st9">
		<path d="M44.8,360.1c0,0.3,0,0.6,0.1,0.9c0.1,0.3,0.2,0.6,0.4,0.9c0.2,0.3,0.4,0.5,0.8,0.7c0.3,0.2,0.7,0.3,1.1,0.3
			c0.3,0,0.6-0.1,0.9-0.2c0.2-0.1,0.4-0.3,0.6-0.4c0.2-0.2,0.3-0.4,0.4-0.6c0.1-0.2,0.1-0.4,0.2-0.6l1.3,0.2c0,0.1-0.1,0.3-0.2,0.6
			c-0.1,0.3-0.3,0.6-0.6,0.9c-0.3,0.3-0.6,0.5-1,0.8s-0.9,0.3-1.6,0.3c-0.5,0-0.9-0.1-1.4-0.2c-0.4-0.1-0.8-0.4-1.2-0.7
			s-0.6-0.7-0.8-1.3c-0.2-0.5-0.3-1.1-0.3-1.9c0-0.7,0.1-1.3,0.4-1.8c0.2-0.5,0.5-0.9,0.9-1.2s0.7-0.5,1.2-0.7
			c0.4-0.1,0.8-0.2,1.2-0.2c0.4,0,0.8,0.1,1.2,0.2c0.4,0.1,0.8,0.4,1.1,0.7c0.3,0.3,0.6,0.7,0.8,1.2c0.2,0.5,0.3,1.1,0.3,1.9v0.2
			L44.8,360.1L44.8,360.1z M49.2,359.1c0-0.3-0.1-0.6-0.2-0.9c-0.1-0.3-0.3-0.5-0.4-0.7c-0.2-0.2-0.4-0.4-0.7-0.5
			c-0.3-0.1-0.6-0.2-0.9-0.2c-0.3,0-0.6,0.1-0.9,0.2c-0.3,0.1-0.5,0.3-0.6,0.5c-0.2,0.2-0.3,0.5-0.4,0.7c-0.1,0.3-0.2,0.6-0.2,0.9
			H49.2z"></path>
		<path d="M58.8,363.6v-4.9c0-0.3,0-0.5-0.1-0.7c-0.1-0.2-0.2-0.4-0.4-0.5c-0.2-0.1-0.3-0.2-0.5-0.3c-0.2-0.1-0.4-0.1-0.6-0.1
			c-0.3,0-0.5,0-0.8,0.1c-0.2,0.1-0.5,0.2-0.6,0.4c-0.2,0.2-0.3,0.4-0.4,0.7c-0.1,0.3-0.2,0.6-0.2,0.9v4.5h-1.3V356h1.3v1.1
			c0.1-0.1,0.2-0.3,0.3-0.4s0.3-0.3,0.5-0.4c0.2-0.1,0.4-0.2,0.7-0.3c0.3-0.1,0.6-0.1,0.9-0.1c0.1,0,0.2,0,0.4,0
			c0.2,0,0.4,0.1,0.6,0.1c0.2,0.1,0.4,0.2,0.6,0.3c0.2,0.1,0.4,0.3,0.6,0.6c0.2,0.3,0.3,0.6,0.4,1s0.1,0.7,0.1,1v4.8H58.8z"></path>
		<path d="M64.6,360.9c0,0.2,0,0.5,0.1,0.7c0,0.2,0.2,0.4,0.3,0.6c0.2,0.2,0.5,0.4,0.8,0.5c0.3,0.1,0.6,0.1,0.9,0.1
			c0.2,0,0.3,0,0.5,0c0.2,0,0.4-0.1,0.6-0.2c0.2-0.1,0.3-0.2,0.5-0.4c0.1-0.2,0.2-0.4,0.2-0.6c0-0.2-0.1-0.4-0.2-0.6
			c-0.1-0.1-0.2-0.3-0.4-0.3c-0.1-0.1-0.3-0.1-0.5-0.2s-0.4-0.1-0.5-0.1l-0.7-0.1c-0.5-0.1-0.9-0.2-1.3-0.4
			c-0.3-0.1-0.6-0.3-0.8-0.5c-0.2-0.2-0.4-0.4-0.4-0.6c-0.1-0.2-0.1-0.5-0.1-0.7c0-0.4,0.1-0.8,0.3-1c0.2-0.3,0.4-0.5,0.7-0.7
			c0.3-0.2,0.6-0.3,0.9-0.4s0.7-0.1,1-0.1c0.4,0,0.7,0,1.1,0.1c0.3,0.1,0.6,0.2,0.8,0.3c0.2,0.1,0.4,0.3,0.6,0.4
			c0.2,0.2,0.3,0.3,0.4,0.4c0.1,0.2,0.2,0.5,0.3,0.7s0.1,0.4,0.1,0.5l-1.4,0.2c0-0.2,0-0.3,0-0.4c0-0.1,0-0.2-0.1-0.3
			c-0.1-0.1-0.1-0.2-0.2-0.3c-0.1-0.1-0.2-0.2-0.4-0.3c-0.2-0.1-0.3-0.2-0.6-0.2c-0.2-0.1-0.5-0.1-0.7-0.1c-0.3,0-0.5,0-0.7,0.1
			c-0.2,0.1-0.3,0.2-0.5,0.3s-0.2,0.2-0.3,0.4c-0.1,0.1-0.1,0.3-0.1,0.4c0,0.3,0.2,0.6,0.5,0.7c0.3,0.2,0.8,0.3,1.3,0.4l0.7,0.2
			c0.4,0.1,0.7,0.2,1,0.3c0.3,0.1,0.6,0.2,0.8,0.4s0.4,0.4,0.5,0.6c0.1,0.2,0.2,0.5,0.2,0.9c0,0.4-0.1,0.7-0.2,1
			c-0.2,0.3-0.4,0.5-0.7,0.8c-0.3,0.2-0.6,0.4-1,0.5c-0.4,0.1-0.8,0.2-1.2,0.2c-0.6,0-1.1-0.1-1.5-0.2s-0.8-0.3-1-0.6
			s-0.5-0.5-0.6-0.8c-0.1-0.3-0.2-0.7-0.3-1L64.6,360.9z"></path>
		<path d="M78,363.6v-1.2c-0.3,0.4-0.6,0.7-1.1,1c-0.5,0.2-0.9,0.4-1.4,0.4c-0.1,0-0.2,0-0.3,0c-0.2,0-0.3-0.1-0.6-0.1
			c-0.2-0.1-0.4-0.2-0.6-0.3c-0.2-0.1-0.4-0.3-0.5-0.6c-0.2-0.3-0.3-0.6-0.3-0.9c0-0.3-0.1-0.6-0.1-1V356h1.3v4.3c0,0.4,0,0.7,0,0.9
			s0.1,0.4,0.2,0.6c0.1,0.2,0.2,0.3,0.4,0.5c0.2,0.2,0.5,0.2,0.9,0.2c0.1,0,0.2,0,0.3,0c0.1,0,0.3-0.1,0.5-0.1
			c0.2-0.1,0.3-0.1,0.5-0.3s0.3-0.3,0.5-0.5c0.2-0.3,0.3-0.6,0.3-0.9c0-0.3,0-0.6,0-0.9V356h1.3v7.5H78z"></path>
		<path d="M84.2,356v1.4c0.2-0.4,0.4-0.6,0.7-0.9c0.1-0.1,0.4-0.2,0.7-0.4c0.3-0.1,0.7-0.2,1.2-0.2v1.4c-0.2,0-0.3,0-0.5,0
			c-0.5,0-0.9,0.1-1.2,0.4c-0.4,0.2-0.6,0.6-0.7,1.1c-0.1,0.2-0.1,0.4-0.1,0.6s0,0.5,0,0.8v3.5h-1.3V356H84.2z"></path>
		<path d="M90.5,360.1c0,0.3,0,0.6,0.1,0.9c0.1,0.3,0.2,0.6,0.4,0.9c0.2,0.3,0.4,0.5,0.8,0.7c0.3,0.2,0.7,0.3,1.1,0.3
			c0.3,0,0.6-0.1,0.9-0.2c0.2-0.1,0.4-0.3,0.6-0.4c0.2-0.2,0.3-0.4,0.4-0.6c0.1-0.2,0.1-0.4,0.2-0.6l1.3,0.2c0,0.1-0.1,0.3-0.2,0.6
			c-0.1,0.3-0.3,0.6-0.6,0.9c-0.3,0.3-0.6,0.5-1,0.8s-0.9,0.3-1.6,0.3c-0.5,0-0.9-0.1-1.4-0.2c-0.4-0.1-0.8-0.4-1.2-0.7
			s-0.6-0.7-0.8-1.3c-0.2-0.5-0.3-1.1-0.3-1.9c0-0.7,0.1-1.3,0.4-1.8c0.2-0.5,0.5-0.9,0.9-1.2s0.7-0.5,1.2-0.7
			c0.4-0.1,0.8-0.2,1.2-0.2c0.4,0,0.8,0.1,1.2,0.2c0.4,0.1,0.8,0.4,1.1,0.7c0.3,0.3,0.6,0.7,0.8,1.2c0.2,0.5,0.3,1.1,0.3,1.9v0.2
			L90.5,360.1L90.5,360.1z M94.8,359.1c0-0.3-0.1-0.6-0.2-0.9c-0.1-0.3-0.3-0.5-0.4-0.7c-0.2-0.2-0.4-0.4-0.7-0.5
			c-0.3-0.1-0.6-0.2-0.9-0.2c-0.3,0-0.6,0.1-0.9,0.2c-0.3,0.1-0.5,0.3-0.6,0.5c-0.2,0.2-0.3,0.5-0.4,0.7c-0.1,0.3-0.2,0.6-0.2,0.9
			H94.8z"></path>
		<path d="M112.2,363.5c-0.2,0.1-0.4,0.1-0.5,0.1c-0.1,0-0.2,0-0.3,0c0,0-0.1,0-0.3,0c-0.2,0-0.3-0.1-0.5-0.2
			c-0.2-0.1-0.3-0.3-0.4-0.5c-0.1-0.2-0.1-0.3-0.2-0.5c-0.1,0.1-0.2,0.2-0.3,0.4s-0.3,0.3-0.5,0.4c-0.2,0.1-0.5,0.2-0.7,0.3
			c-0.3,0.1-0.6,0.1-1,0.1c-0.4,0-0.7-0.1-1-0.2c-0.3-0.1-0.6-0.2-0.8-0.4c-0.2-0.2-0.4-0.4-0.5-0.7s-0.2-0.6-0.2-0.9
			c0-0.1,0-0.2,0-0.3c0-0.1,0.1-0.3,0.1-0.4c0.1-0.1,0.1-0.3,0.2-0.4c0.1-0.2,0.3-0.3,0.4-0.4c0.2-0.1,0.4-0.3,0.7-0.4
			c0.3-0.1,0.5-0.2,0.8-0.3c0.3-0.1,0.6-0.1,0.8-0.2c0.3,0,0.5-0.1,0.8-0.1l1.2-0.1v-0.3c0-0.2,0-0.4,0-0.6s-0.1-0.5-0.2-0.7
			c-0.1-0.2-0.3-0.4-0.5-0.5c-0.2-0.1-0.6-0.2-1-0.2c-0.5,0-0.9,0.1-1.2,0.4c-0.3,0.3-0.4,0.6-0.4,1.1v0.1l-1.3-0.1
			c0-0.1,0-0.3,0.1-0.5c0.1-0.3,0.2-0.5,0.4-0.8s0.5-0.5,0.9-0.8c0.4-0.2,0.9-0.3,1.6-0.3c0.2,0,0.5,0,0.9,0.1
			c0.4,0.1,0.7,0.2,1,0.4c0.3,0.1,0.5,0.3,0.6,0.5c0.2,0.2,0.3,0.4,0.3,0.6c0.1,0.2,0.1,0.5,0.1,0.7c0,0.3,0,0.6,0,0.9v2.7
			c0,0.2,0,0.4,0.1,0.6c0.1,0.2,0.2,0.3,0.5,0.3c0.1,0,0.2,0,0.2,0c0,0,0.1,0,0.2,0V363.5z M109.9,360.5v-0.6
			c-0.1,0-0.3,0.1-0.6,0.1c-0.2,0-0.5,0.1-0.8,0.1c-0.3,0-0.5,0.1-0.8,0.2c-0.2,0.1-0.4,0.1-0.6,0.2c-0.1,0-0.1,0.1-0.2,0.1
			c-0.1,0.1-0.2,0.1-0.3,0.2c-0.1,0.1-0.2,0.2-0.3,0.3c-0.1,0.1-0.1,0.3-0.1,0.5c0,0.3,0.1,0.5,0.3,0.8s0.6,0.4,1.1,0.4
			c0.2,0,0.4,0,0.6-0.1c0.2,0,0.5-0.2,0.7-0.3c0.2-0.2,0.4-0.4,0.6-0.7C109.8,361.3,109.9,361,109.9,360.5z"></path>
	</g>
	<g class="st9">
		<path d="M121.8,360.9c0,0.2,0,0.5,0.1,0.7c0,0.2,0.2,0.4,0.3,0.6c0.2,0.2,0.5,0.4,0.8,0.5c0.3,0.1,0.6,0.1,0.9,0.1
			c0.2,0,0.3,0,0.5,0c0.2,0,0.4-0.1,0.6-0.2c0.2-0.1,0.3-0.2,0.5-0.4c0.1-0.2,0.2-0.4,0.2-0.6c0-0.2-0.1-0.4-0.2-0.6
			c-0.1-0.1-0.2-0.3-0.4-0.3c-0.1-0.1-0.3-0.1-0.5-0.2s-0.4-0.1-0.5-0.1l-0.7-0.1c-0.5-0.1-0.9-0.2-1.3-0.4
			c-0.3-0.1-0.6-0.3-0.8-0.5c-0.2-0.2-0.4-0.4-0.4-0.6c-0.1-0.2-0.1-0.5-0.1-0.7c0-0.4,0.1-0.8,0.3-1c0.2-0.3,0.4-0.5,0.7-0.7
			c0.3-0.2,0.6-0.3,0.9-0.4s0.7-0.1,1-0.1c0.4,0,0.7,0,1.1,0.1c0.3,0.1,0.6,0.2,0.8,0.3c0.2,0.1,0.4,0.3,0.6,0.4
			c0.2,0.2,0.3,0.3,0.4,0.4c0.1,0.2,0.2,0.5,0.3,0.7s0.1,0.4,0.1,0.5l-1.4,0.2c0-0.2,0-0.3,0-0.4c0-0.1,0-0.2-0.1-0.3
			c-0.1-0.1-0.1-0.2-0.2-0.3c-0.1-0.1-0.2-0.2-0.4-0.3c-0.2-0.1-0.3-0.2-0.6-0.2c-0.2-0.1-0.5-0.1-0.7-0.1c-0.3,0-0.5,0-0.7,0.1
			c-0.2,0.1-0.3,0.2-0.5,0.3s-0.2,0.2-0.3,0.4c-0.1,0.1-0.1,0.3-0.1,0.4c0,0.3,0.2,0.6,0.5,0.7c0.3,0.2,0.8,0.3,1.3,0.4l0.7,0.2
			c0.4,0.1,0.7,0.2,1,0.3c0.3,0.1,0.6,0.2,0.8,0.4s0.4,0.4,0.5,0.6c0.1,0.2,0.2,0.5,0.2,0.9c0,0.4-0.1,0.7-0.2,1
			c-0.2,0.3-0.4,0.5-0.7,0.8c-0.3,0.2-0.6,0.4-1,0.5c-0.4,0.1-0.8,0.2-1.2,0.2c-0.6,0-1.1-0.1-1.5-0.2s-0.8-0.3-1-0.6
			s-0.5-0.5-0.6-0.8c-0.1-0.3-0.2-0.7-0.3-1L121.8,360.9z"></path>
	</g>
	<g class="st9">
		<path d="M137.3,363.5c-0.2,0.1-0.4,0.1-0.5,0.1c-0.1,0-0.2,0-0.3,0c0,0-0.1,0-0.3,0c-0.2,0-0.3-0.1-0.5-0.2
			c-0.2-0.1-0.3-0.3-0.4-0.5c-0.1-0.2-0.1-0.3-0.2-0.5c-0.1,0.1-0.2,0.2-0.3,0.4s-0.3,0.3-0.5,0.4c-0.2,0.1-0.5,0.2-0.7,0.3
			c-0.3,0.1-0.6,0.1-1,0.1c-0.4,0-0.7-0.1-1-0.2c-0.3-0.1-0.6-0.2-0.8-0.4c-0.2-0.2-0.4-0.4-0.5-0.7s-0.2-0.6-0.2-0.9
			c0-0.1,0-0.2,0-0.3c0-0.1,0.1-0.3,0.1-0.4c0.1-0.1,0.1-0.3,0.2-0.4c0.1-0.2,0.3-0.3,0.4-0.4c0.2-0.1,0.4-0.3,0.7-0.4
			c0.3-0.1,0.5-0.2,0.8-0.3c0.3-0.1,0.6-0.1,0.8-0.2c0.3,0,0.5-0.1,0.8-0.1l1.2-0.1v-0.3c0-0.2,0-0.4,0-0.6s-0.1-0.5-0.2-0.7
			c-0.1-0.2-0.3-0.4-0.5-0.5c-0.2-0.1-0.6-0.2-1-0.2c-0.5,0-0.9,0.1-1.2,0.4c-0.3,0.3-0.4,0.6-0.4,1.1v0.1l-1.3-0.1
			c0-0.1,0-0.3,0.1-0.5c0.1-0.3,0.2-0.5,0.4-0.8s0.5-0.5,0.9-0.8c0.4-0.2,0.9-0.3,1.6-0.3c0.2,0,0.5,0,0.9,0.1
			c0.4,0.1,0.7,0.2,1,0.4c0.3,0.1,0.5,0.3,0.6,0.5c0.2,0.2,0.3,0.4,0.3,0.6c0.1,0.2,0.1,0.5,0.1,0.7c0,0.3,0,0.6,0,0.9v2.7
			c0,0.2,0,0.4,0.1,0.6c0.1,0.2,0.2,0.3,0.5,0.3c0.1,0,0.2,0,0.2,0c0,0,0.1,0,0.2,0V363.5z M135.1,360.5v-0.6
			c-0.1,0-0.3,0.1-0.6,0.1c-0.2,0-0.5,0.1-0.8,0.1c-0.3,0-0.5,0.1-0.8,0.2c-0.2,0.1-0.4,0.1-0.6,0.2c-0.1,0-0.1,0.1-0.2,0.1
			c-0.1,0.1-0.2,0.1-0.3,0.2c-0.1,0.1-0.2,0.2-0.3,0.3c-0.1,0.1-0.1,0.3-0.1,0.5c0,0.3,0.1,0.5,0.3,0.8s0.6,0.4,1.1,0.4
			c0.2,0,0.4,0,0.6-0.1c0.2,0,0.5-0.2,0.7-0.3c0.2-0.2,0.4-0.4,0.6-0.7C135,361.3,135.1,361,135.1,360.5z"></path>
		<path d="M143.2,356v1h-1.4v6.5h-1.3V357h-1.2v-1h1.2v-0.7c0-0.3,0-0.5,0-0.7c0-0.2,0-0.4,0-0.5s0-0.3,0.1-0.4s0.1-0.3,0.1-0.4
			c0.1-0.3,0.2-0.5,0.4-0.6c0.2-0.1,0.4-0.2,0.5-0.3c0.2-0.1,0.4-0.1,0.5-0.1c0.2,0,0.3,0,0.3,0c0.1,0,0.2,0,0.4,0s0.4,0,0.6,0.1v1
			c0,0-0.1,0-0.3,0c-0.2,0-0.3,0-0.4,0c-0.3,0-0.6,0.1-0.7,0.3c-0.2,0.2-0.2,0.5-0.2,0.9v1.4H143.2z"></path>
		<path d="M147,360.1c0,0.3,0,0.6,0.1,0.9c0.1,0.3,0.2,0.6,0.4,0.9c0.2,0.3,0.4,0.5,0.8,0.7c0.3,0.2,0.7,0.3,1.1,0.3
			c0.3,0,0.6-0.1,0.9-0.2c0.2-0.1,0.4-0.3,0.6-0.4c0.2-0.2,0.3-0.4,0.4-0.6c0.1-0.2,0.1-0.4,0.2-0.6l1.3,0.2c0,0.1-0.1,0.3-0.2,0.6
			c-0.1,0.3-0.3,0.6-0.6,0.9s-0.6,0.5-1,0.8s-0.9,0.3-1.6,0.3c-0.5,0-0.9-0.1-1.4-0.2c-0.4-0.1-0.8-0.4-1.2-0.7s-0.6-0.7-0.8-1.3
			c-0.2-0.5-0.3-1.1-0.3-1.9c0-0.7,0.1-1.3,0.4-1.8c0.2-0.5,0.5-0.9,0.9-1.2s0.7-0.5,1.2-0.7c0.4-0.1,0.8-0.2,1.2-0.2
			c0.4,0,0.8,0.1,1.2,0.2c0.4,0.1,0.8,0.4,1.1,0.7c0.3,0.3,0.6,0.7,0.8,1.2c0.2,0.5,0.3,1.1,0.3,1.9v0.2L147,360.1L147,360.1z
			 M151.4,359.1c0-0.3-0.1-0.6-0.2-0.9c-0.1-0.3-0.3-0.5-0.4-0.7c-0.2-0.2-0.4-0.4-0.7-0.5c-0.3-0.1-0.6-0.2-0.9-0.2
			c-0.3,0-0.6,0.1-0.9,0.2c-0.3,0.1-0.5,0.3-0.6,0.5c-0.2,0.2-0.3,0.5-0.4,0.7c-0.1,0.3-0.2,0.6-0.2,0.9H151.4z"></path>
		<path d="M157.6,361.8v1c0,0.6-0.1,1.1-0.2,1.7c-0.1,0.5-0.3,1.1-0.5,1.6h-0.8c0.1-0.4,0.3-0.8,0.4-1.2c0.1-0.4,0.2-0.8,0.2-1.3
			H156v-1.7H157.6z"></path>
		<path d="M174.1,360.8c-0.1,0.5-0.3,1-0.5,1.4c-0.2,0.4-0.5,0.7-0.8,0.9s-0.7,0.4-1.1,0.5c-0.4,0.1-0.8,0.2-1.2,0.2
			c-0.6,0-1.1-0.1-1.6-0.3c-0.5-0.2-0.9-0.5-1.2-0.8s-0.6-0.8-0.7-1.2s-0.2-1-0.2-1.6c0-0.6,0.1-1.1,0.2-1.6s0.4-0.9,0.7-1.3
			c0.3-0.4,0.7-0.7,1.1-0.9c0.5-0.2,1-0.3,1.6-0.3c0.6,0,1.1,0.1,1.5,0.2s0.8,0.4,1,0.6c0.3,0.3,0.5,0.5,0.7,0.8s0.3,0.6,0.3,0.8
			l-1.4,0.1c-0.1-0.6-0.3-1-0.7-1.3c-0.3-0.3-0.8-0.4-1.4-0.4c-0.3,0-0.6,0-0.8,0.2c-0.3,0.1-0.5,0.3-0.7,0.5s-0.4,0.6-0.5,0.9
			c-0.1,0.4-0.2,0.9-0.2,1.4c0,0.9,0.2,1.6,0.6,2.2c0.4,0.6,1,0.8,1.8,0.8c0.4,0,0.7-0.1,0.9-0.2c0.3-0.1,0.5-0.2,0.6-0.4
			c0.2-0.2,0.3-0.4,0.4-0.7s0.2-0.5,0.2-0.8L174.1,360.8z"></path>
		<path d="M177.2,363.6v-11.3h1.2v11.3H177.2z"></path>
		<path d="M183,360.1c0,0.3,0,0.6,0.1,0.9c0.1,0.3,0.2,0.6,0.4,0.9c0.2,0.3,0.4,0.5,0.8,0.7c0.3,0.2,0.7,0.3,1.1,0.3
			c0.3,0,0.6-0.1,0.9-0.2c0.2-0.1,0.4-0.3,0.6-0.4s0.3-0.4,0.4-0.6s0.1-0.4,0.2-0.6l1.3,0.2c0,0.1-0.1,0.3-0.2,0.6
			c-0.1,0.3-0.3,0.6-0.6,0.9c-0.3,0.3-0.6,0.5-1,0.8c-0.4,0.2-0.9,0.3-1.6,0.3c-0.5,0-0.9-0.1-1.4-0.2c-0.4-0.1-0.8-0.4-1.2-0.7
			c-0.3-0.3-0.6-0.7-0.8-1.3c-0.2-0.5-0.3-1.1-0.3-1.9c0-0.7,0.1-1.3,0.4-1.8c0.2-0.5,0.5-0.9,0.9-1.2s0.8-0.5,1.2-0.7
			c0.4-0.1,0.8-0.2,1.2-0.2c0.4,0,0.8,0.1,1.2,0.2c0.4,0.1,0.8,0.4,1.1,0.7c0.3,0.3,0.6,0.7,0.8,1.2c0.2,0.5,0.3,1.1,0.3,1.9v0.2
			L183,360.1L183,360.1z M187.4,359.1c0-0.3-0.1-0.6-0.2-0.9c-0.1-0.3-0.3-0.5-0.4-0.7c-0.2-0.2-0.4-0.4-0.7-0.5s-0.6-0.2-0.9-0.2
			c-0.3,0-0.6,0.1-0.9,0.2c-0.3,0.1-0.5,0.3-0.6,0.5s-0.3,0.5-0.4,0.7s-0.2,0.6-0.2,0.9H187.4z"></path>
		<path d="M198.8,363.5c-0.2,0.1-0.4,0.1-0.5,0.1c-0.1,0-0.2,0-0.3,0c0,0-0.1,0-0.3,0c-0.2,0-0.3-0.1-0.5-0.2
			c-0.2-0.1-0.3-0.3-0.4-0.5c-0.1-0.2-0.1-0.3-0.2-0.5c-0.1,0.1-0.2,0.2-0.3,0.4c-0.1,0.1-0.3,0.3-0.5,0.4c-0.2,0.1-0.5,0.2-0.7,0.3
			c-0.3,0.1-0.6,0.1-1,0.1c-0.4,0-0.7-0.1-1-0.2c-0.3-0.1-0.6-0.2-0.8-0.4c-0.2-0.2-0.4-0.4-0.5-0.7s-0.2-0.6-0.2-0.9
			c0-0.1,0-0.2,0-0.3c0-0.1,0.1-0.3,0.1-0.4c0.1-0.1,0.1-0.3,0.2-0.4c0.1-0.2,0.3-0.3,0.4-0.4c0.2-0.1,0.4-0.3,0.7-0.4
			c0.2-0.1,0.5-0.2,0.8-0.3c0.3-0.1,0.6-0.1,0.8-0.2c0.3,0,0.5-0.1,0.8-0.1l1.2-0.1v-0.3c0-0.2,0-0.4,0-0.6s-0.1-0.5-0.2-0.7
			c-0.1-0.2-0.3-0.4-0.5-0.5c-0.2-0.1-0.6-0.2-1-0.2c-0.5,0-0.9,0.1-1.2,0.4s-0.4,0.6-0.4,1.1v0.1l-1.3-0.1c0-0.1,0-0.3,0.1-0.5
			c0.1-0.3,0.2-0.5,0.4-0.8s0.5-0.5,0.9-0.8c0.4-0.2,0.9-0.3,1.6-0.3c0.2,0,0.5,0,0.9,0.1c0.4,0.1,0.7,0.2,1,0.4
			c0.3,0.1,0.5,0.3,0.6,0.5s0.3,0.4,0.3,0.6c0.1,0.2,0.1,0.5,0.1,0.7c0,0.3,0,0.6,0,0.9v2.7c0,0.2,0,0.4,0.1,0.6
			c0.1,0.2,0.2,0.3,0.5,0.3c0.1,0,0.2,0,0.2,0c0,0,0.1,0,0.2,0V363.5z M196.5,360.5v-0.6c-0.1,0-0.3,0.1-0.6,0.1s-0.5,0.1-0.8,0.1
			c-0.3,0-0.5,0.1-0.8,0.2c-0.2,0.1-0.4,0.1-0.6,0.2c-0.1,0-0.1,0.1-0.2,0.1c-0.1,0.1-0.2,0.1-0.3,0.2c-0.1,0.1-0.2,0.2-0.3,0.3
			c-0.1,0.1-0.1,0.3-0.1,0.5c0,0.3,0.1,0.5,0.3,0.8s0.6,0.4,1.1,0.4c0.2,0,0.4,0,0.6-0.1c0.2,0,0.5-0.2,0.7-0.3s0.4-0.4,0.6-0.7
			C196.5,361.3,196.5,361,196.5,360.5z"></path>
		<path d="M206.6,363.6v-4.9c0-0.3,0-0.5-0.1-0.7c-0.1-0.2-0.2-0.4-0.4-0.5c-0.2-0.1-0.3-0.2-0.5-0.3c-0.2-0.1-0.4-0.1-0.6-0.1
			c-0.3,0-0.5,0-0.8,0.1c-0.2,0.1-0.5,0.2-0.6,0.4c-0.2,0.2-0.3,0.4-0.4,0.7c-0.1,0.3-0.2,0.6-0.2,0.9v4.5h-1.3V356h1.3v1.1
			c0.1-0.1,0.2-0.3,0.3-0.4c0.1-0.2,0.3-0.3,0.5-0.4c0.2-0.1,0.4-0.2,0.7-0.3c0.3-0.1,0.6-0.1,0.9-0.1c0.1,0,0.2,0,0.4,0
			c0.2,0,0.4,0.1,0.6,0.1c0.2,0.1,0.4,0.2,0.6,0.3s0.4,0.3,0.6,0.6c0.2,0.3,0.3,0.6,0.4,1c0,0.3,0.1,0.7,0.1,1v4.8H206.6z"></path>
		<path d="M218.8,352.3v4.8c0.3-0.4,0.7-0.8,1.1-1c0.5-0.2,0.9-0.3,1.5-0.3c0.5,0,0.9,0.1,1.4,0.3c0.4,0.2,0.8,0.4,1.1,0.8
			c0.3,0.3,0.6,0.8,0.7,1.3s0.3,1.1,0.3,1.7c0,0.6-0.1,1.1-0.2,1.6c-0.1,0.5-0.4,0.9-0.6,1.3s-0.7,0.6-1.1,0.9
			c-0.4,0.2-1,0.3-1.5,0.3c-0.4,0-0.7,0-1-0.1c-0.3-0.1-0.5-0.2-0.7-0.3c-0.2-0.1-0.4-0.3-0.5-0.4c-0.1-0.1-0.3-0.3-0.3-0.4v1h-1.3
			v-11.3H218.8z M218.7,359.8c0,0.3,0,0.7,0.1,1c0.1,0.3,0.2,0.7,0.4,0.9c0.2,0.3,0.4,0.5,0.7,0.7c0.3,0.2,0.7,0.3,1.1,0.3
			c0.2,0,0.5,0,0.8-0.1c0.3-0.1,0.5-0.2,0.8-0.5s0.4-0.5,0.6-0.9c0.1-0.4,0.2-0.9,0.2-1.5c0-0.4-0.1-0.8-0.2-1.2
			c-0.1-0.3-0.3-0.6-0.5-0.8c-0.2-0.2-0.5-0.4-0.7-0.5s-0.6-0.2-0.9-0.2c-0.3,0-0.5,0-0.8,0.1c-0.3,0.1-0.5,0.2-0.8,0.5
			c-0.2,0.2-0.4,0.5-0.6,0.9C218.8,358.8,218.7,359.3,218.7,359.8z"></path>
		<path d="M233,363.6v-1.2c-0.3,0.4-0.6,0.7-1.1,1c-0.5,0.2-0.9,0.4-1.4,0.4c-0.1,0-0.2,0-0.3,0c-0.2,0-0.3-0.1-0.6-0.1
			c-0.2-0.1-0.4-0.2-0.6-0.3c-0.2-0.1-0.4-0.3-0.5-0.6c-0.2-0.3-0.3-0.6-0.3-0.9c0-0.3-0.1-0.6-0.1-1V356h1.3v4.3c0,0.4,0,0.7,0,0.9
			c0,0.2,0.1,0.4,0.2,0.6c0.1,0.2,0.2,0.3,0.4,0.5c0.2,0.2,0.5,0.2,0.9,0.2c0.1,0,0.2,0,0.3,0c0.1,0,0.3-0.1,0.5-0.1
			c0.2-0.1,0.3-0.1,0.5-0.3c0.2-0.1,0.3-0.3,0.5-0.5c0.2-0.3,0.3-0.6,0.3-0.9c0-0.3,0-0.6,0-0.9V356h1.3v7.5H233z"></path>
		<path d="M239.3,356v1.4c0.2-0.4,0.4-0.6,0.7-0.9c0.1-0.1,0.4-0.2,0.7-0.4c0.3-0.1,0.7-0.2,1.2-0.2v1.4c-0.2,0-0.3,0-0.5,0
			c-0.5,0-0.9,0.1-1.2,0.4c-0.4,0.2-0.6,0.6-0.7,1.1c-0.1,0.2-0.1,0.4-0.1,0.6s0,0.5,0,0.8v3.5H238V356H239.3z"></path>
		<path d="M249.6,363.6v-4.9c0-0.3,0-0.5-0.1-0.7c-0.1-0.2-0.2-0.4-0.4-0.5c-0.2-0.1-0.3-0.2-0.5-0.3c-0.2-0.1-0.4-0.1-0.6-0.1
			c-0.3,0-0.5,0-0.8,0.1c-0.2,0.1-0.5,0.2-0.6,0.4c-0.2,0.2-0.3,0.4-0.4,0.7c-0.1,0.3-0.2,0.6-0.2,0.9v4.5h-1.3V356h1.3v1.1
			c0.1-0.1,0.2-0.3,0.3-0.4c0.1-0.2,0.3-0.3,0.5-0.4c0.2-0.1,0.4-0.2,0.7-0.3c0.3-0.1,0.6-0.1,0.9-0.1c0.1,0,0.2,0,0.4,0
			c0.2,0,0.4,0.1,0.6,0.1c0.2,0.1,0.4,0.2,0.6,0.3s0.4,0.3,0.6,0.6c0.2,0.3,0.3,0.6,0.4,1c0,0.3,0.1,0.7,0.1,1v4.8H249.6z"></path>
		<path d="M254.5,363.6v-1.8h1.6v1.8H254.5z"></path>
	</g>
	<g>
		<g>
			<polygon points="171.9,134.2 108.4,89.6 97.8,82.7 98.4,81.9 109,88.7 172.5,133.3"></polygon>
			<rect height="0.6" width="1.1" transform="matrix(0.5756 -0.8177 0.8177 0.5756 -37.0492 203.4414)" y="137.1" x="176.9"></rect>
			<path d="M200.1,152l-17.2-10.2l-2.2-1.5l0.6-0.9l2.1,1.5l16.4,9.7c0.7-1,2.6-4.1,2.2-7.3c-0.2-1.8-1.2-3.4-2.9-4.7
				c-6.3-4.7-11.4-0.3-11.6-0.1l-0.3,0.3l-10.7-7.6l0.6-0.9l10,7.1c1.3-1,6.5-4.2,12.6,0.4c1.9,1.4,3.1,3.3,3.4,5.4
				c0.6,4.3-2.6,8.3-2.7,8.4L200.1,152L200.1,152z"></path>
			<polygon points="164.7,122.8 110.9,84.5 77.8,59.3 75.2,61.2 74.6,60.3 77.8,58 111.5,83.7 165.3,121.9"></polygon>
			<path d="M199.4,148.4l-0.9-0.5c1.1-2.3,1.8-5.5-1.6-7.8c-1.7-1.2-3.9-2.1-7.4,0.1l-0.6-0.9c4.1-2.5,6.8-1.2,8.5,0
				C200.6,141.4,201.3,144.6,199.4,148.4L199.4,148.4z"></path>
			<path d="M84.1,90.9c-6.7,0-13.1-4.1-15.7-10.7c-2.6-6.6-0.7-14.2,4.8-18.8l4.1-2.9l0.6,0.8l-4,2.9c-5.1,4.3-6.8,11.4-4.4,17.6
				c3.1,8.1,12.2,12.1,20.3,9c3.3-1.3,6.1-3.6,7.9-6.7l0.3-0.5l0.5,0.4l-0.3,0.4l0.4,0.2c-1.9,3.3-4.8,5.8-8.4,7.2
				C88.2,90.5,86.1,90.9,84.1,90.9L84.1,90.9z"></path>
			<path d="M83.3,85.5c-4.8,0-9.2-2.9-10.9-7.7l0,0c-1.8-4.9,0-10.5,4.4-13.5l0.3-0.2L94.8,78l-0.2,0.4c-1.3,2.6-4.6,5.5-7.3,6.5
				C86,85.3,84.6,85.5,83.3,85.5z M73.4,77.5c2,5.5,8,8.3,13.5,6.4c2.4-0.9,5.2-3.3,6.6-5.6L77.1,65.5
				C73.3,68.2,71.8,73.1,73.4,77.5L73.4,77.5z"></path>
			<path d="M114.5,58.3L101,40.7l0.2-0.3c3.3-4.2,8.9-5.6,13.7-3.5c5.9,2.6,8.5,9.4,6,15.3l0,0c-1.2,2.7-3.3,4.8-6.1,6L114.5,58.3
				L114.5,58.3z M102.3,40.7l12.5,16.3c2.3-1.1,4.1-3,5.2-5.3l0,0c2.3-5.3-0.1-11.5-5.4-13.9C110.3,36,105.4,37.2,102.3,40.7
				L102.3,40.7z"></path>
			<path d="M192,160.4l-20-18.6l-0.3-11.2l-58.3-66L94.8,40.4l3.3-4.3c5.2-5.6,13.4-7,20.1-3.5c7.5,4,10.9,12.9,7.8,20.9
				c-1.4,3.6-3.9,6.6-7.2,8.5l57.8,65.3c0.3,0.3,0.4,0.7,0.5,1.1l0.6,8.8l0.1,0.1l-0.7,0.8l-0.4-0.4l-0.6-9.2c0-0.2-0.1-0.3-0.2-0.5
				l-58.3-65.8l-0.4-0.5l0.6-0.3c3.3-1.8,5.9-4.7,7.3-8.2c2.9-7.4-0.3-15.8-7.3-19.5c-6.3-3.3-14-2-18.8,3.2l-2.7,3.6l18,23.6
				l58.5,66.2l0.3,11.2l19,17.6l3.4-3l-15.1-14.9l0.7-0.8l3.6,3.5l12.4,12.2L192,160.4L192,160.4z M114.5,58.3L101,40.7l0.2-0.3
				c3.3-4.2,8.9-5.6,13.7-3.5l0,0c2.8,1.2,5,3.5,6.2,6.4c1.1,2.9,1.1,6-0.2,8.9c-1.2,2.7-3.3,4.8-6.1,6L114.5,58.3L114.5,58.3z
				 M102.3,40.7l12.5,16.3c2.3-1.1,4.1-3,5.2-5.3c1.1-2.6,1.2-5.4,0.2-8.1c-1-2.6-3-4.7-5.6-5.8l0,0C110.3,36,105.4,37.2,102.3,40.7
				z"></path>
			<path d="M178.9,142c-0.1,0-0.1,0-0.2,0c-0.7-0.1-1.4-0.4-1.8-0.9c-0.5-0.5-0.7-1.2-0.6-1.9s0.4-1.4,0.9-1.8l0,0
				c0.6-0.5,1.2-0.7,1.9-0.6c0.7,0.1,1.4,0.4,1.8,0.9c0.9,1.1,0.8,2.8-0.3,3.8C180.1,141.8,179.5,142,178.9,142L178.9,142z
				 M178.9,137.7c-0.4,0-0.8,0.1-1,0.4l0,0c-0.3,0.3-0.5,0.7-0.6,1.1c0,0.4,0.1,0.9,0.4,1.2c0.3,0.3,0.7,0.5,1.1,0.6
				c0.4,0,0.9-0.1,1.2-0.4c0.3-0.3,0.5-0.7,0.6-1.1s-0.1-0.9-0.4-1.2s-0.7-0.5-1.1-0.6C179,137.7,178.9,137.7,178.9,137.7
				L178.9,137.7z"></path>
		</g>
		<g>
			<g>
				<path d="M230.8,152c-0.1-17.8-14.4-30.1-34.6-30.1c-7.3,0-14.3,2-20.2,5.7l-0.6-0.9c6.1-3.8,13.3-5.9,20.8-5.9
					c20.9,0,35.5,12.8,35.6,31.2L230.8,152L230.8,152z"></path>
				<path d="M170.1,132.3l-0.8-0.7L170.1,132.3z"></path>
				<path d="M196.2,183.2c-19.6,0-35.6-14-35.6-31.2c0-7.5,3.1-14.7,8.7-20.4l0.8,0.7c-5.4,5.5-8.4,12.4-8.4,19.6
					c0,16.6,15.5,30.1,34.6,30.1s34.6-13.5,34.6-30.1h1.1C231.9,169.2,215.9,183.2,196.2,183.2z"></path>
				<path d="M196.2,231c-28.5,0-32.7-21.9-32.7-22.1l-2.9-58.9l1.1-0.1l2.9,58.8c0.1,0.8,4.1,21.2,31.7,21.2s31.6-20.4,31.7-21.2
					l2.9-58.7l1.1,0.1l-2.9,58.8C228.9,209.1,224.7,231,196.2,231L196.2,231z"></path>
				<path d="M196.8,161.4c0.4-1.4,0.2-2.9-0.6-4.1v1.3c0.4-0.6,0.6-1.3,0.7-2c0.2-1,0.2-1.9,0.3-2.9
					c0.1-0.9,0.1-1.9,0.2-2.8c0-0.2,0-0.4,0.1-0.6c0,0.2,0-0.3,0.1-0.4c0-0.1,0.1-0.3,0.1-0.4c0-0.1,0.2-0.6,0.1-0.2
					c0.3-0.6,0.2-1.4-0.4-1.7c-0.6-0.3-1.4-0.2-1.7,0.4c-0.7,1.5-0.7,3.4-0.8,5.1c0,0.5-0.1,0.9-0.1,1.4c0,0.2,0,0.5-0.1,0.7
					c0,0.1,0,0.2,0,0.3c0-0.1,0,0,0,0.1c-0.1,0.4-0.1,0.8-0.2,1.1c0,0.1-0.2,0.4-0.1,0.3c0.1-0.1-0.1,0.2-0.2,0.3
					c-0.2,0.3-0.2,0.9,0,1.3c0.5,0.7,0.6,1.3,0.4,2.1C193.9,162.3,196.3,163,196.8,161.4" class="st10"></path>
				<path d="M196.3,182.9c-29.8,0-34.9-25.7-35-25.9c0-8.4,3.7-16.3,10.5-22.2l0.7,0.8c-6.5,5.7-10.1,13.2-10.1,21.3
					c0,0.1,5,25,33.9,25s34.1-24.8,34.1-25.1c-0.1-17.9-13.6-30-33.4-30c-7.1,0-13.9,1.9-19.8,5.4l-0.5-0.9c6-3.6,13-5.5,20.3-5.5
					c20.5,0,34.3,12.5,34.5,31.2C231.4,157.2,226.1,182.9,196.3,182.9L196.3,182.9z"></path>
			</g>
			<path d="M197.5,148.8c0,0-0.1-0.1-0.1-0.1c0.1,0.1,0.1,0.3,0.2,0.4C197.5,149,197.5,148.9,197.5,148.8
				c0.1,0.2,0.1,0.4,0.1,0.5c0-0.1,0-0.2,0-0.3c0,0.1,0,0.3-0.1,0.4c0-0.3,0.2-0.6,0.2-0.9c0.1-0.2,0.1-0.5,0.1-0.7
				c0-0.4-0.1-0.7-0.3-1.1c-0.2-0.4-0.5-0.8-0.9-1c-0.4-0.2-0.8-0.3-1.3-0.2c-0.2,0-0.3,0-0.5,0.1c-0.2,0.1-0.4,0.2-0.6,0.4
				c-0.4,0.3-0.6,1.1-0.4,1.6c0.1,0.4,0.2,0.6,0.5,0.9c0.1,0.1,0.3,0.3,0.5,0.4c0.3,0.2,0.6,0.3,0.9,0.3c0.4,0.1,0.7,0.1,1-0.1
				c0.5-0.2,0.9-0.5,1.2-0.9c0.3-0.4,0.4-1,0.2-1.6c-0.2-0.7-0.7-1.1-1.4-1.3c-0.4-0.1-0.9-0.1-1.3,0c-0.2,0.1-0.4,0.2-0.6,0.3
				c-0.1,0.1-0.2,0.1-0.3,0.1c0.1-0.1,0.3-0.1,0.4-0.2c-0.1,0-0.1,0-0.2,0.1c0.1,0,0.3,0,0.4-0.1c-0.1,0-0.1,0-0.1,0
				c0.1,0,0.3,0,0.4,0.1c-0.1,0-0.1,0-0.1,0c0.1,0.1,0.3,0.1,0.4,0.2c0,0-0.1,0-0.1-0.1c0.1,0.1,0.2,0.2,0.3,0.3
				c-0.1,0-0.1-0.1-0.1-0.1c0.1,0.1,0.2,0.2,0.3,0.3c0,0-0.1-0.1-0.1-0.1c0.1,0.1,0.1,0.3,0.2,0.4c0-0.1,0-0.1,0-0.1
				c0,0.1,0,0.3,0.1,0.4c0-0.1,0-0.1,0-0.1c0,0.1,0,0.3-0.1,0.4c0-0.1,0-0.1,0-0.1c-0.1,0.1-0.1,0.3-0.2,0.4c0,0,0-0.1,0.1-0.1
				c-0.1,0.1-0.2,0.2-0.3,0.3c0-0.1,0.1-0.1,0.1-0.1c-0.1,0.1-0.2,0.2-0.3,0.3c0,0,0.1-0.1,0.1-0.1c-0.1,0.1-0.3,0.1-0.4,0.2
				c0,0,0.1,0,0.1,0c-0.1,0-0.3,0-0.4,0.1c0.1,0,0.1,0,0.1,0c0.4,0,0.9-0.2,1.2-0.5c0.3-0.3,0.5-0.8,0.5-1.2c0-0.4-0.2-0.9-0.5-1.2
				c-0.3-0.3-0.7-0.5-1.2-0.5c-0.4,0-0.8,0.1-1.1,0.3c-0.4,0.2-0.6,0.5-0.9,0.8c-0.4,0.7-0.4,1.6,0,2.3c0.4,0.7,1.2,1.1,2,1.1
				c0.4,0,0.8-0.1,1.2-0.3c0.1-0.1,0.3-0.2,0.4-0.2c-0.1,0.1-0.3,0.1-0.4,0.2c0,0,0.1,0,0.1,0c-0.1,0-0.3,0-0.4,0.1c0,0,0.1,0,0.1,0
				c-0.1,0-0.3,0-0.4-0.1c0,0,0.1,0,0.1,0c-0.1-0.1-0.3-0.1-0.4-0.2c0,0,0.1,0,0.1,0.1c-0.1-0.1-0.2-0.2-0.3-0.3
				c0,0,0.1,0.1,0.1,0.1c-0.1-0.1-0.2-0.2-0.3-0.3c0,0,0,0,0,0c-0.1-0.1-0.1-0.3-0.2-0.4c0,0,0,0,0,0.1c0-0.1,0-0.3-0.1-0.4
				c0,0,0,0,0,0.1c0-0.1,0-0.3,0.1-0.4c0,0,0,0,0,0c0.1-0.1,0.1-0.3,0.2-0.4c0,0,0,0.1-0.1,0.1c0.1-0.1,0.2-0.2,0.3-0.3
				c0,0-0.1,0.1-0.1,0.1c0.1-0.1,0.2-0.2,0.3-0.3c0,0-0.1,0.1-0.1,0.1c0.1-0.1,0.3-0.1,0.4-0.2c-0.1,0-0.1,0-0.2,0.1
				c0.1,0,0.3,0,0.4-0.1c-0.1,0-0.1,0-0.2,0c0.1,0,0.3,0,0.4,0.1c-0.1,0-0.1,0-0.2-0.1c0.1,0.1,0.3,0.1,0.4,0.2
				c-0.1,0-0.1-0.1-0.2-0.1c0.1,0.1,0.2,0.2,0.3,0.3c0,0-0.1-0.1-0.1-0.1c0.1,0.1,0.2,0.2,0.3,0.3c0,0,0-0.1-0.1-0.1
				c0.1,0.1,0.1,0.3,0.2,0.4c0,0,0,0,0,0c-0.1,0.5-0.3,1.1-0.4,1.6c0,0,0,0,0,0c-0.1,0.1-0.2,0.2-0.3,0.3c0,0,0,0,0.1,0
				c-0.1,0.1-0.3,0.1-0.4,0.2c0,0,0.1,0,0.1,0c-0.1,0-0.3,0-0.4,0.1c0,0,0,0,0.1,0c-0.1,0-0.3,0-0.4-0.1c0,0,0.1,0,0.1,0
				c-0.1-0.1-0.3-0.1-0.4-0.2c0,0,0.1,0,0.1,0.1c-0.1-0.1-0.2-0.2-0.3-0.3c0,0,0.1,0.1,0.1,0.1c-0.1-0.1-0.2-0.2-0.3-0.3
				c0.1,0.1,0.1,0.2,0.1,0.2c-0.1-0.1-0.1-0.3-0.2-0.4c0,0.1,0.1,0.2,0.1,0.2c0-0.1,0-0.3-0.1-0.4c0,0.1,0,0.1,0,0.2
				c0-0.1,0-0.3,0.1-0.4c0,0.3-0.2,0.6-0.2,0.9c-0.1,0.3-0.1,0.5-0.1,0.8c0,0.4,0.1,0.8,0.4,1.2c0.3,0.4,0.6,0.6,1,0.8
				c0.4,0.1,0.9,0.1,1.3-0.2c0.4-0.2,0.7-0.6,0.8-1C197.7,149.7,197.7,149.2,197.5,148.8" class="st10"></path>
		</g>
	</g>
</g>
</svg>
