<svg xml:space="preserve" style="enable-background:new 0 0 300 413.2;" viewBox="0 0 300 413.2" y="0px" x="0px" xmlns:xlink="http://www.w3.org/1999/xlink" xmlns="http://www.w3.org/2000/svg" version="1.1">
<style type="text/css">
	.st0{display:none;}
	.st1{display:inline;}
	.st2{font-family:'AktivGroteskCorp-Regular';}
	.st3{font-size:21.02px;}
	.st4{letter-spacing:3;}
	.st5{letter-spacing:2;}
	.st6{font-family:'AkzidenzGroteskPro-Regular';}
	.st7{font-size:16px;}
	.st8{letter-spacing:1;}
	.st9{fill:#ADADAD;}
	.st10{fill:#211F20;}
	.st11{fill:none;}
	.st12{enable-background:new    ;}
</style>
<g class="st0" id="Layer_1">
	<text class="st1 st2 st3 st4" transform="matrix(1 0 0 1 76.87 281.92)">LIGH</text>
	<text class="st1 st2 st3 st5" transform="matrix(1 0 0 1 136.37 281.92)">T</text>
	<text class="st1 st2 st3 st4" transform="matrix(1 0 0 1 151.97 281.92)"> I</text>
	<text class="st1 st2 st3 st5" transform="matrix(1 0 0 1 168.22 281.92)">T</text>
	<text class="st1 st2 st3 st4" transform="matrix(1 0 0 1 183.81 281.92)"> UP</text>
	<text class="st1 st6 st7 st8" transform="matrix(1 0 0 1 60.35 316.02)">Burn until melted wax</text>
	<text class="st1 st6 st7 st8" transform="matrix(1 0 0 1 68.79 340.02)">pool spreads to the</text>
	<text class="st1 st6 st7 st8" transform="matrix(1 0 0 1 58.21 364.02)">edge of the con</text>
	<text class="st1 st6 st7 st8" transform="matrix(1 0 0 1 189.56 364.02)">t</text>
	<text class="st1 st6 st7 st8" transform="matrix(1 0 0 1 196.17 364.02)">aine</text>
	<text class="st1 st6 st7" transform="matrix(1 0 0 1 230.57 364.02)">r</text>
	<text class="st1 st6 st7 st8" transform="matrix(1 0 0 1 236.52 364.02)">.</text>
</g>
<g id="Layer_2">
	<g>
		<path d="M240.5,148.8L240.5,148.8c0-0.2,0-0.4,0-0.6c-0.1-1.9-0.3-3.7-0.8-5.4c0,0,0,0,0,0c0,0,0,0,0,0
			c-3.4-13.5-16.8-23.9-33.3-23.9s-31.4,11.2-35.1,25c0,0.1,0,0.1-0.1,0.2v0c-0.4,1.5-0.6,3-0.7,4.6l0,0c0,0.1,0,0.1,0,0.2
			c0,0.5-0.1,1-0.1,1.5c0,1.3,0.1,2.5,0.3,3.7c0.2,1.7,0.7,3.4,1.3,4.9c4.6,12.2,18.5,20.8,34.1,20.8s28.4-9.1,32.8-21.4
			c0.6-1.7,1.1-3.5,1.3-5.3l0,0c0.2-1.3,0.3-2.5,0.3-3.8C240.5,149.2,240.5,149,240.5,148.8L240.5,148.8z M207.3,142.8
			c-0.3,1.1-1,1.9-1.9,2.2c-0.1,0-0.1,0.1-0.2,0.1c-0.5,0.1-1,0.1-1.4,0c-0.4-0.1-0.7-0.4-1-0.8c-0.8-0.9-2.9-4.6,1.7-14.7
			C205.7,132,208.6,138.5,207.3,142.8L207.3,142.8z" class="st9"></path>
		<path d="M205.5,145.1v3.8h-1.7v-3.7c0.4,0.2,0.9,0.2,1.4,0C205.3,145.1,205.4,145.1,205.5,145.1z" class="st10"></path>
		<path d="M204.4,128.5c-5.4,11.3-3.3,16.4-0.6,17.2c0.5,0.2,1.1,0.1,1.6,0c0,0,0.1,0,0.1,0c1-0.3,1.9-1.2,2.4-2.6
			C209.6,137.3,204.4,128.5,204.4,128.5L204.4,128.5z M207.3,142.8c-0.3,1.1-1,1.9-1.9,2.2c-0.1,0-0.1,0.1-0.2,0.1
			c-0.5,0.1-1,0.1-1.4,0c-0.4-0.1-0.7-0.4-1-0.8c-0.8-0.9-2.9-4.6,1.7-14.7C205.7,132,208.6,138.5,207.3,142.8L207.3,142.8z" class="st11"></path>
		<path d="M204.9,128.2l-0.5-0.9l-0.4,0.9c-5.3,11.1-3.2,15.4-2,16.8c0.5,0.6,1.1,1,1.8,1.2c0.2,0.1,0.5,0.1,0.8,0.1
			c0.3,0,0.6,0,0.9-0.1c0,0,0,0,0.1,0c1.3-0.4,2.4-1.5,2.8-3C210.1,137.3,205.1,128.6,204.9,128.2L204.9,128.2z M207.3,142.8
			c-0.3,1.1-1,1.9-1.9,2.2c-0.1,0-0.1,0.1-0.2,0.1c-0.5,0.1-1,0.1-1.4,0c-0.4-0.1-0.7-0.4-1-0.8c-0.8-0.9-2.9-4.6,1.7-14.7
			C205.7,132,208.6,138.5,207.3,142.8L207.3,142.8z"></path>
		<path d="M129.8,79.8c-1.1-17.2-15.3-29-35.3-29c-18.7,0-34.1,12.8-35.3,29c0,0.2,0,0.4,0,0.7v0c0,0.4,0,0.8,0,1.3
			c0,1.3,0.1,2.7,0.3,4v0c0.3,1.8,0.7,3.5,1.3,5.2v0c1.5,4.2,4.1,8.1,7.4,11.3l0.2,0.2c6.1,5.9,14.7,9.7,24.3,10.1
			c0.3,0,0.5,0,0.8,0c0.3,0,0.7,0,1,0c0.6,0,1.2,0,1.8,0c9-0.4,17.2-3.8,23.2-9c0.4-0.3,0.8-0.7,1.2-1.1c0.1-0.1,0.2-0.2,0.2-0.2
			c3.2-3.2,5.8-6.9,7.3-11.1l0,0c0.6-1.6,1-3.2,1.3-4.8v0c0.3-1.5,0.4-3.1,0.4-4.6C129.9,81.1,129.9,80.4,129.8,79.8L129.8,79.8z
			 M120.9,100.8c-5.8,6-14.2,10.1-23.7,10.7c-0.3,0-0.6,0-0.9,0.1c-0.6,0-1.1,0-1.7,0h-0.1c-0.6,0-1.2,0-1.7,0
			c-9.3-0.4-17.7-4.1-23.6-9.7c-3.9-3.8-3.9-3.8,0,0c-4.6-4.4-7.8-10.1-8.7-16.4v0c-0.2-1.1-0.2-2.1-0.3-3.2c0-0.1,0-0.3,0-0.4
			c0-0.4,0-0.8,0-1.2v0C61,64.6,76.1,51.9,94.5,51.9s33.1,11.4,34.2,27.9v0c0,0.4,0,0.7,0.1,1.1c0,0,0,0,0,0c0,0.3,0,0.5,0,0.8
			c0,1.5-0.1,3-0.4,4.4l0,0c-0.9,5.5-3.6,10.4-7.4,14.5C121,100.7,121,100.8,120.9,100.8L120.9,100.8z"></path>
		<path d="M94.5,160.1c-28.2,0-32.4-21.7-32.5-21.9l-2.8-58.4l1-0.1l2.8,58.3c0.2,0.8,4.1,21,31.4,21s31.4-20.9,31.4-21.1l2.8-58.2
			l1.1,0.1l-2.8,58.3C126.9,138.4,122.7,160.1,94.5,160.1L94.5,160.1z"></path>
		<path d="M128.8,80.9L128.8,80.9c0-0.2-0.1-0.3-0.1-0.5l0,0c-2.9-14.9-15.7-24.5-33.6-24.5s-32,11.2-34.8,25.8v0
			c0,0.1-0.1,0.3-0.1,0.4c-0.3,1.6-0.4,3.2-0.4,4.8c0,0.1,0.2,1.3,0.9,3.1c1.1,3,3.3,7.8,7.4,12.2l0.2,0.2
			c4.9,5.2,12.6,9.7,24.3,10.1c0.3,0,0.5,0,0.8,0c0.3,0,0.7,0,1,0c0.6,0,1.2,0,1.8,0c11.7-0.4,19.4-5,24.3-10.1
			c0.1-0.1,0.2-0.2,0.2-0.2c3.9-4.2,6.2-8.7,7.3-11.7l0,0c0.8-2.2,1.1-3.6,1.1-3.6v-0.1l0-0.1C129.3,84.8,129.2,82.8,128.8,80.9
			L128.8,80.9z M120.9,100.8c-4.4,4.9-11.7,10-23.7,10.7c-0.3,0-0.6,0-0.9,0.1c-0.6,0-1.1,0-1.7,0h-0.1c-0.6,0-1.2,0-1.7,0
			c-11.4-0.4-18.8-4.8-23.6-9.7c-3.2-3.3-3.2-3.3,0,0c-6.7-6.9-8.3-14.9-8.3-15C60.9,70.4,76.3,57,95.2,57s33,12,33.1,29.8
			c-0.1,0.6-1.5,6.6-6,12.4c-0.4,0.5-0.8,1-1.2,1.5C121,100.7,121,100.8,120.9,100.8L120.9,100.8z"></path>
		<path d="M94.6,79.1V86h-1.7v-6.9c0.4,0.2,0.9,0.2,1.4,0C94.4,79.1,94.5,79.1,94.6,79.1z" class="st10"></path>
		<g>
			<path d="M93.6,62.4c0,0,5.1,8.9,3.4,14.6c-0.4,1.4-1.4,2.4-2.5,2.7C91.3,80.6,87.1,76,93.6,62.4" class="st11"></path>
			<path d="M94,62.1l-0.5-0.9l-0.4,0.9c-5.3,11.2-3.2,15.5-2,16.9c0.5,0.6,1.2,1,1.8,1.2c0.2,0.1,0.5,0.1,0.8,0.1
				c0.3,0,0.6,0,0.9-0.1c0,0,0.1,0,0.1,0c1.3-0.4,2.4-1.5,2.8-3C99.2,71.3,94.2,62.5,94,62.1z M96.5,76.8c-0.3,1.1-1,1.9-1.9,2.2
				c-0.1,0-0.2,0.1-0.2,0.1c-0.5,0.2-1,0.1-1.4,0c-0.4-0.1-0.8-0.4-1.1-0.8c-0.8-0.9-2.9-4.6,1.7-14.8
				C94.8,65.9,97.8,72.4,96.5,76.8z"></path>
		</g>
		<polygon points="152.6,135.1 152.3,134.1 158.2,132.2 139.5,122.8 140,121.8 158.7,131.3 156.7,125.4 157.7,125.1 160,132 
			160.1,132.3 160.2,132.7 159.9,132.8 159.5,132.9"></polygon>
		<path d="M205.4,222.9h-0.1c-28.2-0.1-32.4-21.8-32.4-22l-2.7-58.4l1.1-0.1l2.7,58.3c0.1,0.8,4.1,21,31.4,21.1h0.1
			c27.2,0,31.2-20.1,31.4-21l2.9-58.2l1.1,0.1l-2.9,58.3C237.8,201.3,233.5,222.9,205.4,222.9L205.4,222.9z"></path>
		<path d="M240.8,142.8L240.8,142.8C240.8,142.7,240.7,142.7,240.8,142.8c-1.1-17.2-15.3-29.1-35.2-29.1h-0.1
			c-9.4,0-18.2,3.2-24.9,9c-6.2,5.4-9.8,12.4-10.3,19.9c0,0.2,0,0.4,0,0.6l0,0c0,0.4,0,0.9,0,1.3c0,1.4,0.1,2.7,0.3,4v0
			c0,0.1,0,0.1,0,0.2l0,0c0.3,1.7,0.7,3.4,1.3,5c4.5,12.6,17.9,21.8,33.7,21.8h0.1c9.4,0,18.2-3.2,24.9-9c3.4-2.9,6-6.3,7.7-10
			c0.4-0.8,0.7-1.6,1-2.4c0.6-1.6,1-3.2,1.3-4.9c0-0.1,0-0.3,0.1-0.4v0c0.2-1.4,0.3-2.8,0.3-4.2C240.8,144,240.8,143.4,240.8,142.8z
			 M239.4,149.1L239.4,149.1c-1.1,6.3-4.4,12-9.7,16.6c-6.5,5.6-15.1,8.7-24.2,8.7h-0.1c-17.4,0-31.8-11.4-34-26.1l0,0v0
			c-0.2-1.3-0.3-2.5-0.3-3.8c0-0.1,0-0.3,0-0.4v0c0-0.3,0-0.6,0-0.9l0,0c0.4-7.5,3.9-14.4,10-19.8c6.5-5.6,15.1-8.7,24.2-8.7h0.1
			c19.3,0,33.1,11.5,34.2,28v0c0,0,0,0,0,0c0,0,0,0,0,0c0,0.6,0.1,1.2,0.1,1.8C239.8,146.2,239.6,147.7,239.4,149.1L239.4,149.1z"></path>
	</g>
	<g class="st12">
		<path d="M78.5,266.9h1.9v13.3h7.8l-0.3,1.7h-9.4V266.9z"></path>
		<path d="M93.5,266.9h1.9v15h-1.9V266.9z"></path>
		<path d="M108.5,274.2h5.6v6c-0.4,0.3-0.8,0.7-1.3,0.9c-0.5,0.3-0.9,0.5-1.4,0.7c-0.5,0.2-1,0.3-1.5,0.4s-1,0.1-1.5,0.1
			c-1.1,0-2.1-0.2-3-0.5c-0.9-0.4-1.6-0.9-2.2-1.5c-0.6-0.7-1-1.5-1.4-2.5c-0.3-1-0.5-2.1-0.5-3.3c0-1.3,0.2-2.4,0.5-3.4
			c0.3-1,0.8-1.8,1.4-2.5c0.6-0.7,1.3-1.2,2.1-1.5c0.8-0.3,1.7-0.5,2.7-0.5c0.8,0,1.6,0.1,2.2,0.3c0.6,0.2,1.2,0.5,1.6,0.9
			c0.5,0.4,0.8,0.8,1.1,1.3s0.5,1.1,0.7,1.8l-1.9,0.3c-0.1-0.4-0.3-0.8-0.5-1.2c-0.2-0.4-0.4-0.7-0.7-0.9c-0.3-0.3-0.7-0.5-1.1-0.6
			c-0.4-0.1-0.9-0.2-1.5-0.2c-0.8,0-1.5,0.2-2.1,0.5c-0.6,0.3-1.1,0.7-1.5,1.3c-0.4,0.5-0.7,1.2-0.9,2c-0.2,0.8-0.3,1.6-0.3,2.5
			c0,0.9,0.1,1.8,0.3,2.5c0.2,0.8,0.5,1.4,0.9,2c0.4,0.5,0.9,1,1.5,1.3c0.6,0.3,1.3,0.4,2.2,0.4c0.8,0,1.5-0.1,2.1-0.3
			c0.7-0.2,1.3-0.5,1.8-0.9v-3.6h-3.8V274.2z"></path>
		<path d="M120.1,266.9h1.9v6.3h7.6v-6.3h1.9v15h-1.9v-6.9H122v6.9h-1.9V266.9z"></path>
	</g>
	<g class="st12">
		<path d="M141.7,268.6h-5v-1.7h11.9v1.7h-5v13.3h-1.9V268.6z"></path>
	</g>
	<g class="st12">
		<path d="M161.5,266.9h1.9v15h-1.9V266.9z"></path>
	</g>
	<g class="st12">
		<path d="M173.6,268.6h-5v-1.7h11.9v1.7h-5v13.3h-1.9V268.6z"></path>
	</g>
	<g class="st12">
		<path d="M193.1,266.9h1.9v9.1c0,1.6,0.3,2.7,0.9,3.5c0.6,0.8,1.5,1.2,2.9,1.2c1.4,0,2.3-0.4,2.9-1.2c0.6-0.8,0.8-1.9,0.8-3.5v-9.1
			h1.9v9.1c0,1.1-0.1,2.1-0.4,2.9c-0.3,0.8-0.6,1.4-1.1,2s-1.1,0.9-1.8,1.1c-0.7,0.2-1.5,0.4-2.4,0.4c-1.8,0-3.2-0.5-4.2-1.5
			c-1-1-1.5-2.6-1.5-4.9V266.9z"></path>
		<path d="M210.8,266.9h5c1.1,0,2,0.1,2.7,0.4c0.7,0.2,1.3,0.6,1.7,1s0.7,0.9,0.9,1.4c0.2,0.5,0.2,1.1,0.2,1.7
			c0,0.6-0.1,1.2-0.3,1.8c-0.2,0.6-0.5,1.1-0.9,1.5c-0.4,0.4-1,0.8-1.7,1c-0.7,0.3-1.6,0.4-2.7,0.4h-3.1v5.8h-1.9V266.9z
			 M215.8,274.5c0.7,0,1.3-0.1,1.8-0.2c0.5-0.1,0.8-0.3,1.1-0.6c0.3-0.3,0.5-0.6,0.6-1c0.1-0.4,0.2-0.8,0.2-1.3
			c0-0.5-0.1-0.9-0.2-1.3s-0.3-0.7-0.6-0.9s-0.7-0.4-1.1-0.5c-0.5-0.1-1.1-0.2-1.8-0.2h-3.1v5.9H215.8z"></path>
	</g>
	<g class="st12">
		<path d="M61.6,304.7H67c0.4,0,0.8,0.1,1.2,0.2c0.4,0.1,0.7,0.3,1,0.6c0.3,0.2,0.5,0.5,0.7,0.9c0.2,0.4,0.3,0.8,0.3,1.2
			c0,0.6-0.2,1.1-0.5,1.5c-0.3,0.5-0.7,0.8-1.3,0.9c0.2,0.1,0.5,0.2,0.7,0.3s0.5,0.3,0.7,0.5s0.4,0.5,0.5,0.8
			c0.1,0.3,0.2,0.7,0.2,1.2c0,0.6-0.1,1.1-0.4,1.6c-0.2,0.4-0.5,0.7-0.9,1s-0.7,0.4-1.2,0.5c-0.4,0.1-0.8,0.1-1.1,0.1h-5.5V304.7z
			 M66.3,309.5c0.3,0,0.5,0,0.8-0.1c0.3,0,0.5-0.1,0.7-0.2c0.2-0.1,0.4-0.3,0.6-0.5c0.1-0.2,0.2-0.5,0.2-0.9c0-0.5-0.1-0.9-0.4-1.2
			c-0.3-0.3-0.8-0.5-1.5-0.5H63v3.4H66.3z M66.7,314.7c0.3,0,0.6,0,0.8-0.1c0.3,0,0.5-0.1,0.8-0.2c0.2-0.1,0.4-0.3,0.6-0.6
			c0.1-0.2,0.2-0.6,0.2-1c0-0.7-0.2-1.2-0.6-1.5c-0.4-0.3-1-0.5-1.7-0.5H63v3.9H66.7z"></path>
		<path d="M79,316v-1.2c-0.3,0.4-0.6,0.7-1.1,1c-0.5,0.2-0.9,0.4-1.4,0.4c-0.1,0-0.2,0-0.3,0c-0.2,0-0.3-0.1-0.6-0.1
			c-0.2-0.1-0.4-0.2-0.6-0.3c-0.2-0.1-0.4-0.3-0.5-0.6c-0.2-0.3-0.3-0.6-0.3-0.9c0-0.3-0.1-0.6-0.1-1v-4.8h1.3v4.3
			c0,0.4,0,0.7,0,0.9s0.1,0.4,0.2,0.6c0.1,0.2,0.2,0.3,0.4,0.5c0.2,0.2,0.5,0.2,0.9,0.2c0.1,0,0.2,0,0.3,0c0.1,0,0.3-0.1,0.5-0.1
			c0.2-0.1,0.3-0.1,0.5-0.3s0.3-0.3,0.5-0.5c0.2-0.3,0.3-0.6,0.3-0.9c0-0.3,0-0.6,0-0.9v-3.8h1.3v7.5H79z"></path>
		<path d="M85.2,308.5v1.4c0.2-0.4,0.4-0.6,0.7-0.9c0.1-0.1,0.4-0.2,0.7-0.4c0.3-0.1,0.7-0.2,1.2-0.2v1.4c-0.2,0-0.3,0-0.5,0
			c-0.5,0-0.9,0.1-1.2,0.4c-0.4,0.2-0.6,0.6-0.7,1.1c-0.1,0.2-0.1,0.4-0.1,0.6s0,0.5,0,0.8v3.5h-1.3v-7.5H85.2z"></path>
		<path d="M95.5,316v-4.9c0-0.3,0-0.5-0.1-0.7c-0.1-0.2-0.2-0.4-0.4-0.5c-0.2-0.1-0.3-0.2-0.5-0.3c-0.2-0.1-0.4-0.1-0.6-0.1
			c-0.3,0-0.5,0-0.8,0.1c-0.2,0.1-0.5,0.2-0.6,0.4c-0.2,0.2-0.3,0.4-0.4,0.7c-0.1,0.3-0.2,0.6-0.2,0.9v4.5h-1.3v-7.5h1.3v1.1
			c0.1-0.1,0.2-0.3,0.3-0.4s0.3-0.3,0.5-0.4c0.2-0.1,0.4-0.2,0.7-0.3c0.3-0.1,0.6-0.1,0.9-0.1c0.1,0,0.2,0,0.4,0
			c0.2,0,0.4,0.1,0.6,0.1c0.2,0.1,0.4,0.2,0.6,0.3c0.2,0.1,0.4,0.3,0.6,0.6c0.2,0.3,0.3,0.6,0.4,1s0.1,0.7,0.1,1v4.8H95.5z"></path>
		<path d="M111.4,316v-1.2c-0.3,0.4-0.6,0.7-1.1,1c-0.5,0.2-0.9,0.4-1.4,0.4c-0.1,0-0.2,0-0.3,0c-0.2,0-0.3-0.1-0.6-0.1
			c-0.2-0.1-0.4-0.2-0.6-0.3c-0.2-0.1-0.4-0.3-0.5-0.6c-0.2-0.3-0.3-0.6-0.3-0.9c0-0.3-0.1-0.6-0.1-1v-4.8h1.3v4.3
			c0,0.4,0,0.7,0,0.9s0.1,0.4,0.2,0.6c0.1,0.2,0.2,0.3,0.4,0.5c0.2,0.2,0.5,0.2,0.9,0.2c0.1,0,0.2,0,0.3,0c0.1,0,0.3-0.1,0.5-0.1
			c0.2-0.1,0.3-0.1,0.5-0.3s0.3-0.3,0.5-0.5c0.2-0.3,0.3-0.6,0.3-0.9c0-0.3,0-0.6,0-0.9v-3.8h1.3v7.5H111.4z"></path>
		<path d="M121.3,316v-4.9c0-0.3,0-0.5-0.1-0.7c-0.1-0.2-0.2-0.4-0.4-0.5c-0.2-0.1-0.3-0.2-0.5-0.3c-0.2-0.1-0.4-0.1-0.6-0.1
			c-0.3,0-0.5,0-0.8,0.1c-0.2,0.1-0.5,0.2-0.6,0.4c-0.2,0.2-0.3,0.4-0.4,0.7c-0.1,0.3-0.2,0.6-0.2,0.9v4.5h-1.3v-7.5h1.3v1.1
			c0.1-0.1,0.2-0.3,0.3-0.4s0.3-0.3,0.5-0.4c0.2-0.1,0.4-0.2,0.7-0.3c0.3-0.1,0.6-0.1,0.9-0.1c0.1,0,0.2,0,0.4,0
			c0.2,0,0.4,0.1,0.6,0.1c0.2,0.1,0.4,0.2,0.6,0.3c0.2,0.1,0.4,0.3,0.6,0.6c0.2,0.3,0.3,0.6,0.4,1s0.1,0.7,0.1,1v4.8H121.3z"></path>
		<path d="M128,314.4c0,0.3,0,0.5,0.1,0.6s0.2,0.2,0.4,0.2c0.1,0,0.2,0,0.3,0c0.1,0,0.3-0.1,0.5-0.1v1.1c-0.1,0-0.2,0-0.5,0.1
			c-0.3,0-0.5,0.1-0.7,0.1c-0.3,0-0.6,0-0.7-0.1c-0.2-0.1-0.3-0.1-0.4-0.3s-0.2-0.3-0.2-0.4c0-0.2,0-0.4,0-0.6v-5.3h-1.2v-1h1.2
			v-2.4h1.3v2.4h1.4v1H128V314.4z"></path>
		<path d="M132.6,306.2v-1.5h1.2v1.5H132.6z M132.6,316v-7.5h1.2v7.5H132.6z"></path>
		<path d="M137.5,316v-11.3h1.2V316H137.5z"></path>
		<path d="M157.3,316v-5c0-0.3,0-0.6-0.1-0.8c-0.1-0.2-0.2-0.4-0.4-0.5c-0.1-0.1-0.3-0.2-0.4-0.2c-0.2,0-0.3-0.1-0.4-0.1
			c-0.2,0-0.4,0-0.5,0.1c-0.2,0.1-0.3,0.2-0.5,0.3c-0.2,0.1-0.3,0.2-0.4,0.4c-0.1,0.1-0.2,0.3-0.3,0.5c0,0.1-0.1,0.3-0.1,0.4
			c0,0.2,0,0.4,0,0.7v4.2h-1.3v-4.9c0-0.4-0.1-0.7-0.2-0.9s-0.2-0.4-0.4-0.5c-0.1-0.1-0.3-0.2-0.5-0.2c-0.2,0-0.3,0-0.4,0
			c-0.2,0-0.3,0-0.5,0.1c-0.2,0.1-0.4,0.1-0.5,0.2c-0.2,0.1-0.3,0.2-0.4,0.4s-0.2,0.3-0.3,0.5c-0.1,0.1-0.1,0.2-0.1,0.4
			c0,0.1,0,0.3,0,0.6v4.5h-1.2v-7.5h1.2v1c0.3-0.4,0.6-0.7,1-0.9c0.4-0.2,0.8-0.4,1.3-0.4c0.1,0,0.2,0,0.3,0s0.2,0,0.4,0.1
			c0.1,0,0.3,0.1,0.5,0.2c0.2,0.1,0.3,0.2,0.5,0.4c0.1,0.1,0.2,0.2,0.2,0.3c0.1,0.1,0.1,0.2,0.2,0.4c0.1-0.1,0.2-0.2,0.4-0.4
			c0.2-0.2,0.3-0.3,0.5-0.5c0.2-0.1,0.4-0.3,0.7-0.4c0.2-0.1,0.5-0.2,0.9-0.2c0.2,0,0.4,0,0.6,0.1c0.2,0.1,0.4,0.1,0.5,0.2
			c0.1,0.1,0.3,0.2,0.4,0.3s0.2,0.2,0.2,0.2c0.2,0.3,0.4,0.6,0.4,0.9s0.1,0.7,0.1,1v5H157.3z"></path>
		<path d="M163.2,312.6c0,0.3,0,0.6,0.1,0.9c0.1,0.3,0.2,0.6,0.4,0.9c0.2,0.3,0.4,0.5,0.8,0.7c0.3,0.2,0.7,0.3,1.1,0.3
			c0.3,0,0.6-0.1,0.9-0.2c0.2-0.1,0.4-0.3,0.6-0.4s0.3-0.4,0.4-0.6s0.1-0.4,0.2-0.6l1.3,0.2c0,0.1-0.1,0.3-0.2,0.6
			c-0.1,0.3-0.3,0.6-0.6,0.9c-0.3,0.3-0.6,0.5-1,0.8c-0.4,0.2-0.9,0.3-1.6,0.3c-0.5,0-0.9-0.1-1.4-0.2c-0.4-0.1-0.8-0.4-1.2-0.7
			c-0.3-0.3-0.6-0.7-0.8-1.3c-0.2-0.5-0.3-1.1-0.3-1.9c0-0.7,0.1-1.3,0.4-1.8c0.2-0.5,0.5-0.9,0.9-1.2s0.8-0.5,1.2-0.7
			c0.4-0.1,0.8-0.2,1.2-0.2c0.4,0,0.8,0.1,1.2,0.2c0.4,0.1,0.8,0.4,1.1,0.7c0.3,0.3,0.6,0.7,0.8,1.2c0.2,0.5,0.3,1.1,0.3,1.9v0.2
			L163.2,312.6L163.2,312.6z M167.6,311.6c0-0.3-0.1-0.6-0.2-0.9c-0.1-0.3-0.3-0.5-0.4-0.7c-0.2-0.2-0.4-0.4-0.7-0.5
			s-0.6-0.2-0.9-0.2c-0.3,0-0.6,0.1-0.9,0.2c-0.3,0.1-0.5,0.3-0.6,0.5s-0.3,0.5-0.4,0.7s-0.2,0.6-0.2,0.9H167.6z"></path>
		<path d="M172.3,316v-11.3h1.2V316H172.3z"></path>
		<path d="M178.9,314.4c0,0.3,0,0.5,0.1,0.6c0.1,0.1,0.2,0.2,0.4,0.2c0.1,0,0.2,0,0.3,0c0.1,0,0.3-0.1,0.5-0.1v1.1
			c-0.1,0-0.2,0-0.5,0.1c-0.3,0-0.5,0.1-0.7,0.1c-0.3,0-0.6,0-0.7-0.1c-0.2-0.1-0.3-0.1-0.4-0.3s-0.2-0.3-0.2-0.4c0-0.2,0-0.4,0-0.6
			v-5.3h-1.2v-1h1.2v-2.4h1.3v2.4h1.4v1h-1.4V314.4z"></path>
		<path d="M184.4,312.6c0,0.3,0,0.6,0.1,0.9c0.1,0.3,0.2,0.6,0.4,0.9c0.2,0.3,0.4,0.5,0.8,0.7c0.3,0.2,0.7,0.3,1.1,0.3
			c0.3,0,0.6-0.1,0.9-0.2c0.2-0.1,0.4-0.3,0.6-0.4c0.2-0.2,0.3-0.4,0.4-0.6c0.1-0.2,0.1-0.4,0.2-0.6l1.3,0.2c0,0.1-0.1,0.3-0.2,0.6
			c-0.1,0.3-0.3,0.6-0.6,0.9s-0.6,0.5-1,0.8c-0.4,0.2-0.9,0.3-1.6,0.3c-0.5,0-0.9-0.1-1.4-0.2c-0.4-0.1-0.8-0.4-1.2-0.7
			c-0.3-0.3-0.6-0.7-0.8-1.3c-0.2-0.5-0.3-1.1-0.3-1.9c0-0.7,0.1-1.3,0.4-1.8c0.2-0.5,0.5-0.9,0.9-1.2s0.7-0.5,1.2-0.7
			c0.4-0.1,0.8-0.2,1.2-0.2c0.4,0,0.8,0.1,1.2,0.2c0.4,0.1,0.8,0.4,1.1,0.7c0.3,0.3,0.6,0.7,0.8,1.2c0.2,0.5,0.3,1.1,0.3,1.9v0.2
			L184.4,312.6L184.4,312.6z M188.7,311.6c0-0.3-0.1-0.6-0.2-0.9c-0.1-0.3-0.3-0.5-0.4-0.7c-0.2-0.2-0.4-0.4-0.7-0.5
			c-0.3-0.1-0.6-0.2-0.9-0.2c-0.3,0-0.6,0.1-0.9,0.2s-0.5,0.3-0.6,0.5c-0.2,0.2-0.3,0.5-0.4,0.7c-0.1,0.3-0.2,0.6-0.2,0.9H188.7z"></path>
		<path d="M199,316v-1c-0.1,0.1-0.2,0.2-0.4,0.4s-0.3,0.3-0.5,0.4c-0.2,0.1-0.5,0.2-0.7,0.3c-0.3,0.1-0.6,0.1-1,0.1
			c-0.6,0-1-0.1-1.5-0.3c-0.4-0.2-0.8-0.5-1.1-0.8c-0.3-0.4-0.5-0.8-0.7-1.3c-0.2-0.5-0.2-1-0.2-1.6c0-0.7,0.1-1.4,0.3-1.9
			c0.2-0.5,0.5-0.9,0.8-1.2s0.7-0.5,1.1-0.7c0.4-0.1,0.8-0.2,1.2-0.2c0.3,0,0.7,0,0.9,0.1c0.3,0.1,0.5,0.2,0.8,0.3
			c0.2,0.1,0.4,0.3,0.6,0.4c0.1,0.1,0.3,0.3,0.3,0.4v-4.8h1.3V316H199z M194.3,312.3c0,0.3,0,0.7,0.1,1c0.1,0.3,0.2,0.6,0.4,0.9
			c0.2,0.3,0.4,0.5,0.7,0.7c0.3,0.2,0.7,0.3,1.1,0.3c0.3,0,0.6,0,0.8-0.1c0.3-0.1,0.5-0.3,0.8-0.5c0.2-0.2,0.4-0.5,0.5-0.9
			c0.1-0.4,0.2-0.9,0.2-1.4c0-0.4-0.1-0.7-0.2-1.1c-0.1-0.3-0.3-0.6-0.5-0.9c-0.2-0.2-0.4-0.4-0.7-0.6c-0.3-0.1-0.6-0.2-1-0.2
			c-0.4,0-0.8,0.1-1.1,0.2c-0.3,0.2-0.5,0.4-0.7,0.6c-0.2,0.3-0.3,0.6-0.4,0.9C194.4,311.6,194.3,311.9,194.3,312.3z"></path>
		<path d="M217.6,316h-1.1l-1.8-5.6l-1.8,5.6h-1.2l-2.6-7.5h1.4l1.9,5.6l1.9-5.6h1.1l1.8,5.6l2-5.6h1.3L217.6,316z"></path>
		<path d="M229.9,316c-0.2,0.1-0.4,0.1-0.5,0.1c-0.1,0-0.2,0-0.3,0c0,0-0.1,0-0.3,0c-0.2,0-0.3-0.1-0.5-0.2
			c-0.2-0.1-0.3-0.3-0.4-0.5c-0.1-0.2-0.1-0.3-0.2-0.5c-0.1,0.1-0.2,0.2-0.3,0.4c-0.1,0.1-0.3,0.3-0.5,0.4c-0.2,0.1-0.5,0.2-0.7,0.3
			c-0.3,0.1-0.6,0.1-1,0.1c-0.4,0-0.7-0.1-1-0.2c-0.3-0.1-0.6-0.2-0.8-0.4c-0.2-0.2-0.4-0.4-0.5-0.7s-0.2-0.6-0.2-0.9
			c0-0.1,0-0.2,0-0.3c0-0.1,0.1-0.3,0.1-0.4c0.1-0.1,0.1-0.3,0.2-0.4c0.1-0.2,0.3-0.3,0.4-0.4c0.2-0.1,0.4-0.3,0.7-0.4
			c0.2-0.1,0.5-0.2,0.8-0.3c0.3-0.1,0.6-0.1,0.8-0.2c0.3,0,0.5-0.1,0.8-0.1l1.2-0.1v-0.3c0-0.2,0-0.4,0-0.6s-0.1-0.5-0.2-0.7
			c-0.1-0.2-0.3-0.4-0.5-0.5c-0.2-0.1-0.6-0.2-1-0.2c-0.5,0-0.9,0.1-1.2,0.4s-0.4,0.6-0.4,1.1v0.1l-1.3-0.1c0-0.1,0-0.3,0.1-0.5
			c0.1-0.3,0.2-0.5,0.4-0.8s0.5-0.5,0.9-0.8c0.4-0.2,0.9-0.3,1.6-0.3c0.2,0,0.5,0,0.9,0.1c0.4,0.1,0.7,0.2,1,0.4
			c0.3,0.1,0.5,0.3,0.6,0.5s0.3,0.4,0.3,0.6c0.1,0.2,0.1,0.5,0.1,0.7c0,0.3,0,0.6,0,0.9v2.7c0,0.2,0,0.4,0.1,0.6
			c0.1,0.2,0.2,0.3,0.5,0.3c0.1,0,0.2,0,0.2,0c0,0,0.1,0,0.2,0V316z M227.7,312.9v-0.6c-0.1,0-0.3,0.1-0.6,0.1s-0.5,0.1-0.8,0.1
			c-0.3,0-0.5,0.1-0.8,0.2c-0.2,0.1-0.4,0.1-0.6,0.2c-0.1,0-0.1,0.1-0.2,0.1c-0.1,0.1-0.2,0.1-0.3,0.2c-0.1,0.1-0.2,0.2-0.3,0.3
			c-0.1,0.1-0.1,0.3-0.1,0.5c0,0.3,0.1,0.5,0.3,0.8s0.6,0.4,1.1,0.4c0.2,0,0.4,0,0.6-0.1c0.2,0,0.5-0.2,0.7-0.3s0.4-0.4,0.6-0.7
			C227.6,313.8,227.7,313.4,227.7,312.9z"></path>
		<path d="M236.5,316l-1.6-2.7l-1.6,2.7h-1.4l2.3-3.8l-2.2-3.7h1.4l1.5,2.6l1.5-2.6h1.4l-2.3,3.7l2.3,3.8H236.5z"></path>
	</g>
	<g class="st12">
		<path d="M71.1,332.5v1.1c0.1-0.1,0.2-0.3,0.4-0.4c0.2-0.2,0.4-0.3,0.6-0.4c0.2-0.1,0.5-0.2,0.8-0.3c0.3-0.1,0.6-0.1,0.9-0.1
			c0.4,0,0.8,0.1,1.2,0.2s0.8,0.4,1.1,0.7c0.3,0.3,0.6,0.8,0.8,1.3c0.2,0.5,0.3,1.1,0.3,1.8c0,0.4-0.1,0.9-0.2,1.4
			c-0.1,0.5-0.3,0.9-0.6,1.3s-0.6,0.7-1.1,1c-0.4,0.2-1,0.4-1.7,0.4c-0.5,0-0.9-0.1-1.4-0.3c-0.5-0.2-0.8-0.5-1.1-0.8v4.5h-1.3
			v-11.1H71.1z M71.1,336.4c0,0.9,0.2,1.5,0.6,2c0.4,0.5,1,0.7,1.7,0.7c0.8,0,1.4-0.3,1.8-0.8s0.6-1.2,0.6-2.1
			c0-0.5-0.1-0.9-0.2-1.3c-0.1-0.4-0.3-0.6-0.5-0.9s-0.5-0.4-0.7-0.5s-0.5-0.2-0.8-0.2c-0.7,0-1.3,0.3-1.8,0.8
			C71.3,334.7,71.1,335.5,71.1,336.4z"></path>
		<path d="M80,336.2c0-0.3,0-0.7,0.1-1.1c0.1-0.5,0.3-0.9,0.5-1.3s0.7-0.8,1.2-1.1c0.5-0.3,1.2-0.5,2-0.5c0.4,0,0.9,0.1,1.3,0.2
			s0.8,0.4,1.2,0.7c0.3,0.3,0.6,0.7,0.8,1.2s0.3,1.1,0.3,1.8s-0.1,1.3-0.3,1.8c-0.2,0.5-0.5,0.9-0.8,1.3c-0.3,0.3-0.7,0.6-1.2,0.8
			c-0.4,0.2-0.9,0.3-1.4,0.3c-0.5,0-1-0.1-1.5-0.3c-0.4-0.2-0.8-0.4-1.2-0.8s-0.6-0.8-0.8-1.2S80,336.9,80,336.2z M81.4,336.3
			c0,0.2,0,0.5,0.1,0.8c0,0.3,0.2,0.6,0.3,1c0.2,0.3,0.4,0.6,0.7,0.8c0.3,0.2,0.7,0.3,1.2,0.3c0.8,0,1.3-0.3,1.7-0.8
			s0.6-1.3,0.6-2.3c0-0.3,0-0.6-0.1-1s-0.2-0.6-0.4-0.9c-0.2-0.3-0.4-0.5-0.7-0.7c-0.3-0.2-0.6-0.3-1.1-0.3c-0.6,0-1.1,0.1-1.4,0.4
			c-0.3,0.3-0.6,0.6-0.7,0.9c-0.1,0.4-0.2,0.7-0.3,1C81.4,336,81.4,336.2,81.4,336.3z"></path>
		<path d="M90.3,336.2c0-0.3,0-0.7,0.1-1.1c0.1-0.5,0.3-0.9,0.5-1.3s0.7-0.8,1.2-1.1c0.5-0.3,1.2-0.5,2-0.5c0.4,0,0.9,0.1,1.3,0.2
			s0.8,0.4,1.2,0.7c0.3,0.3,0.6,0.7,0.8,1.2s0.3,1.1,0.3,1.8s-0.1,1.3-0.3,1.8c-0.2,0.5-0.5,0.9-0.8,1.3c-0.3,0.3-0.7,0.6-1.2,0.8
			c-0.4,0.2-0.9,0.3-1.4,0.3c-0.5,0-1-0.1-1.5-0.3c-0.4-0.2-0.8-0.4-1.2-0.8s-0.6-0.8-0.8-1.2S90.3,336.9,90.3,336.2z M91.7,336.3
			c0,0.2,0,0.5,0.1,0.8c0,0.3,0.2,0.6,0.3,1c0.2,0.3,0.4,0.6,0.7,0.8c0.3,0.2,0.7,0.3,1.2,0.3c0.8,0,1.3-0.3,1.7-0.8
			s0.6-1.3,0.6-2.3c0-0.3,0-0.6-0.1-1s-0.2-0.6-0.4-0.9c-0.2-0.3-0.4-0.5-0.7-0.7c-0.3-0.2-0.6-0.3-1.1-0.3c-0.6,0-1.1,0.1-1.4,0.4
			c-0.3,0.3-0.6,0.6-0.7,0.9c-0.1,0.4-0.2,0.7-0.3,1C91.7,336,91.7,336.2,91.7,336.3z"></path>
		<path d="M101,340v-11.3h1.2V340H101z"></path>
		<path d="M112.7,337.4c0,0.2,0,0.5,0.1,0.7c0,0.2,0.2,0.4,0.3,0.6c0.2,0.2,0.5,0.4,0.8,0.5c0.3,0.1,0.6,0.1,0.9,0.1
			c0.2,0,0.3,0,0.5,0c0.2,0,0.4-0.1,0.6-0.2c0.2-0.1,0.3-0.2,0.5-0.4c0.1-0.2,0.2-0.4,0.2-0.6c0-0.2-0.1-0.4-0.2-0.6
			c-0.1-0.1-0.2-0.3-0.4-0.3c-0.1-0.1-0.3-0.1-0.5-0.2s-0.4-0.1-0.5-0.1l-0.7-0.1c-0.5-0.1-0.9-0.2-1.3-0.4
			c-0.3-0.1-0.6-0.3-0.8-0.5c-0.2-0.2-0.4-0.4-0.4-0.6c-0.1-0.2-0.1-0.5-0.1-0.7c0-0.4,0.1-0.8,0.3-1c0.2-0.3,0.4-0.5,0.7-0.7
			c0.3-0.2,0.6-0.3,0.9-0.4s0.7-0.1,1-0.1c0.4,0,0.7,0,1.1,0.1c0.3,0.1,0.6,0.2,0.8,0.3c0.2,0.1,0.4,0.3,0.6,0.4
			c0.2,0.2,0.3,0.3,0.4,0.4c0.1,0.2,0.2,0.5,0.3,0.7s0.1,0.4,0.1,0.5l-1.4,0.2c0-0.2,0-0.3,0-0.4c0-0.1,0-0.2-0.1-0.3
			c-0.1-0.1-0.1-0.2-0.2-0.3c-0.1-0.1-0.2-0.2-0.4-0.3c-0.2-0.1-0.3-0.2-0.6-0.2c-0.2-0.1-0.5-0.1-0.7-0.1c-0.3,0-0.5,0-0.7,0.1
			c-0.2,0.1-0.3,0.2-0.5,0.3s-0.2,0.2-0.3,0.4c-0.1,0.1-0.1,0.3-0.1,0.4c0,0.3,0.2,0.6,0.5,0.7c0.3,0.2,0.8,0.3,1.3,0.4l0.7,0.2
			c0.4,0.1,0.7,0.2,1,0.3c0.3,0.1,0.6,0.2,0.8,0.4s0.4,0.4,0.5,0.6c0.1,0.2,0.2,0.5,0.2,0.9c0,0.4-0.1,0.7-0.2,1
			c-0.2,0.3-0.4,0.5-0.7,0.8c-0.3,0.2-0.6,0.4-1,0.5c-0.4,0.1-0.8,0.2-1.2,0.2c-0.6,0-1.1-0.1-1.5-0.2s-0.8-0.3-1-0.6
			s-0.5-0.5-0.6-0.8c-0.1-0.3-0.2-0.7-0.3-1L112.7,337.4z"></path>
		<path d="M122.4,332.5v1.1c0.1-0.1,0.2-0.3,0.4-0.4c0.2-0.2,0.4-0.3,0.6-0.4c0.2-0.1,0.5-0.2,0.8-0.3c0.3-0.1,0.6-0.1,0.9-0.1
			c0.4,0,0.8,0.1,1.2,0.2s0.8,0.4,1.1,0.7c0.3,0.3,0.6,0.8,0.8,1.3c0.2,0.5,0.3,1.1,0.3,1.8c0,0.4-0.1,0.9-0.2,1.4
			c-0.1,0.5-0.3,0.9-0.6,1.3s-0.6,0.7-1.1,1c-0.4,0.2-1,0.4-1.7,0.4c-0.5,0-0.9-0.1-1.4-0.3c-0.5-0.2-0.8-0.5-1.1-0.8v4.5h-1.3
			v-11.1H122.4z M122.4,336.4c0,0.9,0.2,1.5,0.6,2c0.4,0.5,1,0.7,1.7,0.7c0.8,0,1.4-0.3,1.8-0.8s0.6-1.2,0.6-2.1
			c0-0.5-0.1-0.9-0.2-1.3c-0.1-0.4-0.3-0.6-0.5-0.9s-0.5-0.4-0.7-0.5s-0.5-0.2-0.8-0.2c-0.7,0-1.3,0.3-1.8,0.8
			C122.6,334.7,122.4,335.5,122.4,336.4z"></path>
		<path d="M133,332.5v1.4c0.2-0.4,0.4-0.6,0.7-0.9c0.1-0.1,0.4-0.2,0.7-0.4c0.3-0.1,0.7-0.2,1.2-0.2v1.4c-0.2,0-0.3,0-0.5,0
			c-0.5,0-0.9,0.1-1.2,0.4c-0.4,0.2-0.6,0.6-0.7,1.1c-0.1,0.2-0.1,0.4-0.1,0.6s0,0.5,0,0.8v3.5h-1.3v-7.5H133z"></path>
		<path d="M139.3,336.6c0,0.3,0,0.6,0.1,0.9c0.1,0.3,0.2,0.6,0.4,0.9c0.2,0.3,0.4,0.5,0.8,0.7c0.3,0.2,0.7,0.3,1.1,0.3
			c0.3,0,0.6-0.1,0.9-0.2c0.2-0.1,0.4-0.3,0.6-0.4c0.2-0.2,0.3-0.4,0.4-0.6c0.1-0.2,0.1-0.4,0.2-0.6l1.3,0.2c0,0.1-0.1,0.3-0.2,0.6
			c-0.1,0.3-0.3,0.6-0.6,0.9c-0.3,0.3-0.6,0.5-1,0.8s-0.9,0.3-1.6,0.3c-0.5,0-0.9-0.1-1.4-0.2c-0.4-0.1-0.8-0.4-1.2-0.7
			s-0.6-0.7-0.8-1.3c-0.2-0.5-0.3-1.1-0.3-1.9c0-0.7,0.1-1.3,0.4-1.8c0.2-0.5,0.5-0.9,0.9-1.2s0.7-0.5,1.2-0.7
			c0.4-0.1,0.8-0.2,1.2-0.2c0.4,0,0.8,0.1,1.2,0.2c0.4,0.1,0.8,0.4,1.1,0.7c0.3,0.3,0.6,0.7,0.8,1.2c0.2,0.5,0.3,1.1,0.3,1.9v0.2
			L139.3,336.6L139.3,336.6z M143.6,335.6c0-0.3-0.1-0.6-0.2-0.9c-0.1-0.3-0.3-0.5-0.4-0.7c-0.2-0.2-0.4-0.4-0.7-0.5
			c-0.3-0.1-0.6-0.2-0.9-0.2c-0.3,0-0.6,0.1-0.9,0.2c-0.3,0.1-0.5,0.3-0.6,0.5c-0.2,0.2-0.3,0.5-0.4,0.7c-0.1,0.3-0.2,0.6-0.2,0.9
			H143.6z"></path>
		<path d="M155,340c-0.2,0.1-0.4,0.1-0.5,0.1c-0.1,0-0.2,0-0.3,0c0,0-0.1,0-0.3,0c-0.2,0-0.3-0.1-0.5-0.2c-0.2-0.1-0.3-0.3-0.4-0.5
			c-0.1-0.2-0.1-0.3-0.2-0.5c-0.1,0.1-0.2,0.2-0.3,0.4c-0.1,0.1-0.3,0.3-0.5,0.4c-0.2,0.1-0.5,0.2-0.7,0.3c-0.3,0.1-0.6,0.1-1,0.1
			c-0.4,0-0.7-0.1-1-0.2c-0.3-0.1-0.6-0.2-0.8-0.4c-0.2-0.2-0.4-0.4-0.5-0.7s-0.2-0.6-0.2-0.9c0-0.1,0-0.2,0-0.3
			c0-0.1,0.1-0.3,0.1-0.4c0.1-0.1,0.1-0.3,0.2-0.4c0.1-0.2,0.3-0.3,0.4-0.4c0.2-0.1,0.4-0.3,0.7-0.4c0.3-0.1,0.5-0.2,0.8-0.3
			c0.3-0.1,0.6-0.1,0.8-0.2c0.3,0,0.5-0.1,0.8-0.1l1.2-0.1v-0.3c0-0.2,0-0.4,0-0.6s-0.1-0.5-0.2-0.7c-0.1-0.2-0.3-0.4-0.5-0.5
			s-0.6-0.2-1-0.2c-0.5,0-0.9,0.1-1.2,0.4c-0.3,0.3-0.4,0.6-0.4,1.1v0.1l-1.3-0.1c0-0.1,0-0.3,0.1-0.5c0.1-0.3,0.2-0.5,0.4-0.8
			s0.5-0.5,0.9-0.8c0.4-0.2,0.9-0.3,1.6-0.3c0.2,0,0.5,0,0.9,0.1c0.4,0.1,0.7,0.2,1,0.4c0.3,0.1,0.5,0.3,0.6,0.5
			c0.2,0.2,0.3,0.4,0.3,0.6c0.1,0.2,0.1,0.5,0.1,0.7c0,0.3,0,0.6,0,0.9v2.7c0,0.2,0,0.4,0.1,0.6c0.1,0.2,0.2,0.3,0.5,0.3
			c0.1,0,0.2,0,0.2,0c0,0,0.1,0,0.2,0V340z M152.7,336.9v-0.6c-0.1,0-0.3,0.1-0.6,0.1c-0.2,0-0.5,0.1-0.8,0.1s-0.5,0.1-0.8,0.2
			c-0.2,0.1-0.4,0.1-0.6,0.2c-0.1,0-0.1,0.1-0.2,0.1c-0.1,0.1-0.2,0.1-0.3,0.2c-0.1,0.1-0.2,0.2-0.3,0.3c-0.1,0.1-0.1,0.3-0.1,0.5
			c0,0.3,0.1,0.5,0.3,0.8s0.6,0.4,1.1,0.4c0.2,0,0.4,0,0.6-0.1c0.2,0,0.5-0.2,0.7-0.3c0.2-0.2,0.4-0.4,0.6-0.7
			C152.7,337.8,152.7,337.4,152.7,336.9z"></path>
		<path d="M163.5,340v-1c-0.1,0.1-0.2,0.2-0.4,0.4s-0.3,0.3-0.5,0.4c-0.2,0.1-0.5,0.2-0.7,0.3c-0.3,0.1-0.6,0.1-1,0.1
			c-0.6,0-1-0.1-1.5-0.3c-0.4-0.2-0.8-0.5-1.1-0.8c-0.3-0.4-0.5-0.8-0.7-1.3c-0.2-0.5-0.2-1-0.2-1.6c0-0.7,0.1-1.4,0.3-1.9
			c0.2-0.5,0.5-0.9,0.8-1.2s0.7-0.5,1.1-0.7c0.4-0.1,0.8-0.2,1.2-0.2c0.3,0,0.7,0,0.9,0.1c0.3,0.1,0.5,0.2,0.8,0.3
			c0.2,0.1,0.4,0.3,0.6,0.4c0.1,0.1,0.3,0.3,0.3,0.4v-4.8h1.3V340H163.5z M158.8,336.3c0,0.3,0,0.7,0.1,1c0.1,0.3,0.2,0.6,0.4,0.9
			c0.2,0.3,0.4,0.5,0.7,0.7c0.3,0.2,0.7,0.3,1.1,0.3c0.3,0,0.6,0,0.8-0.1c0.3-0.1,0.5-0.3,0.8-0.5c0.2-0.2,0.4-0.5,0.5-0.9
			c0.1-0.4,0.2-0.9,0.2-1.4c0-0.4-0.1-0.7-0.2-1.1c-0.1-0.3-0.3-0.6-0.5-0.9c-0.2-0.2-0.4-0.4-0.7-0.6c-0.3-0.1-0.6-0.2-1-0.2
			c-0.4,0-0.8,0.1-1.1,0.2c-0.3,0.2-0.5,0.4-0.7,0.6c-0.2,0.3-0.3,0.6-0.4,0.9C158.8,335.6,158.8,335.9,158.8,336.3z"></path>
		<path d="M169.3,337.4c0,0.2,0,0.5,0.1,0.7c0,0.2,0.2,0.4,0.3,0.6c0.2,0.2,0.5,0.4,0.8,0.5s0.6,0.1,0.9,0.1c0.2,0,0.3,0,0.5,0
			s0.4-0.1,0.6-0.2s0.3-0.2,0.5-0.4c0.1-0.2,0.2-0.4,0.2-0.6c0-0.2-0.1-0.4-0.2-0.6c-0.1-0.1-0.2-0.3-0.4-0.3
			c-0.1-0.1-0.3-0.1-0.5-0.2s-0.4-0.1-0.5-0.1l-0.7-0.1c-0.5-0.1-0.9-0.2-1.3-0.4c-0.3-0.1-0.6-0.3-0.8-0.5
			c-0.2-0.2-0.4-0.4-0.4-0.6c-0.1-0.2-0.1-0.5-0.1-0.7c0-0.4,0.1-0.8,0.3-1c0.2-0.3,0.4-0.5,0.7-0.7c0.3-0.2,0.6-0.3,0.9-0.4
			s0.7-0.1,1-0.1c0.4,0,0.7,0,1.1,0.1c0.3,0.1,0.6,0.2,0.8,0.3c0.2,0.1,0.4,0.3,0.6,0.4c0.2,0.2,0.3,0.3,0.4,0.4
			c0.1,0.2,0.2,0.5,0.3,0.7s0.1,0.4,0.1,0.5l-1.4,0.2c0-0.2,0-0.3,0-0.4c0-0.1,0-0.2-0.1-0.3c-0.1-0.1-0.1-0.2-0.2-0.3
			s-0.2-0.2-0.4-0.3c-0.2-0.1-0.3-0.2-0.6-0.2s-0.5-0.1-0.7-0.1c-0.3,0-0.5,0-0.7,0.1c-0.2,0.1-0.3,0.2-0.5,0.3
			c-0.1,0.1-0.2,0.2-0.3,0.4c-0.1,0.1-0.1,0.3-0.1,0.4c0,0.3,0.2,0.6,0.5,0.7s0.8,0.3,1.3,0.4l0.7,0.2c0.4,0.1,0.7,0.2,1,0.3
			c0.3,0.1,0.6,0.2,0.8,0.4s0.4,0.4,0.5,0.6c0.1,0.2,0.2,0.5,0.2,0.9c0,0.4-0.1,0.7-0.2,1c-0.2,0.3-0.4,0.5-0.7,0.8
			c-0.3,0.2-0.6,0.4-1,0.5c-0.4,0.1-0.8,0.2-1.2,0.2c-0.6,0-1.1-0.1-1.5-0.2c-0.4-0.1-0.8-0.3-1-0.6c-0.3-0.2-0.5-0.5-0.6-0.8
			c-0.1-0.3-0.2-0.7-0.3-1L169.3,337.4z"></path>
		<path d="M185.3,338.4c0,0.3,0,0.5,0.1,0.6c0.1,0.1,0.2,0.2,0.4,0.2c0.1,0,0.2,0,0.3,0c0.1,0,0.3-0.1,0.5-0.1v1.1
			c-0.1,0-0.2,0-0.5,0.1c-0.3,0-0.5,0.1-0.7,0.1c-0.3,0-0.6,0-0.7-0.1c-0.2-0.1-0.3-0.1-0.4-0.3s-0.2-0.3-0.2-0.4c0-0.2,0-0.4,0-0.6
			v-5.3h-1.2v-1h1.2v-2.4h1.3v2.4h1.4v1h-1.4V338.4z"></path>
		<path d="M189.5,336.2c0-0.3,0-0.7,0.1-1.1c0.1-0.5,0.3-0.9,0.5-1.3c0.3-0.4,0.7-0.8,1.2-1.1c0.5-0.3,1.2-0.5,2-0.5
			c0.4,0,0.9,0.1,1.3,0.2c0.4,0.2,0.8,0.4,1.2,0.7c0.3,0.3,0.6,0.7,0.8,1.2s0.3,1.1,0.3,1.8s-0.1,1.3-0.3,1.8
			c-0.2,0.5-0.5,0.9-0.8,1.3c-0.3,0.3-0.7,0.6-1.2,0.8c-0.4,0.2-0.9,0.3-1.4,0.3c-0.5,0-1-0.1-1.5-0.3c-0.4-0.2-0.8-0.4-1.2-0.8
			c-0.3-0.3-0.6-0.8-0.8-1.2S189.5,336.9,189.5,336.2z M190.9,336.3c0,0.2,0,0.5,0.1,0.8c0,0.3,0.2,0.6,0.3,1
			c0.2,0.3,0.4,0.6,0.7,0.8c0.3,0.2,0.7,0.3,1.2,0.3c0.8,0,1.3-0.3,1.7-0.8s0.6-1.3,0.6-2.3c0-0.3,0-0.6-0.1-1s-0.2-0.6-0.4-0.9
			c-0.2-0.3-0.4-0.5-0.7-0.7c-0.3-0.2-0.6-0.3-1.1-0.3c-0.6,0-1.1,0.1-1.4,0.4c-0.3,0.3-0.6,0.6-0.7,0.9c-0.1,0.4-0.2,0.7-0.3,1
			C190.9,336,190.9,336.2,190.9,336.3z"></path>
		<path d="M207.8,338.4c0,0.3,0,0.5,0.1,0.6c0.1,0.1,0.2,0.2,0.4,0.2c0.1,0,0.2,0,0.3,0c0.1,0,0.3-0.1,0.5-0.1v1.1
			c-0.1,0-0.2,0-0.5,0.1s-0.5,0.1-0.7,0.1c-0.3,0-0.6,0-0.7-0.1c-0.2-0.1-0.3-0.1-0.4-0.3s-0.2-0.3-0.2-0.4c0-0.2,0-0.4,0-0.6v-5.3
			h-1.2v-1h1.2v-2.4h1.3v2.4h1.4v1h-1.4V338.4z"></path>
		<path d="M217.4,340v-4.4c0-0.2,0-0.4,0-0.6c0-0.2-0.1-0.4-0.1-0.6c-0.1-0.3-0.3-0.6-0.6-0.8s-0.6-0.2-0.9-0.2c-0.1,0-0.2,0-0.3,0
			c-0.1,0-0.3,0.1-0.4,0.1c-0.2,0.1-0.3,0.2-0.5,0.3s-0.3,0.3-0.4,0.5c-0.2,0.3-0.3,0.6-0.3,1s0,0.7,0,1v3.7h-1.3v-11.3h1.3v4.5
			c0.2-0.2,0.4-0.4,0.6-0.6c0.2-0.1,0.4-0.2,0.6-0.3c0.2-0.1,0.4-0.1,0.6-0.1s0.3,0,0.5,0c0.6,0,1,0.1,1.4,0.3
			c0.4,0.2,0.6,0.4,0.8,0.7c0.2,0.3,0.3,0.6,0.4,0.9c0.1,0.3,0.1,0.7,0.1,1v4.9H217.4z"></path>
		<path d="M223.3,336.6c0,0.3,0,0.6,0.1,0.9c0.1,0.3,0.2,0.6,0.4,0.9c0.2,0.3,0.4,0.5,0.8,0.7c0.3,0.2,0.7,0.3,1.1,0.3
			c0.3,0,0.6-0.1,0.9-0.2c0.2-0.1,0.4-0.3,0.6-0.4c0.2-0.2,0.3-0.4,0.4-0.6c0.1-0.2,0.1-0.4,0.2-0.6l1.3,0.2c0,0.1-0.1,0.3-0.2,0.6
			c-0.1,0.3-0.3,0.6-0.6,0.9s-0.6,0.5-1,0.8c-0.4,0.2-0.9,0.3-1.6,0.3c-0.5,0-0.9-0.1-1.4-0.2c-0.4-0.1-0.8-0.4-1.2-0.7
			c-0.3-0.3-0.6-0.7-0.8-1.3c-0.2-0.5-0.3-1.1-0.3-1.9c0-0.7,0.1-1.3,0.4-1.8c0.2-0.5,0.5-0.9,0.9-1.2s0.7-0.5,1.2-0.7
			c0.4-0.1,0.8-0.2,1.2-0.2c0.4,0,0.8,0.1,1.2,0.2c0.4,0.1,0.8,0.4,1.1,0.7c0.3,0.3,0.6,0.7,0.8,1.2c0.2,0.5,0.3,1.1,0.3,1.9v0.2
			L223.3,336.6L223.3,336.6z M227.6,335.6c0-0.3-0.1-0.6-0.2-0.9c-0.1-0.3-0.3-0.5-0.4-0.7c-0.2-0.2-0.4-0.4-0.7-0.5
			c-0.3-0.1-0.6-0.2-0.9-0.2c-0.3,0-0.6,0.1-0.9,0.2s-0.5,0.3-0.6,0.5c-0.2,0.2-0.3,0.5-0.4,0.7c-0.1,0.3-0.2,0.6-0.2,0.9H227.6z"></path>
	</g>
	<g class="st12">
		<path d="M60.2,360.6c0,0.3,0,0.6,0.1,0.9c0.1,0.3,0.2,0.6,0.4,0.9c0.2,0.3,0.4,0.5,0.8,0.7c0.3,0.2,0.7,0.3,1.1,0.3
			c0.3,0,0.6-0.1,0.9-0.2c0.2-0.1,0.4-0.3,0.6-0.4c0.2-0.2,0.3-0.4,0.4-0.6c0.1-0.2,0.1-0.4,0.2-0.6l1.3,0.2c0,0.1-0.1,0.3-0.2,0.6
			c-0.1,0.3-0.3,0.6-0.6,0.9c-0.3,0.3-0.6,0.5-1,0.8s-0.9,0.3-1.6,0.3c-0.5,0-0.9-0.1-1.4-0.2c-0.4-0.1-0.8-0.4-1.2-0.7
			s-0.6-0.7-0.8-1.3c-0.2-0.5-0.3-1.1-0.3-1.9c0-0.7,0.1-1.3,0.4-1.8c0.2-0.5,0.5-0.9,0.9-1.2s0.7-0.5,1.2-0.7
			c0.4-0.1,0.8-0.2,1.2-0.2c0.4,0,0.8,0.1,1.2,0.2c0.4,0.1,0.8,0.4,1.1,0.7c0.3,0.3,0.6,0.7,0.8,1.2c0.2,0.5,0.3,1.1,0.3,1.9v0.2
			L60.2,360.6L60.2,360.6z M64.5,359.6c0-0.3-0.1-0.6-0.2-0.9c-0.1-0.3-0.3-0.5-0.4-0.7c-0.2-0.2-0.4-0.4-0.7-0.5
			c-0.3-0.1-0.6-0.2-0.9-0.2c-0.3,0-0.6,0.1-0.9,0.2c-0.3,0.1-0.5,0.3-0.6,0.5c-0.2,0.2-0.3,0.5-0.4,0.7c-0.1,0.3-0.2,0.6-0.2,0.9
			H64.5z"></path>
		<path d="M74.8,364v-1c-0.1,0.1-0.2,0.2-0.4,0.4s-0.3,0.3-0.5,0.4c-0.2,0.1-0.5,0.2-0.7,0.3c-0.3,0.1-0.6,0.1-1,0.1
			c-0.6,0-1-0.1-1.5-0.3c-0.4-0.2-0.8-0.5-1.1-0.8s-0.5-0.8-0.7-1.3s-0.2-1-0.2-1.6c0-0.7,0.1-1.4,0.3-1.9c0.2-0.5,0.5-0.9,0.8-1.2
			s0.7-0.5,1.1-0.7c0.4-0.1,0.8-0.2,1.2-0.2c0.3,0,0.7,0,0.9,0.1c0.3,0.1,0.5,0.2,0.8,0.3s0.4,0.3,0.6,0.4c0.1,0.1,0.3,0.3,0.3,0.4
			v-4.8h1.3V364H74.8z M70.1,360.3c0,0.3,0,0.7,0.1,1c0.1,0.3,0.2,0.6,0.4,0.9c0.2,0.3,0.4,0.5,0.7,0.7c0.3,0.2,0.7,0.3,1.1,0.3
			c0.3,0,0.6,0,0.8-0.1s0.5-0.3,0.8-0.5c0.2-0.2,0.4-0.5,0.5-0.9c0.1-0.4,0.2-0.9,0.2-1.4c0-0.4-0.1-0.7-0.2-1.1
			c-0.1-0.3-0.3-0.6-0.5-0.9c-0.2-0.2-0.4-0.4-0.7-0.6c-0.3-0.1-0.6-0.2-1-0.2c-0.4,0-0.8,0.1-1.1,0.2c-0.3,0.2-0.5,0.4-0.7,0.6
			s-0.3,0.6-0.4,0.9S70.1,359.9,70.1,360.3z"></path>
		<path d="M86.7,364.2c0,0.7-0.1,1.3-0.3,1.7c-0.2,0.5-0.5,0.8-0.8,1.1c-0.3,0.3-0.7,0.5-1.1,0.6s-0.9,0.2-1.3,0.2
			c-0.4,0-0.9-0.1-1.2-0.2c-0.4-0.1-0.7-0.3-1.1-0.5c-0.3-0.2-0.6-0.5-0.8-0.9c-0.2-0.4-0.3-0.8-0.4-1.2h1.4c0,0.6,0.2,1,0.6,1.3
			c0.4,0.3,0.9,0.4,1.5,0.4c0.8,0,1.3-0.2,1.6-0.6c0.3-0.4,0.4-1,0.4-1.7v-1.5c-0.2,0.3-0.4,0.5-0.7,0.7c-0.2,0.2-0.5,0.3-0.7,0.4
			c-0.2,0.1-0.4,0.2-0.6,0.2c-0.2,0-0.4,0-0.5,0c-0.5,0-0.9-0.1-1.4-0.3c-0.4-0.2-0.8-0.4-1.1-0.8c-0.3-0.3-0.6-0.8-0.8-1.2
			c-0.2-0.5-0.3-1.1-0.3-1.7c0-0.4,0.1-0.9,0.2-1.4c0.1-0.5,0.3-0.9,0.6-1.3s0.6-0.7,1.1-1c0.5-0.3,1-0.4,1.7-0.4
			c0.9,0,1.7,0.4,2.5,1.3v-1h1.3V364.2z M85.4,360.1c0-0.9-0.2-1.5-0.7-2c-0.4-0.5-1-0.7-1.7-0.7c-0.3,0-0.6,0.1-0.9,0.2
			c-0.3,0.1-0.5,0.3-0.7,0.5c-0.2,0.2-0.4,0.5-0.5,0.9s-0.2,0.8-0.2,1.2c0,0.4,0,0.8,0.1,1.1s0.2,0.6,0.4,0.9
			c0.2,0.3,0.4,0.5,0.7,0.6c0.3,0.1,0.7,0.2,1.1,0.2c0.4,0,0.8-0.1,1.1-0.2c0.3-0.2,0.5-0.4,0.7-0.6c0.2-0.3,0.3-0.6,0.4-0.9
			S85.4,360.5,85.4,360.1z"></path>
		<path d="M91.3,360.6c0,0.3,0,0.6,0.1,0.9c0.1,0.3,0.2,0.6,0.4,0.9c0.2,0.3,0.4,0.5,0.8,0.7c0.3,0.2,0.7,0.3,1.1,0.3
			c0.3,0,0.6-0.1,0.9-0.2c0.2-0.1,0.4-0.3,0.6-0.4c0.2-0.2,0.3-0.4,0.4-0.6c0.1-0.2,0.1-0.4,0.2-0.6l1.3,0.2c0,0.1-0.1,0.3-0.2,0.6
			c-0.1,0.3-0.3,0.6-0.6,0.9c-0.3,0.3-0.6,0.5-1,0.8s-0.9,0.3-1.6,0.3c-0.5,0-0.9-0.1-1.4-0.2c-0.4-0.1-0.8-0.4-1.2-0.7
			s-0.6-0.7-0.8-1.3c-0.2-0.5-0.3-1.1-0.3-1.9c0-0.7,0.1-1.3,0.4-1.8c0.2-0.5,0.5-0.9,0.9-1.2s0.7-0.5,1.2-0.7
			c0.4-0.1,0.8-0.2,1.2-0.2c0.4,0,0.8,0.1,1.2,0.2c0.4,0.1,0.8,0.4,1.1,0.7c0.3,0.3,0.6,0.7,0.8,1.2c0.2,0.5,0.3,1.1,0.3,1.9v0.2
			L91.3,360.6L91.3,360.6z M95.7,359.6c0-0.3-0.1-0.6-0.2-0.9c-0.1-0.3-0.3-0.5-0.4-0.7c-0.2-0.2-0.4-0.4-0.7-0.5
			c-0.3-0.1-0.6-0.2-0.9-0.2c-0.3,0-0.6,0.1-0.9,0.2c-0.3,0.1-0.5,0.3-0.6,0.5c-0.2,0.2-0.3,0.5-0.4,0.7c-0.1,0.3-0.2,0.6-0.2,0.9
			H95.7z"></path>
		<path d="M105.8,360.2c0-0.3,0-0.7,0.1-1.1c0.1-0.5,0.3-0.9,0.5-1.3s0.7-0.8,1.2-1.1c0.5-0.3,1.2-0.5,2-0.5c0.4,0,0.9,0.1,1.3,0.2
			s0.8,0.4,1.2,0.7c0.3,0.3,0.6,0.7,0.8,1.2s0.3,1.1,0.3,1.8s-0.1,1.3-0.3,1.8c-0.2,0.5-0.5,0.9-0.8,1.3c-0.3,0.3-0.7,0.6-1.2,0.8
			c-0.4,0.2-0.9,0.3-1.4,0.3c-0.5,0-1-0.1-1.5-0.3c-0.4-0.2-0.8-0.4-1.2-0.8s-0.6-0.8-0.8-1.2S105.8,360.9,105.8,360.2z
			 M107.2,360.3c0,0.2,0,0.5,0.1,0.8c0,0.3,0.2,0.6,0.3,1c0.2,0.3,0.4,0.6,0.7,0.8c0.3,0.2,0.7,0.3,1.2,0.3c0.8,0,1.3-0.3,1.7-0.8
			s0.6-1.3,0.6-2.3c0-0.3,0-0.6-0.1-1s-0.2-0.6-0.4-0.9c-0.2-0.3-0.4-0.5-0.7-0.7c-0.3-0.2-0.6-0.3-1.1-0.3c-0.6,0-1.1,0.1-1.4,0.4
			c-0.3,0.3-0.6,0.6-0.7,0.9c-0.1,0.4-0.2,0.7-0.3,1C107.2,360,107.2,360.2,107.2,360.3z"></path>
		<path d="M119.6,356.5v1h-1.4v6.5h-1.3v-6.5h-1.2v-1h1.2v-0.7c0-0.3,0-0.5,0-0.7c0-0.2,0-0.4,0-0.5s0-0.3,0.1-0.4s0.1-0.3,0.1-0.4
			c0.1-0.3,0.2-0.5,0.4-0.6c0.2-0.1,0.4-0.2,0.5-0.3c0.2-0.1,0.4-0.1,0.5-0.1c0.2,0,0.3,0,0.3,0c0.1,0,0.2,0,0.4,0s0.4,0,0.6,0.1v1
			c0,0-0.1,0-0.3,0c-0.2,0-0.3,0-0.4,0c-0.3,0-0.6,0.1-0.7,0.3c-0.2,0.2-0.2,0.5-0.2,0.9v1.4H119.6z"></path>
		<path d="M130.1,362.4c0,0.3,0,0.5,0.1,0.6s0.2,0.2,0.4,0.2c0.1,0,0.2,0,0.3,0c0.1,0,0.3-0.1,0.5-0.1v1.1c-0.1,0-0.2,0-0.5,0.1
			c-0.3,0-0.5,0.1-0.7,0.1c-0.3,0-0.6,0-0.7-0.1c-0.2-0.1-0.3-0.1-0.4-0.3s-0.2-0.3-0.2-0.4c0-0.2,0-0.4,0-0.6v-5.3h-1.2v-1h1.2
			v-2.4h1.3v2.4h1.4v1h-1.4V362.4z"></path>
		<path d="M139.6,364v-4.4c0-0.2,0-0.4,0-0.6c0-0.2-0.1-0.4-0.1-0.6c-0.1-0.3-0.3-0.6-0.6-0.8s-0.6-0.2-0.9-0.2c-0.1,0-0.2,0-0.3,0
			s-0.3,0.1-0.4,0.1c-0.2,0.1-0.3,0.2-0.5,0.3c-0.2,0.1-0.3,0.3-0.4,0.5c-0.2,0.3-0.3,0.6-0.3,1c0,0.3,0,0.7,0,1v3.7h-1.3v-11.3h1.3
			v4.5c0.2-0.2,0.4-0.4,0.6-0.6c0.2-0.1,0.4-0.2,0.6-0.3c0.2-0.1,0.4-0.1,0.6-0.1c0.2,0,0.3,0,0.5,0c0.6,0,1,0.1,1.4,0.3
			c0.4,0.2,0.6,0.4,0.8,0.7c0.2,0.3,0.3,0.6,0.4,0.9c0.1,0.3,0.1,0.7,0.1,1v4.9H139.6z"></path>
		<path d="M145.6,360.6c0,0.3,0,0.6,0.1,0.9c0.1,0.3,0.2,0.6,0.4,0.9c0.2,0.3,0.4,0.5,0.8,0.7c0.3,0.2,0.7,0.3,1.1,0.3
			c0.3,0,0.6-0.1,0.9-0.2c0.2-0.1,0.4-0.3,0.6-0.4c0.2-0.2,0.3-0.4,0.4-0.6c0.1-0.2,0.1-0.4,0.2-0.6l1.3,0.2c0,0.1-0.1,0.3-0.2,0.6
			c-0.1,0.3-0.3,0.6-0.6,0.9c-0.3,0.3-0.6,0.5-1,0.8s-0.9,0.3-1.6,0.3c-0.5,0-0.9-0.1-1.4-0.2c-0.4-0.1-0.8-0.4-1.2-0.7
			s-0.6-0.7-0.8-1.3c-0.2-0.5-0.3-1.1-0.3-1.9c0-0.7,0.1-1.3,0.4-1.8c0.2-0.5,0.5-0.9,0.9-1.2s0.7-0.5,1.2-0.7
			c0.4-0.1,0.8-0.2,1.2-0.2c0.4,0,0.8,0.1,1.2,0.2c0.4,0.1,0.8,0.4,1.1,0.7c0.3,0.3,0.6,0.7,0.8,1.2c0.2,0.5,0.3,1.1,0.3,1.9v0.2
			L145.6,360.6L145.6,360.6z M149.9,359.6c0-0.3-0.1-0.6-0.2-0.9c-0.1-0.3-0.3-0.5-0.4-0.7c-0.2-0.2-0.4-0.4-0.7-0.5
			c-0.3-0.1-0.6-0.2-0.9-0.2c-0.3,0-0.6,0.1-0.9,0.2c-0.3,0.1-0.5,0.3-0.6,0.5c-0.2,0.2-0.3,0.5-0.4,0.7c-0.1,0.3-0.2,0.6-0.2,0.9
			H149.9z"></path>
		<path d="M167.4,361.3c-0.1,0.5-0.3,1-0.5,1.4s-0.5,0.7-0.8,0.9c-0.3,0.2-0.7,0.4-1.1,0.5c-0.4,0.1-0.8,0.2-1.2,0.2
			c-0.6,0-1.1-0.1-1.6-0.3c-0.5-0.2-0.9-0.5-1.2-0.8c-0.3-0.3-0.6-0.8-0.7-1.2s-0.2-1-0.2-1.6c0-0.6,0.1-1.1,0.2-1.6
			s0.4-0.9,0.7-1.3s0.7-0.7,1.1-0.9c0.5-0.2,1-0.3,1.6-0.3c0.6,0,1.1,0.1,1.5,0.2c0.4,0.2,0.8,0.4,1,0.6s0.5,0.5,0.7,0.8
			s0.3,0.6,0.3,0.8l-1.4,0.1c-0.1-0.6-0.3-1-0.7-1.3c-0.3-0.3-0.8-0.4-1.4-0.4c-0.3,0-0.6,0-0.8,0.2c-0.3,0.1-0.5,0.3-0.7,0.5
			s-0.4,0.6-0.5,0.9c-0.1,0.4-0.2,0.9-0.2,1.4c0,0.9,0.2,1.6,0.6,2.2c0.4,0.6,1,0.8,1.8,0.8c0.4,0,0.7-0.1,0.9-0.2
			c0.3-0.1,0.5-0.2,0.6-0.4s0.3-0.4,0.4-0.7c0.1-0.3,0.2-0.5,0.2-0.8L167.4,361.3z"></path>
		<path d="M170,360.2c0-0.3,0-0.7,0.1-1.1c0.1-0.5,0.3-0.9,0.5-1.3c0.3-0.4,0.7-0.8,1.2-1.1c0.5-0.3,1.2-0.5,2-0.5
			c0.4,0,0.9,0.1,1.3,0.2c0.4,0.2,0.8,0.4,1.2,0.7c0.3,0.3,0.6,0.7,0.8,1.2s0.3,1.1,0.3,1.8s-0.1,1.3-0.3,1.8
			c-0.2,0.5-0.5,0.9-0.8,1.3c-0.3,0.3-0.7,0.6-1.2,0.8c-0.4,0.2-0.9,0.3-1.4,0.3c-0.5,0-1-0.1-1.5-0.3c-0.4-0.2-0.8-0.4-1.2-0.8
			c-0.3-0.3-0.6-0.8-0.8-1.2S170,360.9,170,360.2z M171.4,360.3c0,0.2,0,0.5,0.1,0.8c0,0.3,0.2,0.6,0.3,1c0.2,0.3,0.4,0.6,0.7,0.8
			c0.3,0.2,0.7,0.3,1.2,0.3c0.8,0,1.3-0.3,1.7-0.8s0.6-1.3,0.6-2.3c0-0.3,0-0.6-0.1-1s-0.2-0.6-0.4-0.9c-0.2-0.3-0.4-0.5-0.7-0.7
			c-0.3-0.2-0.6-0.3-1.1-0.3c-0.6,0-1.1,0.1-1.4,0.4c-0.3,0.3-0.6,0.6-0.7,0.9c-0.1,0.4-0.2,0.7-0.3,1
			C171.4,360,171.4,360.2,171.4,360.3z"></path>
		<path d="M185.6,364v-4.9c0-0.3,0-0.5-0.1-0.7c-0.1-0.2-0.2-0.4-0.4-0.5c-0.2-0.1-0.3-0.2-0.5-0.3c-0.2-0.1-0.4-0.1-0.6-0.1
			c-0.3,0-0.5,0-0.8,0.1c-0.2,0.1-0.5,0.2-0.6,0.4c-0.2,0.2-0.3,0.4-0.4,0.7c-0.1,0.3-0.2,0.6-0.2,0.9v4.5h-1.3v-7.5h1.3v1.1
			c0.1-0.1,0.2-0.3,0.3-0.4c0.1-0.2,0.3-0.3,0.5-0.4c0.2-0.1,0.4-0.2,0.7-0.3c0.3-0.1,0.6-0.1,0.9-0.1c0.1,0,0.2,0,0.4,0
			c0.2,0,0.4,0.1,0.6,0.1c0.2,0.1,0.4,0.2,0.6,0.3s0.4,0.3,0.6,0.6c0.2,0.3,0.3,0.6,0.4,1c0,0.3,0.1,0.7,0.1,1v4.8H185.6z"></path>
	</g>
	<g class="st12">
		<path d="M192.3,362.4c0,0.3,0,0.5,0.1,0.6c0.1,0.1,0.2,0.2,0.4,0.2c0.1,0,0.2,0,0.3,0c0.1,0,0.3-0.1,0.5-0.1v1.1
			c-0.1,0-0.2,0-0.5,0.1c-0.3,0-0.5,0.1-0.7,0.1c-0.3,0-0.6,0-0.7-0.1c-0.2-0.1-0.3-0.1-0.4-0.3s-0.2-0.3-0.2-0.4c0-0.2,0-0.4,0-0.6
			v-5.3h-1.2v-1h1.2v-2.4h1.3v2.4h1.4v1h-1.4V362.4z"></path>
	</g>
	<g class="st12">
		<path d="M204,364c-0.2,0.1-0.4,0.1-0.5,0.1c-0.1,0-0.2,0-0.3,0c0,0-0.1,0-0.3,0c-0.2,0-0.3-0.1-0.5-0.2c-0.2-0.1-0.3-0.3-0.4-0.5
			c-0.1-0.2-0.1-0.3-0.2-0.5c-0.1,0.1-0.2,0.2-0.3,0.4c-0.1,0.1-0.3,0.3-0.5,0.4c-0.2,0.1-0.5,0.2-0.7,0.3c-0.3,0.1-0.6,0.1-1,0.1
			c-0.4,0-0.7-0.1-1-0.2c-0.3-0.1-0.6-0.2-0.8-0.4c-0.2-0.2-0.4-0.4-0.5-0.7s-0.2-0.6-0.2-0.9c0-0.1,0-0.2,0-0.3
			c0-0.1,0.1-0.3,0.1-0.4c0.1-0.1,0.1-0.3,0.2-0.4c0.1-0.2,0.2-0.3,0.4-0.4c0.2-0.1,0.4-0.3,0.7-0.4c0.3-0.1,0.5-0.2,0.8-0.3
			s0.6-0.1,0.8-0.2c0.3,0,0.5-0.1,0.8-0.1l1.2-0.1v-0.3c0-0.2,0-0.4,0-0.6s-0.1-0.5-0.2-0.7c-0.1-0.2-0.3-0.4-0.5-0.5
			s-0.6-0.2-1-0.2c-0.5,0-0.9,0.1-1.2,0.4c-0.3,0.3-0.4,0.6-0.4,1.1v0.1l-1.3-0.1c0-0.1,0-0.3,0.1-0.5s0.2-0.5,0.4-0.8
			s0.5-0.5,0.9-0.8c0.4-0.2,0.9-0.3,1.6-0.3c0.2,0,0.5,0,0.9,0.1c0.4,0.1,0.7,0.2,1,0.4c0.3,0.1,0.5,0.3,0.6,0.5
			c0.2,0.2,0.3,0.4,0.3,0.6c0.1,0.2,0.1,0.5,0.1,0.7c0,0.3,0,0.6,0,0.9v2.7c0,0.2,0,0.4,0.1,0.6c0.1,0.2,0.2,0.3,0.5,0.3
			c0.1,0,0.2,0,0.2,0c0,0,0.1,0,0.2,0V364z M201.7,360.9v-0.6c-0.1,0-0.3,0.1-0.6,0.1c-0.2,0-0.5,0.1-0.8,0.1s-0.5,0.1-0.8,0.2
			c-0.2,0.1-0.4,0.1-0.6,0.2c-0.1,0-0.1,0.1-0.2,0.1c-0.1,0.1-0.2,0.1-0.3,0.2c-0.1,0.1-0.2,0.2-0.3,0.3c-0.1,0.1-0.1,0.3-0.1,0.5
			c0,0.3,0.1,0.5,0.3,0.8s0.6,0.4,1.1,0.4c0.2,0,0.4,0,0.6-0.1c0.2,0,0.5-0.2,0.7-0.3c0.2-0.2,0.4-0.4,0.6-0.7
			C201.6,361.8,201.7,361.4,201.7,360.9z"></path>
		<path d="M206.9,354.2v-1.5h1.2v1.5H206.9z M206.9,364v-7.5h1.2v7.5H206.9z"></path>
		<path d="M216.7,364v-4.9c0-0.3,0-0.5-0.1-0.7c-0.1-0.2-0.2-0.4-0.4-0.5c-0.2-0.1-0.3-0.2-0.5-0.3c-0.2-0.1-0.4-0.1-0.6-0.1
			c-0.3,0-0.5,0-0.8,0.1s-0.5,0.2-0.6,0.4c-0.2,0.2-0.3,0.4-0.4,0.7c-0.1,0.3-0.2,0.6-0.2,0.9v4.5h-1.3v-7.5h1.3v1.1
			c0.1-0.1,0.2-0.3,0.3-0.4c0.1-0.2,0.3-0.3,0.5-0.4c0.2-0.1,0.4-0.2,0.7-0.3c0.3-0.1,0.6-0.1,0.9-0.1c0.1,0,0.2,0,0.4,0
			s0.4,0.1,0.6,0.1c0.2,0.1,0.4,0.2,0.6,0.3c0.2,0.1,0.4,0.3,0.6,0.6c0.2,0.3,0.3,0.6,0.4,1c0,0.3,0.1,0.7,0.1,1v4.8H216.7z"></path>
		<path d="M222.6,360.6c0,0.3,0,0.6,0.1,0.9c0.1,0.3,0.2,0.6,0.4,0.9c0.2,0.3,0.4,0.5,0.8,0.7c0.3,0.2,0.7,0.3,1.1,0.3
			c0.3,0,0.6-0.1,0.9-0.2c0.2-0.1,0.4-0.3,0.6-0.4c0.2-0.2,0.3-0.4,0.4-0.6c0.1-0.2,0.1-0.4,0.2-0.6l1.3,0.2c0,0.1-0.1,0.3-0.2,0.6
			c-0.1,0.3-0.3,0.6-0.6,0.9s-0.6,0.5-1,0.8c-0.4,0.2-0.9,0.3-1.6,0.3c-0.5,0-0.9-0.1-1.4-0.2c-0.4-0.1-0.8-0.4-1.2-0.7
			c-0.3-0.3-0.6-0.7-0.8-1.3c-0.2-0.5-0.3-1.1-0.3-1.9c0-0.7,0.1-1.3,0.4-1.8c0.2-0.5,0.5-0.9,0.9-1.2s0.7-0.5,1.2-0.7
			c0.4-0.1,0.8-0.2,1.2-0.2c0.4,0,0.8,0.1,1.2,0.2c0.4,0.1,0.8,0.4,1.1,0.7c0.3,0.3,0.6,0.7,0.8,1.2c0.2,0.5,0.3,1.1,0.3,1.9v0.2
			L222.6,360.6L222.6,360.6z M227,359.6c0-0.3-0.1-0.6-0.2-0.9c-0.1-0.3-0.3-0.5-0.4-0.7c-0.2-0.2-0.4-0.4-0.7-0.5
			c-0.3-0.1-0.6-0.2-0.9-0.2c-0.3,0-0.6,0.1-0.9,0.2s-0.5,0.3-0.6,0.5c-0.2,0.2-0.3,0.5-0.4,0.7c-0.1,0.3-0.2,0.6-0.2,0.9H227z"></path>
	</g>
	<g class="st12">
		<path d="M232.9,356.5v1.4c0.2-0.4,0.4-0.6,0.7-0.9c0.1-0.1,0.4-0.2,0.7-0.4c0.3-0.1,0.7-0.2,1.2-0.2v1.4c-0.2,0-0.3,0-0.5,0
			c-0.5,0-0.9,0.1-1.2,0.4c-0.4,0.2-0.6,0.6-0.7,1.1c-0.1,0.2-0.1,0.4-0.1,0.6s0,0.5,0,0.8v3.5h-1.3v-7.5H232.9z"></path>
	</g>
	<g class="st12">
		<path d="M237.5,364v-1.8h1.6v1.8H237.5z"></path>
	</g>
</g>
</svg>
